{
copyright = """";
designer = kinopio;
familyName = "OsakaMono-Kinopio";
customParameters = (
{
name = glyphOrder;
value = (
.notdef,
NULL,
CR,
space,
A,
Agrave,
B,
C,
D,
E,
Eacute,
Egrave,
F,
G,
H,
I,
J,
K,
L,
M,
N,
O,
P,
Q,
R,
S,
T,
U,
Uacute,
V,
W,
X,
Y,
Z,
a,
aacute,
agrave,
b,
c,
d,
e,
eacute,
egrave,
f,
g,
h,
i,
j,
k,
l,
m,
n,
o,
p,
q,
r,
s,
t,
u,
uacute,
ugrave,
v,
w,
x,
y,
z,
zero,
one,
two,
three,
four,
five,
six,
seven,
eight,
nine,
period,
comma,
colon,
semicolon,
exclam,
question,
asterisk,
numbersign,
slash,
backslash,
parenleft,
parenright,
braceleft,
braceright,
bracketleft,
bracketright,
hyphen,
underscore,
quotedbl,
quotesingle,
at,
ampersand,
paragraph,
section,
copyright,
degree,
bar,
cent,
dollar,
sterling,
yen,
plus,
multiply,
divide,
equal,
plusminus,
asciitilde,
logicalnot,
asciicircum,
percent,
dieresis,
grave,
acute,
Adieresis,
Edieresis,
circumflex,
Ograve,
Oacute,
Aacute,
Ugrave,
Iacute,
Igrave,
Odieresis,
acircumflex,
adieresis,
tilde,
Otilde,
Ocircumflex,
Atilde,
Acircumflex,
ring,
Aring,
AE,
atilde,
aring,
edieresis,
igrave,
iacute,
icircumflex,
idieresis,
lslash,
ntilde,
ograve,
oacute,
ocircumflex,
otilde,
odieresis,
ucircumflex,
udieresis,
yacute,
ydieresis,
caron,
zcaron,
Ecircumflex,
Ydieresis,
Yacute,
Zcaron,
Udieresis,
Ucircumflex,
Icircumflex,
Idieresis,
Ntilde,
cedilla,
Ccedilla,
ccedilla,
macron,
Amacron,
amacron,
Cacute,
cacute,
Ccircumflex,
ccircumflex,
Dcaron,
omacron,
Ecaron,
Gcircumflex,
gcircumflex,
Emacron,
emacron,
lacute,
Lacute,
Jcircumflex,
jcircumflex,
Nacute,
nacute,
ncaron,
Omacron,
Rcaron,
Sacute,
sacute,
Scedilla,
scedilla,
Tcaron,
Tbar,
Umacron,
umacron,
utilde,
Utilde,
Wcircumflex,
wcircumflex,
Ycircumflex,
ycircumflex,
Zacute,
zacute,
notequal,
endash,
exclamdown,
questiondown,
Wacute,
wacute,
Wdieresis,
wdieresis,
wgrave,
Wgrave,
Hcircumflex,
hcircumflex,
Ncaron,
uni0394,
uni03A9,
uni03BC,
pi,
emdash,
ellipsis,
uni2016,
quoteleft,
quoteright,
quotedblleft,
quotedblright,
dagger,
daggerdbl,
twodotenleader,

glyphs = (
{
glyphname = .notdef;
layers = (
{
layerId = "F2A7ED21-5BE1-4BFF-B4F1-F4609BDA8B83";
paths = (
{
closed = 1;
nodes = (
"16 162 LINE",
"16 162 OFFCURVE",
"16 0 OFFCURVE",
"16 0 CURVE",
"16 0 OFFCURVE",
"123 0 OFFCURVE",
"123 0 CURVE",
"123 0 OFFCURVE",
"123 162 OFFCURVE",
"123 162 CURVE"
);
},
{
closed = 1;
nodes = (
"34 144 LINE",
"34 144 OFFCURVE",
"105 144 OFFCURVE",
"105 144 CURVE",
"105 144 OFFCURVE",
"105 18 OFFCURVE",
"105 18 CURVE",
"105 18 OFFCURVE",
"34 18 OFFCURVE",
"34 18 CURVE"
);
},
{
closed = 1;
nodes = (
"99 12 LINE",
"113 24 LINE",
"41 149 LINE",
"27 138 LINE"
);
}
);
width = 139;
}
);
},
{
glyphname = A;
layers = (
{
hints = (
{
place = "{3, 122}";
type = Stem;
},
{
horizontal = 1;
place = "{0, 52}";
type = Stem;
},
{
horizontal = 1;
place = "{36, 16}";
type = Stem;
},
{
horizontal = 1;
place = "{129, 33}";
type = Stem;
},
{
horizontal = 1;
place = "{162, -20}";
target = down;
type = TopGhost;
}
);
layerId = "F2A7ED21-5BE1-4BFF-B4F1-F4609BDA8B83";
paths = (
{
closed = 1;
nodes = (
"91 36 LINE",
"91 36 OFFCURVE",
"102 0 OFFCURVE",
"102 0 CURVE",
"102 0 OFFCURVE",
"125 0 OFFCURVE",
"125 0 CURVE",
"125 0 OFFCURVE",
"75 162 OFFCURVE",
"75 162 CURVE",
"75 162 OFFCURVE",
"53 162 OFFCURVE",
"53 162 CURVE",
"53 162 OFFCURVE",
"3 0 OFFCURVE",
"3 0 CURVE",
"3 0 OFFCURVE",
"24 0 OFFCURVE",
"24 0 CURVE",
"24 0 OFFCURVE",
"35 36 OFFCURVE",
"35 36 CURVE"
);
},
{
closed = 1;
nodes = (
"59 113 LINE",
"59 113 OFFCURVE",
"63 129 OFFCURVE",
"63 129 CURVE",
"63 129 OFFCURVE",
"67 113 OFFCURVE",
"67 113 CURVE",
"67 113 OFFCURVE",
"87 52 OFFCURVE",
"87 52 CURVE",
"87 52 OFFCURVE",
"40 52 OFFCURVE",
"40 52 CURVE"
);
}
);
width = 128;
}
);
unicode = 0041;
},
{
glyphname = Agrave;
layers = (
{
hints = (
{
place = "{3, 122}";
type = Stem;
},
{
horizontal = 1;
place = "{0, 52}";
type = Stem;
},
{
horizontal = 1;
place = "{36, 16}";
type = Stem;
},
{
horizontal = 1;
place = "{129, 33}";
type = Stem;
},
{
horizontal = 1;
place = "{162, -20}";
target = down;
type = TopGhost;
},
{
horizontal = 1;
place = "{172, 34}";
type = Stem;
}
);
layerId = "F2A7ED21-5BE1-4BFF-B4F1-F4609BDA8B83";
paths = (
{
closed = 1;
nodes = (
"33 206 LINE",
"33 206 OFFCURVE",
"69 172 OFFCURVE",
"69 172 CURVE",
"69 172 OFFCURVE",
"87 172 OFFCURVE",
"87 172 CURVE",
"87 172 OFFCURVE",
"56 206 OFFCURVE",
"56 206 CURVE"
);
},
{
closed = 1;
nodes = (
"91 36 LINE",
"91 36 OFFCURVE",
"102 0 OFFCURVE",
"102 0 CURVE",
"102 0 OFFCURVE",
"125 0 OFFCURVE",
"125 0 CURVE",
"125 0 OFFCURVE",
"75 162 OFFCURVE",
"75 162 CURVE",
"75 162 OFFCURVE",
"53 162 OFFCURVE",
"53 162 CURVE",
"53 162 OFFCURVE",
"3 0 OFFCURVE",
"3 0 CURVE",
"3 0 OFFCURVE",
"24 0 OFFCURVE",
"24 0 CURVE",
"24 0 OFFCURVE",
"35 36 OFFCURVE",
"35 36 CURVE"
);
},
{
closed = 1;
nodes = (
"59 113 LINE",
"59 113 OFFCURVE",
"63 129 OFFCURVE",
"63 129 CURVE",
"63 129 OFFCURVE",
"67 113 OFFCURVE",
"67 113 CURVE",
"67 113 OFFCURVE",
"87 52 OFFCURVE",
"87 52 CURVE",
"87 52 OFFCURVE",
"40 52 OFFCURVE",
"40 52 CURVE"
);
}
);
width = 128;
}
);
unicode = 00C0;
},
{
glyphname = B;
layers = (
{
hints = (
{
place = "{18, 21}";
type = Stem;
},
{
place = "{87, 20}";
type = Stem;
},
{
place = "{91, 21}";
type = Stem;
},
{
horizontal = 1;
place = "{0, 16}";
type = Stem;
},
{
horizontal = 1;
place = "{73, 16}";
type = Stem;
},
{
horizontal = 1;
place = "{145, 17}";
type = Stem;
}
);
layerId = "F2A7ED21-5BE1-4BFF-B4F1-F4609BDA8B83";
paths = (
{
closed = 1;
nodes = (
"76 0 OFFCURVE",
"90 4 OFFCURVE",
"99 12 CURVE SMOOTH",
"108 19 OFFCURVE",
"112 29 OFFCURVE",
"112 42 CURVE SMOOTH",
"112 60 OFFCURVE",
"101 74 OFFCURVE",
"80 83 CURVE",
"98 93 OFFCURVE",
"107 107 OFFCURVE",
"107 125 CURVE SMOOTH",
"107 136 OFFCURVE",
"103 146 OFFCURVE",
"96 153 CURVE",
"88 159 OFFCURVE",
"72 162 OFFCURVE",
"49 162 CURVE",
"49 162 OFFCURVE",
"18 162 OFFCURVE",
"18 162 CURVE",
"18 162 OFFCURVE",
"18 0 OFFCURVE",
"18 0 CURVE",
"18 0 OFFCURVE",
"57 0 OFFCURVE",
"57 0 CURVE"
);
},
{
closed = 1;
nodes = (
"66 145 OFFCURVE",
"75 143 OFFCURVE",
"80 140 CURVE SMOOTH",
"85 136 OFFCURVE",
"87 130 OFFCURVE",
"87 123 CURVE SMOOTH",
"87 108 OFFCURVE",
"78 96 OFFCURVE",
"61 89 CURVE",
"61 89 OFFCURVE",
"39 89 OFFCURVE",
"39 89 CURVE",
"39 145 LINE",
"39 145 OFFCURVE",
"54 145 OFFCURVE",
"54 145 CURVE"
);
},
{
closed = 1;
nodes = (
"62 73 OFFCURVE",
"74 70 OFFCURVE",
"81 65 CURVE SMOOTH",
"88 59 OFFCURVE",
"91 52 OFFCURVE",
"91 43 CURVE SMOOTH",
"91 25 OFFCURVE",
"80 16 OFFCURVE",
"59 16 CURVE",
"59 16 OFFCURVE",
"39 16 OFFCURVE",
"39 16 CURVE",
"39 73 LINE",
"39 73 OFFCURVE",
"45 73 OFFCURVE",
"45 73 CURVE"
);
}
);
width = 128;
}
);
unicode = 0042;
},
{
glyphname = C;
layers = (
{
hints = (
{
horizontal = 1;
place = "{-5, 16}";
type = Stem;
},
{
horizontal = 1;
place = "{150, 17}";
type = Stem;
},
{
place = "{12, 22}";
type = Stem;
}
);
layerId = "F2A7ED21-5BE1-4BFF-B4F1-F4609BDA8B83";
paths = (
{
closed = 1;
nodes = (
"94 -5 OFFCURVE",
"104 -3 OFFCURVE",
"113 2 CURVE",
"113 2 OFFCURVE",
"113 21 OFFCURVE",
"113 21 CURVE",
"102 14 OFFCURVE",
"91 11 OFFCURVE",
"80 11 CURVE SMOOTH",
"68 11 OFFCURVE",
"58 16 OFFCURVE",
"50 27 CURVE SMOOTH",
"39 40 OFFCURVE",
"34 58 OFFCURVE",
"34 81 CURVE SMOOTH",
"34 104 OFFCURVE",
"39 121 OFFCURVE",
"50 134 CURVE SMOOTH",
"58 145 OFFCURVE",
"68 150 OFFCURVE",
"80 150 CURVE SMOOTH",
"91 150 OFFCURVE",
"102 147 OFFCURVE",
"113 141 CURVE",
"113 141 OFFCURVE",
"113 160 OFFCURVE",
"113 160 CURVE",
"104 165 OFFCURVE",
"94 167 OFFCURVE",
"81 167 CURVE SMOOTH",
"33 167 OFFCURVE",
"12 124 OFFCURVE",
"12 81 CURVE SMOOTH",
"12 39 OFFCURVE",
"34 -5 OFFCURVE",
"81 -5 CURVE SMOOTH"
);
}
);
width = 128;
}
);
unicode = 0043;
},
{
glyphname = D;
layers = (
{
hints = (
{
horizontal = 1;
place = "{0, 18}";
type = Stem;
},
{
horizontal = 1;
place = "{145, 17}";
type = Stem;
},
{
place = "{16, 21}";
type = Stem;
},
{
place = "{99, 21}";
type = Stem;
}
);
layerId = "F2A7ED21-5BE1-4BFF-B4F1-F4609BDA8B83";
paths = (
{
closed = 1;
nodes = (
"104 0 OFFCURVE",
"120 34 OFFCURVE",
"120 80 CURVE SMOOTH",
"120 128 OFFCURVE",
"107 162 OFFCURVE",
"54 162 CURVE",
"54 162 OFFCURVE",
"16 162 OFFCURVE",
"16 162 CURVE",
"16 162 OFFCURVE",
"16 0 OFFCURVE",
"16 0 CURVE",
"16 0 OFFCURVE",
"54 0 OFFCURVE",
"54 0 CURVE"
);
},
{
closed = 1;
nodes = (
"68 145 OFFCURVE",
"80 141 OFFCURVE",
"88 132 CURVE SMOOTH",
"95 123 OFFCURVE",
"99 107 OFFCURVE",
"99 84 CURVE SMOOTH",
"99 59 OFFCURVE",
"95 41 OFFCURVE",
"88 32 CURVE SMOOTH",
"80 23 OFFCURVE",
"68 18 OFFCURVE",
"51 18 CURVE",
"51 18 OFFCURVE",
"37 18 OFFCURVE",
"37 18 CURVE",
"37 145 LINE",
"37 145 OFFCURVE",
"53 145 OFFCURVE",
"53 145 CURVE"
);
}
);
width = 128;
}
);
unicode = 0044;
},
{
glyphname = E;
layers = (
{
hints = (
{
place = "{21, 21}";
type = Stem;
},
{
place = "{42, 58}";
type = Stem;
},
{
horizontal = 1;
place = "{0, 18}";
type = Stem;
},
{
horizontal = 1;
place = "{74, 17}";
type = Stem;
},
{
horizontal = 1;
place = "{145, 17}";
type = Stem;
}
);
layerId = "F2A7ED21-5BE1-4BFF-B4F1-F4609BDA8B83";
paths = (
{
closed = 1;
nodes = (
"42 18 LINE",
"42 18 OFFCURVE",
"42 74 OFFCURVE",
"42 74 CURVE",
"42 74 OFFCURVE",
"100 74 OFFCURVE",
"100 74 CURVE",
"100 74 OFFCURVE",
"100 91 OFFCURVE",
"100 91 CURVE",
"100 91 OFFCURVE",
"42 91 OFFCURVE",
"42 91 CURVE",
"42 91 OFFCURVE",
"42 145 OFFCURVE",
"42 145 CURVE",
"42 145 OFFCURVE",
"107 145 OFFCURVE",
"107 145 CURVE",
"107 145 OFFCURVE",
"107 162 OFFCURVE",
"107 162 CURVE",
"107 162 OFFCURVE",
"21 162 OFFCURVE",
"21 162 CURVE",
"21 162 OFFCURVE",
"21 0 OFFCURVE",
"21 0 CURVE",
"21 0 OFFCURVE",
"108 0 OFFCURVE",
"108 0 CURVE",
"108 0 OFFCURVE",
"108 18 OFFCURVE",
"108 18 CURVE"
);
}
);
width = 128;
}
);
unicode = 0045;
},
{
glyphname = Eacute;
layers = (
{
hints = (
{
place = "{21, 21}";
type = Stem;
},
{
place = "{42, 58}";
type = Stem;
},
{
horizontal = 1;
place = "{0, 18}";
type = Stem;
},
{
horizontal = 1;
place = "{74, 17}";
type = Stem;
},
{
horizontal = 1;
place = "{145, 17}";
type = Stem;
},
{
horizontal = 1;
place = "{145, 60}";
type = Stem;
}
);
layerId = "F2A7ED21-5BE1-4BFF-B4F1-F4609BDA8B83";
paths = (
{
closed = 1;
nodes = (
"69 205 LINE",
"69 205 OFFCURVE",
"38 171 OFFCURVE",
"38 171 CURVE",
"38 171 OFFCURVE",
"56 171 OFFCURVE",
"56 171 CURVE",
"56 171 OFFCURVE",
"92 205 OFFCURVE",
"92 205 CURVE"
);
},
{
closed = 1;
nodes = (
"42 18 LINE",
"42 18 OFFCURVE",
"42 74 OFFCURVE",
"42 74 CURVE",
"42 74 OFFCURVE",
"100 74 OFFCURVE",
"100 74 CURVE",
"100 74 OFFCURVE",
"100 91 OFFCURVE",
"100 91 CURVE",
"100 91 OFFCURVE",
"42 91 OFFCURVE",
"42 91 CURVE",
"42 91 OFFCURVE",
"42 145 OFFCURVE",
"42 145 CURVE",
"42 145 OFFCURVE",
"107 145 OFFCURVE",
"107 145 CURVE",
"107 145 OFFCURVE",
"107 162 OFFCURVE",
"107 162 CURVE",
"107 162 OFFCURVE",
"21 162 OFFCURVE",
"21 162 CURVE",
"21 162 OFFCURVE",
"21 0 OFFCURVE",
"21 0 CURVE",
"21 0 OFFCURVE",
"108 0 OFFCURVE",
"108 0 CURVE",
"108 0 OFFCURVE",
"108 18 OFFCURVE",
"108 18 CURVE"
);
}
);
width = 125;
}
);
unicode = 00C9;
},
{
glyphname = Egrave;
layers = (
{
hints = (
{
place = "{21, 21}";
type = Stem;
},
{
place = "{42, 58}";
type = Stem;
},
{
place = "{92, 15}";
type = Stem;
},
{
horizontal = 1;
place = "{0, 18}";
type = Stem;
},
{
horizontal = 1;
place = "{74, 17}";
type = Stem;
},
{
horizontal = 1;
place = "{145, 17}";
type = Stem;
},
{
horizontal = 1;
place = "{145, 60}";
type = Stem;
}
);
layerId = "F2A7ED21-5BE1-4BFF-B4F1-F4609BDA8B83";
paths = (
{
closed = 1;
nodes = (
"38 205 LINE",
"38 205 OFFCURVE",
"74 171 OFFCURVE",
"74 171 CURVE",
"74 171 OFFCURVE",
"92 171 OFFCURVE",
"92 171 CURVE",
"92 171 OFFCURVE",
"61 205 OFFCURVE",
"61 205 CURVE"
);
},
{
closed = 1;
nodes = (
"42 18 LINE",
"42 18 OFFCURVE",
"42 74 OFFCURVE",
"42 74 CURVE",
"42 74 OFFCURVE",
"100 74 OFFCURVE",
"100 74 CURVE",
"100 74 OFFCURVE",
"100 91 OFFCURVE",
"100 91 CURVE",
"100 91 OFFCURVE",
"42 91 OFFCURVE",
"42 91 CURVE",
"42 91 OFFCURVE",
"42 145 OFFCURVE",
"42 145 CURVE",
"42 145 OFFCURVE",
"107 145 OFFCURVE",
"107 145 CURVE",
"107 145 OFFCURVE",
"107 162 OFFCURVE",
"107 162 CURVE",
"107 162 OFFCURVE",
"21 162 OFFCURVE",
"21 162 CURVE",
"21 162 OFFCURVE",
"21 0 OFFCURVE",
"21 0 CURVE",
"21 0 OFFCURVE",
"108 0 OFFCURVE",
"108 0 CURVE",
"108 0 OFFCURVE",
"108 18 OFFCURVE",
"108 18 CURVE"
);
}
);
width = 125;
}
);
unicode = 00C8;
},
{
glyphname = F;
layers = (
{
hints = (
{
place = "{24, 21}";
type = Stem;
},
{
place = "{45, 61}";
type = Stem;
},
{
horizontal = 1;
place = "{0, 21}";
target = up;
type = BottomGhost;
},
{
horizontal = 1;
place = "{74, 17}";
type = Stem;
},
{
horizontal = 1;
place = "{145, 17}";
type = Stem;
}
);
layerId = "F2A7ED21-5BE1-4BFF-B4F1-F4609BDA8B83";
paths = (
{
closed = 1;
nodes = (
"45 0 OFFCURVE",
"45 74 OFFCURVE",
"45 74 CURVE",
"106 74 LINE",
"106 74 OFFCURVE",
"106 91 OFFCURVE",
"106 91 CURVE",
"106 91 OFFCURVE",
"45 91 OFFCURVE",
"45 91 CURVE",
"45 91 OFFCURVE",
"45 145 OFFCURVE",
"45 145 CURVE",
"45 145 OFFCURVE",
"112 145 OFFCURVE",
"112 145 CURVE",
"112 145 OFFCURVE",
"112 162 OFFCURVE",
"112 162 CURVE",
"112 162 OFFCURVE",
"24 162 OFFCURVE",
"24 162 CURVE",
"24 162 OFFCURVE",
"24 0 OFFCURVE",
"24 0 CURVE",
"24 0 OFFCURVE",
"45 0 OFFCURVE",
"45 0 CURVE"
);
}
);
width = 128;
}
);
unicode = 0046;
},
{
glyphname = G;
layers = (
{
hints = (
{
place = "{12, 22}";
type = Stem;
},
{
place = "{92, 21}";
type = Stem;
},
{
horizontal = 1;
place = "{-5, 17}";
type = Stem;
},
{
horizontal = 1;
place = "{0, 21}";
target = up;
type = BottomGhost;
},
{
horizontal = 1;
place = "{64, 16}";
type = Stem;
},
{
horizontal = 1;
place = "{150, 17}";
type = Stem;
}
);
layerId = "F2A7ED21-5BE1-4BFF-B4F1-F4609BDA8B83";
paths = (
{
closed = 1;
nodes = (
"86 -5 OFFCURVE",
"96 -3 OFFCURVE",
"113 0 CURVE",
"113 0 OFFCURVE",
"113 80 OFFCURVE",
"113 80 CURVE",
"113 80 OFFCURVE",
"76 80 OFFCURVE",
"76 80 CURVE",
"76 80 OFFCURVE",
"76 64 OFFCURVE",
"76 64 CURVE",
"76 64 OFFCURVE",
"92 64 OFFCURVE",
"92 64 CURVE",
"92 64 OFFCURVE",
"92 12 OFFCURVE",
"92 12 CURVE",
"47 12 OFFCURVE",
"34 40 OFFCURVE",
"34 81 CURVE SMOOTH",
"34 104 OFFCURVE",
"39 121 OFFCURVE",
"50 134 CURVE SMOOTH",
"58 145 OFFCURVE",
"68 150 OFFCURVE",
"80 150 CURVE SMOOTH",
"91 150 OFFCURVE",
"102 147 OFFCURVE",
"113 141 CURVE",
"113 141 OFFCURVE",
"113 160 OFFCURVE",
"113 160 CURVE",
"104 165 OFFCURVE",
"94 167 OFFCURVE",
"81 167 CURVE SMOOTH",
"33 167 OFFCURVE",
"12 124 OFFCURVE",
"12 81 CURVE SMOOTH",
"12 38 OFFCURVE",
"34 -5 OFFCURVE",
"82 -5 CURVE SMOOTH"
);
}
);
width = 128;
}
);
unicode = 0047;
},
{
glyphname = H;
layers = (
{
hints = (
{
place = "{13, 21}";
type = Stem;
},
{
place = "{94, 21}";
type = Stem;
},
{
horizontal = 1;
place = "{0, 92}";
type = Stem;
},
{
horizontal = 1;
place = "{76, 16}";
type = Stem;
},
{
horizontal = 1;
place = "{76, 86}";
type = Stem;
}
);
layerId = "F2A7ED21-5BE1-4BFF-B4F1-F4609BDA8B83";
paths = (
{
closed = 1;
nodes = (
"94 76 LINE",
"94 76 OFFCURVE",
"94 0 OFFCURVE",
"94 0 CURVE",
"94 0 OFFCURVE",
"115 0 OFFCURVE",
"115 0 CURVE",
"115 0 OFFCURVE",
"115 162 OFFCURVE",
"115 162 CURVE",
"115 162 OFFCURVE",
"94 162 OFFCURVE",
"94 162 CURVE",
"94 162 OFFCURVE",
"94 92 OFFCURVE",
"94 92 CURVE",
"94 92 OFFCURVE",
"34 92 OFFCURVE",
"34 92 CURVE",
"34 92 OFFCURVE",
"34 162 OFFCURVE",
"34 162 CURVE",
"34 162 OFFCURVE",
"13 162 OFFCURVE",
"13 162 CURVE",
"13 162 OFFCURVE",
"13 0 OFFCURVE",
"13 0 CURVE",
"13 0 OFFCURVE",
"34 0 OFFCURVE",
"34 0 CURVE",
"34 0 OFFCURVE",
"34 76 OFFCURVE",
"34 76 CURVE"
);
}
);
width = 128;
}
);
unicode = 0048;
},
{
glyphname = I;
layers = (
{
hints = (
{
place = "{53, 21}";
type = Stem;
},
{
place = "{74, 36}";
type = Stem;
},
{
horizontal = 1;
place = "{0, 16}";
type = Stem;
},
{
horizontal = 1;
place = "{145, 17}";
type = Stem;
}
);
layerId = "F2A7ED21-5BE1-4BFF-B4F1-F4609BDA8B83";
paths = (
{
closed = 1;
nodes = (
"53 145 OFFCURVE",
"53 16 OFFCURVE",
"53 16 CURVE",
"53 16 OFFCURVE",
"18 16 OFFCURVE",
"18 16 CURVE",
"18 16 OFFCURVE",
"18 0 OFFCURVE",
"18 0 CURVE",
"18 0 OFFCURVE",
"110 0 OFFCURVE",
"110 0 CURVE",
"110 0 OFFCURVE",
"110 16 OFFCURVE",
"110 16 CURVE",
"74 16 LINE",
"74 16 OFFCURVE",
"74 145 OFFCURVE",
"74 145 CURVE",
"74 145 OFFCURVE",
"110 145 OFFCURVE",
"110 145 CURVE",
"110 145 OFFCURVE",
"110 162 OFFCURVE",
"110 162 CURVE",
"110 162 OFFCURVE",
"18 162 OFFCURVE",
"18 162 CURVE",
"18 162 OFFCURVE",
"18 145 OFFCURVE",
"18 145 CURVE",
"18 145 OFFCURVE",
"53 145 OFFCURVE",
"53 145 CURVE"
);
}
);
width = 128;
}
);
unicode = 0049;
},
{
glyphname = J;
layers = (
{
hints = (
{
horizontal = 1;
place = "{-5, 16}";
type = Stem;
},
{
horizontal = 1;
place = "{145, 17}";
type = Stem;
},
{
place = "{79, 21}";
type = Stem;
}
);
layerId = "F2A7ED21-5BE1-4BFF-B4F1-F4609BDA8B83";
paths = (
{
closed = 1;
nodes = (
"24 -2 OFFCURVE",
"37 -5 OFFCURVE",
"50 -5 CURVE SMOOTH",
"89 -5 OFFCURVE",
"100 21 OFFCURVE",
"100 56 CURVE",
"100 56 OFFCURVE",
"100 162 OFFCURVE",
"100 162 CURVE",
"100 162 OFFCURVE",
"42 162 OFFCURVE",
"42 162 CURVE",
"42 162 OFFCURVE",
"42 145 OFFCURVE",
"42 145 CURVE",
"42 145 OFFCURVE",
"79 145 OFFCURVE",
"79 145 CURVE",
"79 145 OFFCURVE",
"79 56 OFFCURVE",
"79 56 CURVE",
"79 37 OFFCURVE",
"77 25 OFFCURVE",
"72 20 CURVE SMOOTH",
"67 14 OFFCURVE",
"59 11 OFFCURVE",
"49 11 CURVE SMOOTH",
"39 11 OFFCURVE",
"26 15 OFFCURVE",
"11 23 CURVE",
"11 23 OFFCURVE",
"11 4 OFFCURVE",
"11 4 CURVE"
);
}
);
width = 128;
}
);
unicode = 004A;
},
{
glyphname = K;
layers = (
{
hints = (
{
horizontal = 1;
place = "{0, 21}";
target = up;
type = BottomGhost;
},
{
horizontal = 1;
place = "{162, -20}";
target = down;
type = TopGhost;
},
{
place = "{16, 21}";
type = Stem;
}
);
layerId = "F2A7ED21-5BE1-4BFF-B4F1-F4609BDA8B83";
paths = (
{
closed = 1;
nodes = (
"37 0 OFFCURVE",
"37 82 OFFCURVE",
"37 82 CURVE",
"102 0 LINE",
"102 0 OFFCURVE",
"128 0 OFFCURVE",
"128 0 CURVE",
"128 0 OFFCURVE",
"62 85 OFFCURVE",
"62 85 CURVE",
"62 85 OFFCURVE",
"120 162 OFFCURVE",
"120 162 CURVE",
"120 162 OFFCURVE",
"97 162 OFFCURVE",
"97 162 CURVE",
"97 162 OFFCURVE",
"37 82 OFFCURVE",
"37 82 CURVE",
"37 82 OFFCURVE",
"37 162 OFFCURVE",
"37 162 CURVE",
"37 162 OFFCURVE",
"16 162 OFFCURVE",
"16 162 CURVE",
"16 162 OFFCURVE",
"16 0 OFFCURVE",
"16 0 CURVE",
"16 0 OFFCURVE",
"37 0 OFFCURVE",
"37 0 CURVE"
);
}
);
width = 128;
}
);
unicode = 004B;
},
{
glyphname = L;
layers = (
{
hints = (
{
horizontal = 1;
place = "{0, 18}";
type = Stem;
},
{
horizontal = 1;
place = "{162, -20}";
target = down;
type = TopGhost;
},
{
place = "{23, 21}";
type = Stem;
}
);
layerId = "F2A7ED21-5BE1-4BFF-B4F1-F4609BDA8B83";
paths = (
{
closed = 1;
nodes = (
"110 0 OFFCURVE",
"110 18 OFFCURVE",
"110 18 CURVE",
"44 18 LINE",
"44 18 OFFCURVE",
"44 162 OFFCURVE",
"44 162 CURVE",
"44 162 OFFCURVE",
"23 162 OFFCURVE",
"23 162 CURVE",
"23 162 OFFCURVE",
"23 0 OFFCURVE",
"23 0 CURVE",
"23 0 OFFCURVE",
"110 0 OFFCURVE",
"110 0 CURVE"
);
}
);
width = 128;
}
);
unicode = 004C;
},
{
glyphname = M;
layers = (
{
hints = (
{
place = "{6, 17}";
type = Stem;
},
{
place = "{103, 19}";
type = Stem;
},
{
horizontal = 1;
place = "{0, 21}";
target = up;
type = BottomGhost;
},
{
horizontal = 1;
place = "{103, 14}";
type = Stem;
},
{
horizontal = 1;
place = "{117, -20}";
target = down;
type = TopGhost;
},
{
horizontal = 1;
place = "{117, 45}";
type = Stem;
},
{
horizontal = 1;
place = "{162, -20}";
target = down;
type = TopGhost;
}
);
layerId = "F2A7ED21-5BE1-4BFF-B4F1-F4609BDA8B83";
paths = (
{
closed = 1;
nodes = (
"23 0 OFFCURVE",
"23 103 OFFCURVE",
"23 103 CURVE",
"22 117 LINE",
"23 117 LINE",
"23 117 OFFCURVE",
"27 103 OFFCURVE",
"27 103 CURVE",
"27 103 OFFCURVE",
"52 32 OFFCURVE",
"52 32 CURVE",
"52 32 OFFCURVE",
"73 32 OFFCURVE",
"73 32 CURVE",
"73 32 OFFCURVE",
"103 117 OFFCURVE",
"103 117 CURVE",
"103 117 OFFCURVE",
"103 0 OFFCURVE",
"103 0 CURVE",
"103 0 OFFCURVE",
"122 0 OFFCURVE",
"122 0 CURVE",
"122 0 OFFCURVE",
"122 162 OFFCURVE",
"122 162 CURVE",
"122 162 OFFCURVE",
"102 162 OFFCURVE",
"102 162 CURVE",
"102 162 OFFCURVE",
"64 55 OFFCURVE",
"64 55 CURVE",
"64 55 OFFCURVE",
"27 162 OFFCURVE",
"27 162 CURVE",
"27 162 OFFCURVE",
"6 162 OFFCURVE",
"6 162 CURVE",
"6 162 OFFCURVE",
"6 0 OFFCURVE",
"6 0 CURVE",
"6 0 OFFCURVE",
"23 0 OFFCURVE",
"23 0 CURVE"
);
}
);
width = 128;
}
);
unicode = 004D;
},
{
glyphname = N;
layers = (
{
hints = (
{
place = "{13, 19}";
type = Stem;
},
{
place = "{96, 19}";
type = Stem;
},
{
horizontal = 1;
place = "{0, 21}";
target = up;
type = BottomGhost;
},
{
horizontal = 1;
place = "{123, 39}";
type = Stem;
},
{
horizontal = 1;
place = "{162, -20}";
target = down;
type = TopGhost;
}
);
layerId = "F2A7ED21-5BE1-4BFF-B4F1-F4609BDA8B83";
paths = (
{
closed = 1;
nodes = (
"13 0 OFFCURVE",
"32 0 OFFCURVE",
"32 0 CURVE",
"32 0 OFFCURVE",
"32 123 OFFCURVE",
"32 123 CURVE",
"40 106 LINE",
"40 106 OFFCURVE",
"96 0 OFFCURVE",
"96 0 CURVE",
"96 0 OFFCURVE",
"115 0 OFFCURVE",
"115 0 CURVE",
"115 0 OFFCURVE",
"115 162 OFFCURVE",
"115 162 CURVE",
"115 162 OFFCURVE",
"96 162 OFFCURVE",
"96 162 CURVE",
"96 162 OFFCURVE",
"96 38 OFFCURVE",
"96 38 CURVE",
"96 38 OFFCURVE",
"89 54 OFFCURVE",
"89 54 CURVE",
"89 54 OFFCURVE",
"32 162 OFFCURVE",
"32 162 CURVE",
"32 162 OFFCURVE",
"13 162 OFFCURVE",
"13 162 CURVE",
"13 162 OFFCURVE",
"13 0 OFFCURVE",
"13 0 CURVE"
);
}
);
width = 128;
}
);
unicode = 004E;
},
{
glyphname = O;
layers = (
{
hints = (
{
horizontal = 1;
place = "{-5, 16}";
type = Stem;
},
{
horizontal = 1;
place = "{150, 16}";
type = Stem;
},
{
place = "{7, 21}";
type = Stem;
},
{
place = "{99, 22}";
type = Stem;
}
);
layerId = "F2A7ED21-5BE1-4BFF-B4F1-F4609BDA8B83";
paths = (
{
closed = 1;
nodes = (
"115 28 OFFCURVE",
"121 50 OFFCURVE",
"121 81 CURVE SMOOTH",
"121 111 OFFCURVE",
"115 133 OFFCURVE",
"102 148 CURVE SMOOTH",
"93 160 OFFCURVE",
"80 166 OFFCURVE",
"64 166 CURVE SMOOTH",
"18 166 OFFCURVE",
"7 118 OFFCURVE",
"7 81 CURVE SMOOTH",
"7 43 OFFCURVE",
"17 -5 OFFCURVE",
"64 -5 CURVE SMOOTH",
"80 -5 OFFCURVE",
"93 1 OFFCURVE",
"102 13 CURVE SMOOTH"
);
},
{
closed = 1;
nodes = (
"32 36 OFFCURVE",
"28 54 OFFCURVE",
"28 81 CURVE SMOOTH",
"28 107 OFFCURVE",
"32 125 OFFCURVE",
"41 136 CURVE SMOOTH",
"47 145 OFFCURVE",
"55 150 OFFCURVE",
"64 150 CURVE SMOOTH",
"94 150 OFFCURVE",
"99 102 OFFCURVE",
"99 81 CURVE SMOOTH",
"99 60 OFFCURVE",
"95 11 OFFCURVE",
"64 11 CURVE SMOOTH",
"55 11 OFFCURVE",
"47 16 OFFCURVE",
"41 25 CURVE SMOOTH"
);
}
);
width = 128;
}
);
unicode = 004F;
},
{
glyphname = P;
layers = (
{
hints = (
{
horizontal = 1;
place = "{0, 21}";
target = up;
type = BottomGhost;
},
{
horizontal = 1;
place = "{59, 16}";
type = Stem;
},
{
horizontal = 1;
place = "{145, 17}";
type = Stem;
},
{
place = "{18, 21}";
type = Stem;
},
{
place = "{97, 21}";
type = Stem;
}
);
layerId = "F2A7ED21-5BE1-4BFF-B4F1-F4609BDA8B83";
paths = (
{
closed = 1;
nodes = (
"39 0 OFFCURVE",
"39 59 OFFCURVE",
"39 59 CURVE",
"48 59 LINE SMOOTH",
"95 59 OFFCURVE",
"118 78 OFFCURVE",
"118 116 CURVE SMOOTH",
"118 130 OFFCURVE",
"114 141 OFFCURVE",
"105 150 CURVE SMOOTH",
"96 158 OFFCURVE",
"81 162 OFFCURVE",
"59 162 CURVE",
"59 162 OFFCURVE",
"18 162 OFFCURVE",
"18 162 CURVE",
"18 162 OFFCURVE",
"18 0 OFFCURVE",
"18 0 CURVE",
"18 0 OFFCURVE",
"39 0 OFFCURVE",
"39 0 CURVE"
);
},
{
closed = 1;
nodes = (
"69 145 OFFCURVE",
"81 143 OFFCURVE",
"88 138 CURVE SMOOTH",
"94 133 OFFCURVE",
"97 125 OFFCURVE",
"97 115 CURVE SMOOTH",
"97 103 OFFCURVE",
"93 93 OFFCURVE",
"86 86 CURVE",
"77 79 OFFCURVE",
"64 75 OFFCURVE",
"48 75 CURVE",
"48 75 OFFCURVE",
"39 75 OFFCURVE",
"39 75 CURVE",
"39 145 LINE",
"39 145 OFFCURVE",
"52 145 OFFCURVE",
"52 145 CURVE"
);
}
);
width = 128;
}
);
unicode = 0050;
},
{
glyphname = Q;
layers = (
{
hints = (
{
horizontal = 1;
place = "{-45, 16}";
type = Stem;
},
{
horizontal = 1;
place = "{-3, 14}";
type = Stem;
},
{
horizontal = 1;
place = "{150, 16}";
type = Stem;
},
{
place = "{7, 21}";
type = Stem;
},
{
place = "{99, 22}";
type = Stem;
}
);
layerId = "F2A7ED21-5BE1-4BFF-B4F1-F4609BDA8B83";
paths = (
{
closed = 1;
nodes = (
"113 6 OFFCURVE",
"121 51 OFFCURVE",
"121 81 CURVE SMOOTH",
"121 111 OFFCURVE",
"115 133 OFFCURVE",
"102 148 CURVE SMOOTH",
"93 160 OFFCURVE",
"80 166 OFFCURVE",
"64 166 CURVE SMOOTH",
"19 166 OFFCURVE",
"7 120 OFFCURVE",
"7 83 CURVE SMOOTH",
"7 44 OFFCURVE",
"17 0 OFFCURVE",
"62 -5 CURVE",
"69 -20 OFFCURVE",
"77 -30 OFFCURVE",
"87 -37 CURVE",
"100 -44 OFFCURVE",
"114 -45 OFFCURVE",
"128 -45 CURVE",
"128 -45 OFFCURVE",
"128 -29 OFFCURVE",
"128 -29 CURVE",
"126 -29 LINE",
"104 -29 OFFCURVE",
"88 -20 OFFCURVE",
"78 -3 CURVE"
);
},
{
closed = 1;
nodes = (
"99 60 OFFCURVE",
"95 11 OFFCURVE",
"64 11 CURVE SMOOTH",
"55 11 OFFCURVE",
"47 16 OFFCURVE",
"41 25 CURVE SMOOTH",
"32 36 OFFCURVE",
"28 54 OFFCURVE",
"28 81 CURVE SMOOTH",
"28 107 OFFCURVE",
"32 125 OFFCURVE",
"41 136 CURVE SMOOTH",
"47 145 OFFCURVE",
"55 150 OFFCURVE",
"64 150 CURVE SMOOTH",
"94 150 OFFCURVE",
"99 102 OFFCURVE",
"99 81 CURVE SMOOTH"
);
}
);
width = 128;
}
);
unicode = 0051;
},
{
glyphname = R;
layers = (
{
hints = (
{
horizontal = 1;
place = "{0, 21}";
target = up;
type = BottomGhost;
},
{
horizontal = 1;
place = "{69, 16}";
type = Stem;
},
{
horizontal = 1;
place = "{145, 17}";
type = Stem;
},
{
place = "{16, 21}";
type = Stem;
},
{
place = "{91, 20}";
type = Stem;
}
);
layerId = "F2A7ED21-5BE1-4BFF-B4F1-F4609BDA8B83";
paths = (
{
closed = 1;
nodes = (
"37 0 OFFCURVE",
"37 69 OFFCURVE",
"37 69 CURVE",
"58 69 LINE",
"58 69 OFFCURVE",
"100 0 OFFCURVE",
"100 0 CURVE",
"100 0 OFFCURVE",
"125 0 OFFCURVE",
"125 0 CURVE",
"125 0 OFFCURVE",
"79 76 OFFCURVE",
"79 76 CURVE",
"100 87 OFFCURVE",
"111 104 OFFCURVE",
"111 125 CURVE SMOOTH",
"111 136 OFFCURVE",
"107 145 OFFCURVE",
"99 152 CURVE SMOOTH",
"92 159 OFFCURVE",
"79 162 OFFCURVE",
"59 162 CURVE",
"59 162 OFFCURVE",
"16 162 OFFCURVE",
"16 162 CURVE",
"16 162 OFFCURVE",
"16 0 OFFCURVE",
"16 0 CURVE",
"16 0 OFFCURVE",
"37 0 OFFCURVE",
"37 0 CURVE"
);
},
{
closed = 1;
nodes = (
"37 145 LINE",
"37 145 OFFCURVE",
"52 145 OFFCURVE",
"52 145 CURVE",
"67 145 OFFCURVE",
"77 143 OFFCURVE",
"83 139 CURVE",
"88 134 OFFCURVE",
"91 128 OFFCURVE",
"91 121 CURVE SMOOTH",
"91 106 OFFCURVE",
"83 94 OFFCURVE",
"66 85 CURVE",
"66 85 OFFCURVE",
"37 85 OFFCURVE",
"37 85 CURVE"
);
}
);
width = 128;
}
);
unicode = 0052;
},
{
glyphname = S;
layers = (
{
hints = (
{
horizontal = 1;
place = "{-5, 16}";
type = Stem;
},
{
horizontal = 1;
place = "{150, 16}";
type = Stem;
},
{
place = "{18, 21}";
type = Stem;
},
{
place = "{94, 21}";
type = Stem;
}
);
layerId = "F2A7ED21-5BE1-4BFF-B4F1-F4609BDA8B83";
paths = (
{
closed = 1;
nodes = (
"35 -2 OFFCURVE",
"49 -5 OFFCURVE",
"57 -5 CURVE SMOOTH",
"87 -5 OFFCURVE",
"115 7 OFFCURVE",
"115 41 CURVE SMOOTH",
"115 58 OFFCURVE",
"106 71 OFFCURVE",
"88 82 CURVE SMOOTH",
"63 97 OFFCURVE",
"48 107 OFFCURVE",
"45 111 CURVE SMOOTH",
"41 115 OFFCURVE",
"39 120 OFFCURVE",
"39 126 CURVE SMOOTH",
"39 143 OFFCURVE",
"55 150 OFFCURVE",
"69 150 CURVE SMOOTH",
"84 150 OFFCURVE",
"95 148 OFFCURVE",
"104 143 CURVE",
"104 143 OFFCURVE",
"104 161 OFFCURVE",
"104 161 CURVE",
"87 164 OFFCURVE",
"76 166 OFFCURVE",
"70 166 CURVE SMOOTH",
"42 166 OFFCURVE",
"18 154 OFFCURVE",
"18 123 CURVE SMOOTH",
"18 106 OFFCURVE",
"27 93 OFFCURVE",
"46 82 CURVE SMOOTH",
"71 68 OFFCURVE",
"85 59 OFFCURVE",
"88 54 CURVE SMOOTH",
"92 49 OFFCURVE",
"94 43 OFFCURVE",
"94 37 CURVE SMOOTH",
"94 30 OFFCURVE",
"91 24 OFFCURVE",
"86 19 CURVE",
"79 14 OFFCURVE",
"71 11 OFFCURVE",
"62 11 CURVE SMOOTH",
"49 11 OFFCURVE",
"33 15 OFFCURVE",
"16 23 CURVE",
"16 23 OFFCURVE",
"16 3 OFFCURVE",
"16 3 CURVE"
);
}
);
width = 128;
}
);
unicode = 0053;
},
{
glyphname = T;
layers = (
{
hints = (
{
horizontal = 1;
place = "{0, 21}";
target = up;
type = BottomGhost;
},
{
horizontal = 1;
place = "{144, 18}";
type = Stem;
},
{
place = "{53, 21}";
type = Stem;
}
);
layerId = "F2A7ED21-5BE1-4BFF-B4F1-F4609BDA8B83";
paths = (
{
closed = 1;
nodes = (
"53 144 OFFCURVE",
"53 0 OFFCURVE",
"53 0 CURVE",
"53 0 OFFCURVE",
"74 0 OFFCURVE",
"74 0 CURVE",
"74 0 OFFCURVE",
"74 144 OFFCURVE",
"74 144 CURVE",
"123 144 LINE",
"123 144 OFFCURVE",
"123 162 OFFCURVE",
"123 162 CURVE",
"123 162 OFFCURVE",
"5 162 OFFCURVE",
"5 162 CURVE",
"5 162 OFFCURVE",
"5 144 OFFCURVE",
"5 144 CURVE",
"5 144 OFFCURVE",
"53 144 OFFCURVE",
"53 144 CURVE"
);
}
);
width = 128;
}
);
unicode = 0054;
},
{
glyphname = U;
layers = (
{
hints = (
{
horizontal = 1;
place = "{-5, 16}";
type = Stem;
},
{
horizontal = 1;
place = "{162, -20}";
target = down;
type = TopGhost;
},
{
place = "{13, 21}";
type = Stem;
},
{
place = "{96, 19}";
type = Stem;
}
);
layerId = "F2A7ED21-5BE1-4BFF-B4F1-F4609BDA8B83";
paths = (
{
closed = 1;
nodes = (
"13 34 OFFCURVE",
"17 18 OFFCURVE",
"26 9 CURVE SMOOTH",
"34 0 OFFCURVE",
"46 -5 OFFCURVE",
"63 -5 CURVE SMOOTH",
"100 -5 OFFCURVE",
"115 23 OFFCURVE",
"115 56 CURVE",
"115 56 OFFCURVE",
"115 162 OFFCURVE",
"115 162 CURVE",
"115 162 OFFCURVE",
"96 162 OFFCURVE",
"96 162 CURVE",
"96 162 OFFCURVE",
"96 64 OFFCURVE",
"96 64 CURVE",
"96 29 OFFCURVE",
"85 11 OFFCURVE",
"64 11 CURVE SMOOTH",
"55 11 OFFCURVE",
"47 14 OFFCURVE",
"42 20 CURVE SMOOTH",
"37 27 OFFCURVE",
"34 39 OFFCURVE",
"34 56 CURVE",
"34 56 OFFCURVE",
"34 162 OFFCURVE",
"34 162 CURVE",
"34 162 OFFCURVE",
"13 162 OFFCURVE",
"13 162 CURVE",
"13 162 OFFCURVE",
"13 58 OFFCURVE",
"13 58 CURVE"
);
}
);
width = 128;
}
);
unicode = 0055;
},
{
glyphname = Uacute;
layers = (
{
hints = (
{
horizontal = 1;
place = "{-5, 16}";
type = Stem;
},
{
horizontal = 1;
place = "{162, -20}";
target = down;
type = TopGhost;
},
{
horizontal = 1;
place = "{171, 34}";
type = Stem;
},
{
place = "{13, 21}";
type = Stem;
},
{
place = "{96, 19}";
type = Stem;
}
);
layerId = "F2A7ED21-5BE1-4BFF-B4F1-F4609BDA8B83";
paths = (
{
closed = 1;
nodes = (
"69 205 LINE",
"69 205 OFFCURVE",
"38 171 OFFCURVE",
"38 171 CURVE",
"38 171 OFFCURVE",
"56 171 OFFCURVE",
"56 171 CURVE",
"56 171 OFFCURVE",
"92 205 OFFCURVE",
"92 205 CURVE"
);
},
{
closed = 1;
nodes = (
"13 34 OFFCURVE",
"17 18 OFFCURVE",
"26 9 CURVE SMOOTH",
"34 0 OFFCURVE",
"46 -5 OFFCURVE",
"63 -5 CURVE SMOOTH",
"100 -5 OFFCURVE",
"115 23 OFFCURVE",
"115 56 CURVE",
"115 56 OFFCURVE",
"115 162 OFFCURVE",
"115 162 CURVE",
"115 162 OFFCURVE",
"96 162 OFFCURVE",
"96 162 CURVE",
"96 162 OFFCURVE",
"96 64 OFFCURVE",
"96 64 CURVE",
"96 29 OFFCURVE",
"85 11 OFFCURVE",
"64 11 CURVE SMOOTH",
"55 11 OFFCURVE",
"47 14 OFFCURVE",
"42 20 CURVE SMOOTH",
"37 27 OFFCURVE",
"34 39 OFFCURVE",
"34 56 CURVE",
"34 56 OFFCURVE",
"34 162 OFFCURVE",
"34 162 CURVE",
"34 162 OFFCURVE",
"13 162 OFFCURVE",
"13 162 CURVE",
"13 162 OFFCURVE",
"13 58 OFFCURVE",
"13 58 CURVE"
);
}
);
width = 125;
}
);
unicode = 00DA;
},
{
glyphname = V;
layers = (
{
hints = (
{
horizontal = 1;
place = "{0, 21}";
target = up;
type = BottomGhost;
},
{
horizontal = 1;
place = "{162, -20}";
target = down;
type = TopGhost;
},
{
place = "{3, 122}";
type = Stem;
}
);
layerId = "F2A7ED21-5BE1-4BFF-B4F1-F4609BDA8B83";
paths = (
{
closed = 1;
nodes = (
"54 0 OFFCURVE",
"75 0 OFFCURVE",
"75 0 CURVE",
"75 0 OFFCURVE",
"125 162 OFFCURVE",
"125 162 CURVE",
"104 162 LINE",
"104 162 OFFCURVE",
"69 49 OFFCURVE",
"69 49 CURVE",
"69 49 OFFCURVE",
"65 32 OFFCURVE",
"65 32 CURVE",
"65 32 OFFCURVE",
"61 49 OFFCURVE",
"61 49 CURVE",
"61 49 OFFCURVE",
"26 162 OFFCURVE",
"26 162 CURVE",
"26 162 OFFCURVE",
"3 162 OFFCURVE",
"3 162 CURVE",
"3 162 OFFCURVE",
"54 0 OFFCURVE",
"54 0 CURVE"
);
}
);
width = 128;
}
);
unicode = 0056;
},
{
glyphname = W;
layers = (
{
hints = (
{
place = "{3, 122}";
type = Stem;
},
{
place = "{36, 58}";
type = Stem;
},
{
horizontal = 1;
place = "{0, 21}";
target = up;
type = BottomGhost;
},
{
horizontal = 1;
place = "{110, 52}";
type = Stem;
},
{
horizontal = 1;
place = "{126, 36}";
type = Stem;
},
{
horizontal = 1;
place = "{162, -20}";
target = down;
type = TopGhost;
}
);
layerId = "F2A7ED21-5BE1-4BFF-B4F1-F4609BDA8B83";
paths = (
{
closed = 1;
nodes = (
"22 0 OFFCURVE",
"41 0 OFFCURVE",
"41 0 CURVE",
"41 0 OFFCURVE",
"60 110 OFFCURVE",
"60 110 CURVE",
"62 126 LINE",
"63 126 LINE",
"63 126 OFFCURVE",
"65 110 OFFCURVE",
"65 110 CURVE",
"65 110 OFFCURVE",
"86 0 OFFCURVE",
"86 0 CURVE",
"86 0 OFFCURVE",
"106 0 OFFCURVE",
"106 0 CURVE",
"106 0 OFFCURVE",
"125 162 OFFCURVE",
"125 162 CURVE",
"125 162 OFFCURVE",
"109 162 OFFCURVE",
"109 162 CURVE",
"109 162 OFFCURVE",
"96 59 OFFCURVE",
"96 59 CURVE",
"96 59 OFFCURVE",
"95 44 OFFCURVE",
"95 44 CURVE",
"95 44 OFFCURVE",
"93 59 OFFCURVE",
"93 59 CURVE",
"93 59 OFFCURVE",
"73 162 OFFCURVE",
"73 162 CURVE",
"73 162 OFFCURVE",
"54 162 OFFCURVE",
"54 162 CURVE",
"54 162 OFFCURVE",
"37 63 OFFCURVE",
"37 63 CURVE",
"37 63 OFFCURVE",
"35 47 OFFCURVE",
"35 47 CURVE",
"35 47 OFFCURVE",
"22 162 OFFCURVE",
"22 162 CURVE",
"22 162 OFFCURVE",
"3 162 OFFCURVE",
"3 162 CURVE",
"3 162 OFFCURVE",
"22 0 OFFCURVE",
"22 0 CURVE"
);
}
);
width = 128;
}
);
unicode = 0057;
},
{
glyphname = X;
layers = (
{
hints = (
{
horizontal = 1;
place = "{0, 21}";
target = up;
type = BottomGhost;
},
{
horizontal = 1;
place = "{162, -20}";
target = down;
type = TopGhost;
},
{
place = "{5, 118}";
type = Stem;
}
);
layerId = "F2A7ED21-5BE1-4BFF-B4F1-F4609BDA8B83";
paths = (
{
closed = 1;
nodes = (
"27 0 OFFCURVE",
"63 64 OFFCURVE",
"63 64 CURVE",
"99 0 LINE",
"99 0 OFFCURVE",
"123 0 OFFCURVE",
"123 0 CURVE",
"123 0 OFFCURVE",
"75 86 OFFCURVE",
"75 86 CURVE",
"75 86 OFFCURVE",
"118 162 OFFCURVE",
"118 162 CURVE",
"118 162 OFFCURVE",
"96 162 OFFCURVE",
"96 162 CURVE",
"96 162 OFFCURVE",
"64 106 OFFCURVE",
"64 106 CURVE",
"64 106 OFFCURVE",
"33 162 OFFCURVE",
"33 162 CURVE",
"33 162 OFFCURVE",
"10 162 OFFCURVE",
"10 162 CURVE",
"10 162 OFFCURVE",
"52 84 OFFCURVE",
"52 84 CURVE",
"52 84 OFFCURVE",
"5 0 OFFCURVE",
"5 0 CURVE",
"5 0 OFFCURVE",
"27 0 OFFCURVE",
"27 0 CURVE"
);
}
);
width = 128;
}
);
unicode = 0058;
},
{
glyphname = Y;
layers = (
{
hints = (
{
horizontal = 1;
place = "{0, 21}";
target = up;
type = BottomGhost;
},
{
horizontal = 1;
place = "{162, -20}";
target = down;
type = TopGhost;
},
{
place = "{54, 21}";
type = Stem;
}
);
layerId = "F2A7ED21-5BE1-4BFF-B4F1-F4609BDA8B83";
paths = (
{
closed = 1;
nodes = (
"54 0 OFFCURVE",
"75 0 OFFCURVE",
"75 0 CURVE",
"75 0 OFFCURVE",
"75 75 OFFCURVE",
"75 75 CURVE",
"123 162 LINE",
"123 162 OFFCURVE",
"101 162 OFFCURVE",
"101 162 CURVE",
"101 162 OFFCURVE",
"65 97 OFFCURVE",
"65 97 CURVE",
"65 97 OFFCURVE",
"29 162 OFFCURVE",
"29 162 CURVE",
"29 162 OFFCURVE",
"5 162 OFFCURVE",
"5 162 CURVE",
"5 162 OFFCURVE",
"54 75 OFFCURVE",
"54 75 CURVE",
"54 75 OFFCURVE",
"54 0 OFFCURVE",
"54 0 CURVE"
);
}
);
width = 128;
}
);
unicode = 0059;
},
{
glyphname = Z;
layers = (
{
hints = (
{
horizontal = 1;
place = "{0, 18}";
type = Stem;
},
{
horizontal = 1;
place = "{145, 17}";
type = Stem;
},
{
place = "{13, 24}";
type = Stem;
},
{
place = "{89, 25}";
type = Stem;
}
);
layerId = "F2A7ED21-5BE1-4BFF-B4F1-F4609BDA8B83";
paths = (
{
closed = 1;
nodes = (
"114 162 OFFCURVE",
"15 162 OFFCURVE",
"15 162 CURVE",
"15 162 OFFCURVE",
"15 145 OFFCURVE",
"15 145 CURVE",
"15 145 OFFCURVE",
"89 145 OFFCURVE",
"89 145 CURVE",
"89 145 OFFCURVE",
"13 18 OFFCURVE",
"13 18 CURVE",
"13 18 OFFCURVE",
"13 0 OFFCURVE",
"13 0 CURVE",
"13 0 OFFCURVE",
"115 0 OFFCURVE",
"115 0 CURVE",
"115 0 OFFCURVE",
"115 18 OFFCURVE",
"115 18 CURVE",
"37 18 LINE",
"37 18 OFFCURVE",
"114 145 OFFCURVE",
"114 145 CURVE",
"114 145 OFFCURVE",
"114 162 OFFCURVE",
"114 162 CURVE"
);
}
);
width = 128;
}
);
unicode = 005A;
},
{
glyphname = a;
layers = (
{
hints = (
{
place = "{11, 21}";
type = Stem;
},
{
place = "{93, 19}";
type = Stem;
},
{
horizontal = 1;
place = "{-3, 18}";
type = Stem;
},
{
horizontal = 1;
place = "{0, 21}";
target = up;
type = BottomGhost;
},
{
horizontal = 1;
place = "{102, 16}";
type = Stem;
}
);
layerId = "F2A7ED21-5BE1-4BFF-B4F1-F4609BDA8B83";
paths = (
{
closed = 1;
nodes = (
"94 14 OFFCURVE",
"95 5 OFFCURVE",
"96 0 CURVE",
"96 0 OFFCURVE",
"116 0 OFFCURVE",
"116 0 CURVE",
"113 5 OFFCURVE",
"112 17 OFFCURVE",
"112 34 CURVE",
"112 34 OFFCURVE",
"112 116 OFFCURVE",
"112 116 CURVE",
"112 116 OFFCURVE",
"93 116 OFFCURVE",
"93 116 CURVE",
"93 116 OFFCURVE",
"71 118 OFFCURVE",
"71 118 CURVE",
"31 118 OFFCURVE",
"11 85 OFFCURVE",
"11 48 CURVE SMOOTH",
"11 25 OFFCURVE",
"21 -3 OFFCURVE",
"48 -3 CURVE SMOOTH",
"66 -3 OFFCURVE",
"81 7 OFFCURVE",
"93 26 CURVE"
);
},
{
closed = 1;
nodes = (
"80 26 OFFCURVE",
"67 15 OFFCURVE",
"53 15 CURVE SMOOTH",
"48 15 OFFCURVE",
"43 18 OFFCURVE",
"39 24 CURVE",
"34 29 OFFCURVE",
"32 37 OFFCURVE",
"32 50 CURVE SMOOTH",
"32 67 OFFCURVE",
"36 80 OFFCURVE",
"44 89 CURVE SMOOTH",
"51 98 OFFCURVE",
"61 102 OFFCURVE",
"73 102 CURVE SMOOTH",
"79 102 OFFCURVE",
"86 101 OFFCURVE",
"93 99 CURVE",
"93 99 OFFCURVE",
"93 49 OFFCURVE",
"93 49 CURVE"
);
}
);
width = 128;
}
);
unicode = 0061;
},
{
glyphname = aacute;
layers = (
{
hints = (
{
place = "{31, 21}";
type = Stem;
},
{
place = "{113, 19}";
type = Stem;
},
{
horizontal = 1;
place = "{-3, 18}";
type = Stem;
},
{
horizontal = 1;
place = "{0, 21}";
target = up;
type = BottomGhost;
},
{
horizontal = 1;
place = "{102, 16}";
type = Stem;
},
{
horizontal = 1;
place = "{134, 34}";
type = Stem;
}
);
layerId = "F2A7ED21-5BE1-4BFF-B4F1-F4609BDA8B83";
paths = (
{
closed = 1;
nodes = (
"84 168 LINE",
"84 168 OFFCURVE",
"53 134 OFFCURVE",
"53 134 CURVE",
"53 134 OFFCURVE",
"71 134 OFFCURVE",
"71 134 CURVE",
"71 134 OFFCURVE",
"107 168 OFFCURVE",
"107 168 CURVE"
);
},
{
closed = 1;
nodes = (
"114 14 OFFCURVE",
"115 5 OFFCURVE",
"116 0 CURVE",
"116 0 OFFCURVE",
"136 0 OFFCURVE",
"136 0 CURVE",
"133 5 OFFCURVE",
"132 17 OFFCURVE",
"132 34 CURVE",
"132 34 OFFCURVE",
"132 116 OFFCURVE",
"132 116 CURVE",
"132 116 OFFCURVE",
"113 116 OFFCURVE",
"113 116 CURVE",
"113 116 OFFCURVE",
"91 118 OFFCURVE",
"91 118 CURVE",
"51 118 OFFCURVE",
"31 85 OFFCURVE",
"31 48 CURVE SMOOTH",
"31 25 OFFCURVE",
"41 -3 OFFCURVE",
"68 -3 CURVE SMOOTH",
"86 -3 OFFCURVE",
"101 7 OFFCURVE",
"113 26 CURVE"
);
},
{
closed = 1;
nodes = (
"100 26 OFFCURVE",
"87 15 OFFCURVE",
"73 15 CURVE SMOOTH",
"68 15 OFFCURVE",
"63 18 OFFCURVE",
"59 24 CURVE",
"54 29 OFFCURVE",
"52 37 OFFCURVE",
"52 50 CURVE SMOOTH",
"52 67 OFFCURVE",
"56 80 OFFCURVE",
"64 89 CURVE SMOOTH",
"71 98 OFFCURVE",
"81 102 OFFCURVE",
"93 102 CURVE SMOOTH",
"99 102 OFFCURVE",
"106 101 OFFCURVE",
"113 99 CURVE",
"113 99 OFFCURVE",
"113 49 OFFCURVE",
"113 49 CURVE"
);
}
);
width = 156;
}
);
unicode = 00E1;
},
{
glyphname = agrave;
layers = (
{
hints = (
{
place = "{31, 21}";
type = Stem;
},
{
place = "{113, 19}";
type = Stem;
},
{
horizontal = 1;
place = "{-3, 18}";
type = Stem;
},
{
horizontal = 1;
place = "{0, 21}";
target = up;
type = BottomGhost;
},
{
horizontal = 1;
place = "{102, 16}";
type = Stem;
},
{
horizontal = 1;
place = "{134, 34}";
type = Stem;
}
);
layerId = "F2A7ED21-5BE1-4BFF-B4F1-F4609BDA8B83";
paths = (
{
closed = 1;
nodes = (
"53 168 LINE",
"53 168 OFFCURVE",
"89 134 OFFCURVE",
"89 134 CURVE",
"89 134 OFFCURVE",
"107 134 OFFCURVE",
"107 134 CURVE",
"107 134 OFFCURVE",
"76 168 OFFCURVE",
"76 168 CURVE"
);
},
{
closed = 1;
nodes = (
"114 14 OFFCURVE",
"115 5 OFFCURVE",
"116 0 CURVE",
"116 0 OFFCURVE",
"136 0 OFFCURVE",
"136 0 CURVE",
"133 5 OFFCURVE",
"132 17 OFFCURVE",
"132 34 CURVE",
"132 34 OFFCURVE",
"132 116 OFFCURVE",
"132 116 CURVE",
"132 116 OFFCURVE",
"113 116 OFFCURVE",
"113 116 CURVE",
"113 116 OFFCURVE",
"91 118 OFFCURVE",
"91 118 CURVE",
"51 118 OFFCURVE",
"31 85 OFFCURVE",
"31 48 CURVE SMOOTH",
"31 25 OFFCURVE",
"41 -3 OFFCURVE",
"68 -3 CURVE SMOOTH",
"86 -3 OFFCURVE",
"101 7 OFFCURVE",
"113 26 CURVE"
);
},
{
closed = 1;
nodes = (
"100 26 OFFCURVE",
"87 15 OFFCURVE",
"73 15 CURVE SMOOTH",
"68 15 OFFCURVE",
"63 18 OFFCURVE",
"59 24 CURVE",
"54 29 OFFCURVE",
"52 37 OFFCURVE",
"52 50 CURVE SMOOTH",
"52 67 OFFCURVE",
"56 80 OFFCURVE",
"64 89 CURVE SMOOTH",
"71 98 OFFCURVE",
"81 102 OFFCURVE",
"93 102 CURVE SMOOTH",
"99 102 OFFCURVE",
"106 101 OFFCURVE",
"113 99 CURVE",
"113 99 OFFCURVE",
"113 49 OFFCURVE",
"113 49 CURVE"
);
}
);
width = 156;
}
);
unicode = 00E0;
},
{
glyphname = b;
layers = (
{
hints = (
{
horizontal = 1;
place = "{0, 15}";
type = Stem;
},
{
horizontal = 1;
place = "{101, 19}";
type = Stem;
},
{
horizontal = 1;
place = "{168, -20}";
target = down;
type = TopGhost;
},
{
place = "{15, 19}";
type = Stem;
},
{
place = "{95, 21}";
type = Stem;
}
);
layerId = "F2A7ED21-5BE1-4BFF-B4F1-F4609BDA8B83";
paths = (
{
closed = 1;
nodes = (
"42 0 OFFCURVE",
"47 0 OFFCURVE",
"49 -1 CURVE SMOOTH",
"51 -2 OFFCURVE",
"53 -2 OFFCURVE",
"56 -2 CURVE SMOOTH",
"96 -2 OFFCURVE",
"116 33 OFFCURVE",
"116 69 CURVE SMOOTH",
"116 85 OFFCURVE",
"112 98 OFFCURVE",
"105 107 CURVE SMOOTH",
"97 116 OFFCURVE",
"88 120 OFFCURVE",
"78 120 CURVE SMOOTH",
"61 120 OFFCURVE",
"46 110 OFFCURVE",
"34 90 CURVE",
"34 90 OFFCURVE",
"34 168 OFFCURVE",
"34 168 CURVE",
"34 168 OFFCURVE",
"15 168 OFFCURVE",
"15 168 CURVE",
"15 168 OFFCURVE",
"15 0 OFFCURVE",
"15 0 CURVE",
"15 0 OFFCURVE",
"34 0 OFFCURVE",
"34 0 CURVE"
);
},
{
closed = 1;
nodes = (
"34 67 LINE",
"47 90 OFFCURVE",
"60 101 OFFCURVE",
"74 101 CURVE SMOOTH",
"79 101 OFFCURVE",
"84 98 OFFCURVE",
"89 93 CURVE",
"93 87 OFFCURVE",
"95 78 OFFCURVE",
"95 66 CURVE SMOOTH",
"95 41 OFFCURVE",
"81 15 OFFCURVE",
"53 15 CURVE",
"53 15 OFFCURVE",
"34 17 OFFCURVE",
"34 17 CURVE"
);
}
);
width = 128;
}
);
unicode = 0062;
},
{
glyphname = c;
layers = (
{
hints = (
{
horizontal = 1;
place = "{-3, 18}";
type = Stem;
},
{
horizontal = 1;
place = "{103, 17}";
type = Stem;
},
{
place = "{17, 21}";
type = Stem;
}
);
layerId = "F2A7ED21-5BE1-4BFF-B4F1-F4609BDA8B83";
paths = (
{
closed = 1;
nodes = (
"88 -3 OFFCURVE",
"101 -1 OFFCURVE",
"114 3 CURVE",
"114 3 OFFCURVE",
"114 22 OFFCURVE",
"114 22 CURVE",
"103 17 OFFCURVE",
"91 15 OFFCURVE",
"79 15 CURVE SMOOTH",
"53 15 OFFCURVE",
"38 33 OFFCURVE",
"38 59 CURVE SMOOTH",
"38 71 OFFCURVE",
"42 82 OFFCURVE",
"49 91 CURVE SMOOTH",
"56 99 OFFCURVE",
"66 103 OFFCURVE",
"78 103 CURVE SMOOTH",
"89 103 OFFCURVE",
"101 100 OFFCURVE",
"114 94 CURVE",
"114 94 OFFCURVE",
"114 113 OFFCURVE",
"114 113 CURVE",
"105 118 OFFCURVE",
"92 120 OFFCURVE",
"76 120 CURVE SMOOTH",
"41 120 OFFCURVE",
"17 92 OFFCURVE",
"17 58 CURVE SMOOTH",
"17 24 OFFCURVE",
"43 -3 OFFCURVE",
"77 -3 CURVE SMOOTH"
);
}
);
width = 130;
}
);
unicode = 0063;
},
{
glyphname = d;
layers = (
{
hints = (
{
place = "{12, 21}";
type = Stem;
},
{
place = "{94, 19}";
type = Stem;
},
{
horizontal = 1;
place = "{-3, 18}";
type = Stem;
},
{
horizontal = 1;
place = "{0, 21}";
target = up;
type = BottomGhost;
},
{
horizontal = 1;
place = "{102, 16}";
type = Stem;
},
{
horizontal = 1;
place = "{168, -20}";
target = down;
type = TopGhost;
}
);
layerId = "F2A7ED21-5BE1-4BFF-B4F1-F4609BDA8B83";
paths = (
{
closed = 1;
nodes = (
"12 31 OFFCURVE",
"16 19 OFFCURVE",
"24 10 CURVE SMOOTH",
"31 1 OFFCURVE",
"39 -3 OFFCURVE",
"50 -3 CURVE SMOOTH",
"67 -3 OFFCURVE",
"82 7 OFFCURVE",
"94 26 CURVE",
"94 26 OFFCURVE",
"94 0 OFFCURVE",
"94 0 CURVE",
"94 0 OFFCURVE",
"113 0 OFFCURVE",
"113 0 CURVE",
"113 0 OFFCURVE",
"113 168 OFFCURVE",
"113 168 CURVE",
"113 168 OFFCURVE",
"94 168 OFFCURVE",
"94 168 CURVE",
"94 168 OFFCURVE",
"94 116 OFFCURVE",
"94 116 CURVE",
"94 116 OFFCURVE",
"72 118 OFFCURVE",
"72 118 CURVE",
"32 118 OFFCURVE",
"12 85 OFFCURVE",
"12 48 CURVE SMOOTH"
);
},
{
closed = 1;
nodes = (
"33 76 OFFCURVE",
"46 102 OFFCURVE",
"75 102 CURVE SMOOTH",
"81 102 OFFCURVE",
"87 101 OFFCURVE",
"94 99 CURVE",
"94 99 OFFCURVE",
"94 49 OFFCURVE",
"94 49 CURVE",
"81 26 OFFCURVE",
"68 15 OFFCURVE",
"54 15 CURVE SMOOTH",
"49 15 OFFCURVE",
"44 18 OFFCURVE",
"40 24 CURVE",
"35 29 OFFCURVE",
"33 37 OFFCURVE",
"33 50 CURVE SMOOTH"
);
}
);
width = 128;
}
);
unicode = 0064;
},
{
glyphname = e;
layers = (
{
anchors = (
{
name = bottom;
position = "{69, -3}";
},
{
name = right;
position = "{115, 59}";
},
{
name = top;
position = "{65, 120}";
}
);
hints = (
{
horizontal = 1;
place = "{-3, 16}";
type = Stem;
},
{
horizontal = 1;
place = "{55, 14}";
type = Stem;
},
{
horizontal = 1;
place = "{103, 17}";
type = Stem;
},
{
place = "{14, 20}";
type = Stem;
},
{
place = "{94, 21}";
type = Stem;
}
);
layerId = "F2A7ED21-5BE1-4BFF-B4F1-F4609BDA8B83";
paths = (
{
closed = 1;
nodes = (
"98 17 OFFCURVE",
"84 13 OFFCURVE",
"71 13 CURVE SMOOTH",
"60 13 OFFCURVE",
"52 17 OFFCURVE",
"45 25 CURVE SMOOTH",
"38 32 OFFCURVE",
"34 42 OFFCURVE",
"34 55 CURVE",
"34 55 OFFCURVE",
"115 55 OFFCURVE",
"115 55 CURVE",
"115 55 OFFCURVE",
"115 59 OFFCURVE",
"115 59 CURVE",
"115 81 OFFCURVE",
"111 96 OFFCURVE",
"102 105 CURVE SMOOTH",
"93 115 OFFCURVE",
"82 120 OFFCURVE",
"69 120 CURVE SMOOTH",
"34 120 OFFCURVE",
"14 91 OFFCURVE",
"14 58 CURVE SMOOTH",
"14 26 OFFCURVE",
"35 -3 OFFCURVE",
"69 -3 CURVE SMOOTH",
"80 -3 OFFCURVE",
"94 1 OFFCURVE",
"113 8 CURVE",
"113 8 OFFCURVE",
"113 25 OFFCURVE",
"113 25 CURVE"
);
},
{
closed = 1;
nodes = (
"38 81 OFFCURVE",
"42 90 OFFCURVE",
"48 95 CURVE SMOOTH",
"55 100 OFFCURVE",
"62 103 OFFCURVE",
"68 103 CURVE SMOOTH",
"87 103 OFFCURVE",
"94 89 OFFCURVE",
"94 72 CURVE",
"94 72 OFFCURVE",
"94 69 OFFCURVE",
"94 69 CURVE",
"94 69 OFFCURVE",
"36 69 OFFCURVE",
"36 69 CURVE"
);
}
);
width = 128;
}
);
unicode = 0065;
},
{
glyphname = eacute;
layers = (
{
hints = (
{
horizontal = 1;
place = "{-3, 16}";
type = Stem;
},
{
horizontal = 1;
place = "{55, 14}";
type = Stem;
},
{
horizontal = 1;
place = "{103, 17}";
type = Stem;
},
{
horizontal = 1;
place = "{134, 34}";
type = Stem;
},
{
place = "{14, 20}";
type = Stem;
},
{
place = "{94, 21}";
type = Stem;
}
);
layerId = "F2A7ED21-5BE1-4BFF-B4F1-F4609BDA8B83";
paths = (
{
closed = 1;
nodes = (
"64 168 LINE",
"64 168 OFFCURVE",
"33 134 OFFCURVE",
"33 134 CURVE",
"33 134 OFFCURVE",
"51 134 OFFCURVE",
"51 134 CURVE",
"51 134 OFFCURVE",
"87 168 OFFCURVE",
"87 168 CURVE"
);
},
{
closed = 1;
nodes = (
"98 17 OFFCURVE",
"84 13 OFFCURVE",
"71 13 CURVE SMOOTH",
"60 13 OFFCURVE",
"52 17 OFFCURVE",
"45 25 CURVE SMOOTH",
"38 32 OFFCURVE",
"34 42 OFFCURVE",
"34 55 CURVE",
"34 55 OFFCURVE",
"115 55 OFFCURVE",
"115 55 CURVE",
"115 55 OFFCURVE",
"115 59 OFFCURVE",
"115 59 CURVE",
"115 81 OFFCURVE",
"111 96 OFFCURVE",
"102 105 CURVE SMOOTH",
"93 115 OFFCURVE",
"82 120 OFFCURVE",
"69 120 CURVE SMOOTH",
"34 120 OFFCURVE",
"14 91 OFFCURVE",
"14 58 CURVE SMOOTH",
"14 26 OFFCURVE",
"35 -3 OFFCURVE",
"69 -3 CURVE SMOOTH",
"80 -3 OFFCURVE",
"94 1 OFFCURVE",
"113 8 CURVE",
"113 8 OFFCURVE",
"113 25 OFFCURVE",
"113 25 CURVE"
);
},
{
closed = 1;
nodes = (
"38 81 OFFCURVE",
"42 90 OFFCURVE",
"48 95 CURVE SMOOTH",
"55 100 OFFCURVE",
"62 103 OFFCURVE",
"68 103 CURVE SMOOTH",
"87 103 OFFCURVE",
"94 89 OFFCURVE",
"94 72 CURVE",
"94 72 OFFCURVE",
"94 69 OFFCURVE",
"94 69 CURVE",
"94 69 OFFCURVE",
"36 69 OFFCURVE",
"36 69 CURVE"
);
}
);
width = 130;
}
);
unicode = 00E9;
},
{
glyphname = egrave;
layers = (
{
hints = (
{
horizontal = 1;
place = "{-3, 16}";
type = Stem;
},
{
horizontal = 1;
place = "{55, 14}";
type = Stem;
},
{
horizontal = 1;
place = "{103, 17}";
type = Stem;
},
{
horizontal = 1;
place = "{134, 34}";
type = Stem;
},
{
place = "{34, 20}";
type = Stem;
},
{
place = "{114, 21}";
type = Stem;
}
);
layerId = "F2A7ED21-5BE1-4BFF-B4F1-F4609BDA8B83";
paths = (
{
closed = 1;
nodes = (
"53 168 LINE",
"53 168 OFFCURVE",
"89 134 OFFCURVE",
"89 134 CURVE",
"89 134 OFFCURVE",
"107 134 OFFCURVE",
"107 134 CURVE",
"107 134 OFFCURVE",
"76 168 OFFCURVE",
"76 168 CURVE"
);
},
{
closed = 1;
nodes = (
"118 17 OFFCURVE",
"104 13 OFFCURVE",
"91 13 CURVE SMOOTH",
"80 13 OFFCURVE",
"72 17 OFFCURVE",
"65 25 CURVE SMOOTH",
"58 32 OFFCURVE",
"54 42 OFFCURVE",
"54 55 CURVE",
"54 55 OFFCURVE",
"135 55 OFFCURVE",
"135 55 CURVE",
"135 55 OFFCURVE",
"135 59 OFFCURVE",
"135 59 CURVE",
"135 81 OFFCURVE",
"131 96 OFFCURVE",
"122 105 CURVE SMOOTH",
"113 115 OFFCURVE",
"102 120 OFFCURVE",
"89 120 CURVE SMOOTH",
"54 120 OFFCURVE",
"34 91 OFFCURVE",
"34 58 CURVE SMOOTH",
"34 26 OFFCURVE",
"55 -3 OFFCURVE",
"89 -3 CURVE SMOOTH",
"100 -3 OFFCURVE",
"114 1 OFFCURVE",
"133 8 CURVE",
"133 8 OFFCURVE",
"133 25 OFFCURVE",
"133 25 CURVE"
);
},
{
closed = 1;
nodes = (
"58 81 OFFCURVE",
"62 90 OFFCURVE",
"68 95 CURVE SMOOTH",
"75 100 OFFCURVE",
"82 103 OFFCURVE",
"88 103 CURVE SMOOTH",
"107 103 OFFCURVE",
"114 89 OFFCURVE",
"114 72 CURVE",
"114 72 OFFCURVE",
"114 69 OFFCURVE",
"114 69 CURVE",
"114 69 OFFCURVE",
"56 69 OFFCURVE",
"56 69 CURVE"
);
}
);
width = 155;
}
);
unicode = 00E8;
},
{
glyphname = f;
layers = (
{
hints = (
{
place = "{43, 20}";
type = Stem;
},
{
place = "{63, 46}";
type = Stem;
},
{
place = "{93, 28}";
type = Stem;
},
{
horizontal = 1;
place = "{0, 21}";
target = up;
type = BottomGhost;
},
{
horizontal = 1;
place = "{91, 16}";
type = Stem;
},
{
horizontal = 1;
place = "{155, 16}";
type = Stem;
}
);
layerId = "F2A7ED21-5BE1-4BFF-B4F1-F4609BDA8B83";
paths = (
{
closed = 1;
nodes = (
"17 91 OFFCURVE",
"43 91 OFFCURVE",
"43 91 CURVE",
"43 91 OFFCURVE",
"43 0 OFFCURVE",
"43 0 CURVE",
"43 0 OFFCURVE",
"63 0 OFFCURVE",
"63 0 CURVE",
"63 0 OFFCURVE",
"63 91 OFFCURVE",
"63 91 CURVE",
"109 91 LINE",
"109 91 OFFCURVE",
"109 107 OFFCURVE",
"109 107 CURVE",
"109 107 OFFCURVE",
"63 107 OFFCURVE",
"63 107 CURVE",
"63 107 OFFCURVE",
"63 114 OFFCURVE",
"63 114 CURVE",
"63 128 OFFCURVE",
"66 139 OFFCURVE",
"71 146 CURVE SMOOTH",
"76 152 OFFCURVE",
"83 155 OFFCURVE",
"94 155 CURVE SMOOTH",
"97 155 OFFCURVE",
"106 153 OFFCURVE",
"121 150 CURVE",
"121 150 OFFCURVE",
"121 169 OFFCURVE",
"121 169 CURVE",
"121 169 OFFCURVE",
"93 171 OFFCURVE",
"93 171 CURVE",
"60 171 OFFCURVE",
"43 151 OFFCURVE",
"43 112 CURVE",
"43 112 OFFCURVE",
"43 107 OFFCURVE",
"43 107 CURVE",
"43 107 OFFCURVE",
"17 107 OFFCURVE",
"17 107 CURVE",
"17 107 OFFCURVE",
"17 91 OFFCURVE",
"17 91 CURVE"
);
}
);
width = 128;
}
);
unicode = 0066;
},
{
glyphname = g;
layers = (
{
hints = (
{
horizontal = 1;
place = "{-48, 16}";
type = Stem;
},
{
horizontal = 1;
place = "{-3, 18}";
type = Stem;
},
{
horizontal = 1;
place = "{102, 16}";
type = Stem;
},
{
place = "{12, 21}";
type = Stem;
},
{
place = "{94, 19}";
type = Stem;
}
);
layerId = "F2A7ED21-5BE1-4BFF-B4F1-F4609BDA8B83";
paths = (
{
closed = 1;
nodes = (
"25 -45 OFFCURVE",
"39 -48 OFFCURVE",
"55 -48 CURVE SMOOTH",
"84 -48 OFFCURVE",
"102 -39 OFFCURVE",
"108 -20 CURVE SMOOTH",
"111 -8 OFFCURVE",
"113 10 OFFCURVE",
"113 34 CURVE",
"113 34 OFFCURVE",
"113 116 OFFCURVE",
"113 116 CURVE",
"113 116 OFFCURVE",
"94 116 OFFCURVE",
"94 116 CURVE",
"94 116 OFFCURVE",
"72 118 OFFCURVE",
"72 118 CURVE",
"32 118 OFFCURVE",
"12 85 OFFCURVE",
"12 48 CURVE SMOOTH",
"12 31 OFFCURVE",
"16 19 OFFCURVE",
"24 10 CURVE SMOOTH",
"31 1 OFFCURVE",
"39 -3 OFFCURVE",
"50 -3 CURVE SMOOTH",
"67 -3 OFFCURVE",
"82 7 OFFCURVE",
"94 26 CURVE",
"94 26 OFFCURVE",
"94 10 OFFCURVE",
"94 10 CURVE",
"94 -18 OFFCURVE",
"81 -32 OFFCURVE",
"56 -32 CURVE SMOOTH",
"42 -32 OFFCURVE",
"27 -27 OFFCURVE",
"12 -18 CURVE",
"12 -18 OFFCURVE",
"12 -38 OFFCURVE",
"12 -38 CURVE"
);
},
{
closed = 1;
nodes = (
"33 76 OFFCURVE",
"46 102 OFFCURVE",
"75 102 CURVE SMOOTH",
"81 102 OFFCURVE",
"87 101 OFFCURVE",
"94 99 CURVE",
"94 99 OFFCURVE",
"94 49 OFFCURVE",
"94 49 CURVE",
"81 26 OFFCURVE",
"68 15 OFFCURVE",
"54 15 CURVE SMOOTH",
"49 15 OFFCURVE",
"44 18 OFFCURVE",
"40 24 CURVE",
"35 29 OFFCURVE",
"33 37 OFFCURVE",
"33 50 CURVE SMOOTH"
);
}
);
width = 128;
}
);
unicode = 0067;
},
{
glyphname = h;
layers = (
{
hints = (
{
horizontal = 1;
place = "{0, 21}";
target = up;
type = BottomGhost;
},
{
horizontal = 1;
place = "{102, 18}";
type = Stem;
},
{
horizontal = 1;
place = "{168, -20}";
target = down;
type = TopGhost;
},
{
place = "{16, 20}";
type = Stem;
},
{
place = "{94, 19}";
type = Stem;
}
);
layerId = "F2A7ED21-5BE1-4BFF-B4F1-F4609BDA8B83";
paths = (
{
closed = 1;
nodes = (
"16 0 OFFCURVE",
"36 0 OFFCURVE",
"36 0 CURVE",
"36 0 OFFCURVE",
"36 68 OFFCURVE",
"36 68 CURVE",
"47 91 OFFCURVE",
"60 102 OFFCURVE",
"77 102 CURVE SMOOTH",
"82 102 OFFCURVE",
"86 100 OFFCURVE",
"89 96 CURVE SMOOTH",
"92 91 OFFCURVE",
"94 81 OFFCURVE",
"94 67 CURVE",
"94 67 OFFCURVE",
"94 0 OFFCURVE",
"94 0 CURVE",
"94 0 OFFCURVE",
"113 0 OFFCURVE",
"113 0 CURVE",
"113 0 OFFCURVE",
"113 65 OFFCURVE",
"113 65 CURVE",
"113 102 OFFCURVE",
"102 120 OFFCURVE",
"79 120 CURVE SMOOTH",
"62 120 OFFCURVE",
"47 110 OFFCURVE",
"36 91 CURVE",
"36 91 OFFCURVE",
"36 168 OFFCURVE",
"36 168 CURVE",
"36 168 OFFCURVE",
"16 168 OFFCURVE",
"16 168 CURVE",
"16 168 OFFCURVE",
"16 0 OFFCURVE",
"16 0 CURVE"
);
}
);
width = 128;
}
);
unicode = 0068;
},
{
glyphname = i;
layers = (
{
hints = (
{
place = "{46, 25}";
type = Stem;
},
{
place = "{49, 19}";
type = Stem;
},
{
horizontal = 1;
place = "{0, 16}";
type = Stem;
},
{
horizontal = 1;
place = "{100, 16}";
type = Stem;
},
{
horizontal = 1;
place = "{145, 26}";
type = Stem;
}
);
layerId = "F2A7ED21-5BE1-4BFF-B4F1-F4609BDA8B83";
paths = (
{
closed = 1;
nodes = (
"46 152 OFFCURVE",
"52 145 OFFCURVE",
"58 145 CURVE SMOOTH",
"65 145 OFFCURVE",
"71 151 OFFCURVE",
"71 158 CURVE SMOOTH",
"71 166 OFFCURVE",
"66 171 OFFCURVE",
"58 171 CURVE SMOOTH",
"50 171 OFFCURVE",
"46 165 OFFCURVE",
"46 158 CURVE SMOOTH"
);
},
{
closed = 1;
nodes = (
"16 116 OFFCURVE",
"16 100 OFFCURVE",
"16 100 CURVE",
"16 100 OFFCURVE",
"49 100 OFFCURVE",
"49 100 CURVE",
"49 100 OFFCURVE",
"49 0 OFFCURVE",
"49 0 CURVE",
"49 0 OFFCURVE",
"101 0 OFFCURVE",
"101 0 CURVE",
"101 0 OFFCURVE",
"101 16 OFFCURVE",
"101 16 CURVE",
"68 16 LINE",
"68 16 OFFCURVE",
"68 116 OFFCURVE",
"68 116 CURVE",
"68 116 OFFCURVE",
"16 116 OFFCURVE",
"16 116 CURVE"
);
}
);
width = 128;
}
);
unicode = 0069;
},
{
glyphname = j;
layers = (
{
hints = (
{
place = "{73, 26}";
type = Stem;
},
{
place = "{76, 20}";
type = Stem;
},
{
horizontal = 1;
place = "{-49, 17}";
type = Stem;
},
{
horizontal = 1;
place = "{100, 16}";
type = Stem;
},
{
horizontal = 1;
place = "{145, 26}";
type = Stem;
}
);
layerId = "F2A7ED21-5BE1-4BFF-B4F1-F4609BDA8B83";
paths = (
{
closed = 1;
nodes = (
"73 151 OFFCURVE",
"79 145 OFFCURVE",
"86 145 CURVE SMOOTH",
"89 145 OFFCURVE",
"92 147 OFFCURVE",
"95 150 CURVE SMOOTH",
"98 152 OFFCURVE",
"99 155 OFFCURVE",
"99 158 CURVE SMOOTH",
"99 162 OFFCURVE",
"98 165 OFFCURVE",
"95 167 CURVE SMOOTH",
"92 170 OFFCURVE",
"89 171 OFFCURVE",
"86 171 CURVE SMOOTH",
"78 171 OFFCURVE",
"73 166 OFFCURVE",
"73 158 CURVE SMOOTH"
);
},
{
closed = 1;
nodes = (
"27 -48 OFFCURVE",
"36 -49 OFFCURVE",
"45 -49 CURVE SMOOTH",
"86 -49 OFFCURVE",
"96 -23 OFFCURVE",
"96 14 CURVE",
"96 14 OFFCURVE",
"96 116 OFFCURVE",
"96 116 CURVE",
"96 116 OFFCURVE",
"27 116 OFFCURVE",
"27 116 CURVE",
"27 116 OFFCURVE",
"27 100 OFFCURVE",
"27 100 CURVE",
"27 100 OFFCURVE",
"76 100 OFFCURVE",
"76 100 CURVE",
"76 100 OFFCURVE",
"76 10 OFFCURVE",
"76 10 CURVE",
"76 -7 OFFCURVE",
"74 -18 OFFCURVE",
"69 -23 CURVE SMOOTH",
"64 -29 OFFCURVE",
"56 -32 OFFCURVE",
"45 -32 CURVE",
"44 -32 OFFCURVE",
"35 -30 OFFCURVE",
"18 -27 CURVE",
"18 -27 OFFCURVE",
"18 -46 OFFCURVE",
"18 -46 CURVE"
);
}
);
width = 128;
}
);
unicode = 006A;
},
{
glyphname = k;
layers = (
{
hints = (
{
horizontal = 1;
place = "{0, 21}";
target = up;
type = BottomGhost;
},
{
horizontal = 1;
place = "{116, -20}";
target = down;
type = TopGhost;
},
{
horizontal = 1;
place = "{168, -20}";
target = down;
type = TopGhost;
},
{
place = "{21, 20}";
type = Stem;
}
);
layerId = "F2A7ED21-5BE1-4BFF-B4F1-F4609BDA8B83";
paths = (
{
closed = 1;
nodes = (
"41 0 OFFCURVE",
"41 62 OFFCURVE",
"41 62 CURVE",
"97 0 LINE",
"97 0 OFFCURVE",
"124 0 OFFCURVE",
"124 0 CURVE",
"124 0 OFFCURVE",
"67 62 OFFCURVE",
"67 62 CURVE",
"67 62 OFFCURVE",
"122 116 OFFCURVE",
"122 116 CURVE",
"122 116 OFFCURVE",
"97 116 OFFCURVE",
"97 116 CURVE",
"97 116 OFFCURVE",
"41 62 OFFCURVE",
"41 62 CURVE",
"41 62 OFFCURVE",
"41 168 OFFCURVE",
"41 168 CURVE",
"41 168 OFFCURVE",
"21 168 OFFCURVE",
"21 168 CURVE",
"21 168 OFFCURVE",
"21 0 OFFCURVE",
"21 0 CURVE",
"21 0 OFFCURVE",
"41 0 OFFCURVE",
"41 0 CURVE"
);
}
);
width = 128;
}
);
unicode = 006B;
},
{
glyphname = l;
layers = (
{
hints = (
{
horizontal = 1;
place = "{0, 16}";
type = Stem;
},
{
horizontal = 1;
place = "{152, 16}";
type = Stem;
},
{
place = "{47, 20}";
type = Stem;
}
);
layerId = "F2A7ED21-5BE1-4BFF-B4F1-F4609BDA8B83";
paths = (
{
closed = 1;
nodes = (
"13 168 OFFCURVE",
"13 152 OFFCURVE",
"13 152 CURVE",
"13 152 OFFCURVE",
"47 152 OFFCURVE",
"47 152 CURVE",
"47 152 OFFCURVE",
"47 0 OFFCURVE",
"47 0 CURVE",
"47 0 OFFCURVE",
"103 0 OFFCURVE",
"103 0 CURVE",
"103 0 OFFCURVE",
"103 16 OFFCURVE",
"103 16 CURVE",
"67 16 LINE",
"67 16 OFFCURVE",
"67 168 OFFCURVE",
"67 168 CURVE",
"67 168 OFFCURVE",
"13 168 OFFCURVE",
"13 168 CURVE"
);
}
);
width = 128;
}
);
unicode = 006C;
},
{
glyphname = m;
layers = (
{
hints = (
{
place = "{7, 17}";
type = Stem;
},
{
place = "{56, 16}";
type = Stem;
},
{
place = "{104, 17}";
type = Stem;
},
{
horizontal = 1;
place = "{0, 21}";
target = up;
type = BottomGhost;
},
{
horizontal = 1;
place = "{100, 16}";
type = Stem;
},
{
horizontal = 1;
place = "{100, 20}";
type = Stem;
},
{
horizontal = 1;
place = "{116, -20}";
target = down;
type = TopGhost;
}
);
layerId = "F2A7ED21-5BE1-4BFF-B4F1-F4609BDA8B83";
paths = (
{
closed = 1;
nodes = (
"7 0 OFFCURVE",
"24 0 OFFCURVE",
"24 0 CURVE",
"24 0 OFFCURVE",
"24 67 OFFCURVE",
"24 67 CURVE",
"29 80 OFFCURVE",
"34 89 OFFCURVE",
"39 95 CURVE SMOOTH",
"42 98 OFFCURVE",
"45 100 OFFCURVE",
"47 100 CURVE",
"51 100 OFFCURVE",
"53 99 OFFCURVE",
"54 96 CURVE SMOOTH",
"55 87 OFFCURVE",
"56 81 OFFCURVE",
"56 79 CURVE",
"56 79 OFFCURVE",
"56 0 OFFCURVE",
"56 0 CURVE",
"56 0 OFFCURVE",
"72 0 OFFCURVE",
"72 0 CURVE",
"72 0 OFFCURVE",
"72 64 OFFCURVE",
"72 64 CURVE",
"77 79 OFFCURVE",
"82 89 OFFCURVE",
"87 94 CURVE SMOOTH",
"90 98 OFFCURVE",
"93 100 OFFCURVE",
"96 100 CURVE SMOOTH",
"100 100 OFFCURVE",
"102 98 OFFCURVE",
"103 94 CURVE",
"104 93 OFFCURVE",
"104 88 OFFCURVE",
"104 79 CURVE",
"104 79 OFFCURVE",
"104 0 OFFCURVE",
"104 0 CURVE",
"104 0 OFFCURVE",
"121 0 OFFCURVE",
"121 0 CURVE",
"121 0 OFFCURVE",
"121 88 OFFCURVE",
"121 88 CURVE",
"121 99 OFFCURVE",
"119 108 OFFCURVE",
"116 113 CURVE SMOOTH",
"112 118 OFFCURVE",
"107 120 OFFCURVE",
"102 120 CURVE SMOOTH",
"97 120 OFFCURVE",
"92 118 OFFCURVE",
"87 113 CURVE SMOOTH",
"80 107 OFFCURVE",
"75 99 OFFCURVE",
"72 88 CURVE",
"72 88 OFFCURVE",
"72 94 OFFCURVE",
"72 94 CURVE",
"72 102 OFFCURVE",
"70 109 OFFCURVE",
"67 114 CURVE",
"63 118 OFFCURVE",
"58 120 OFFCURVE",
"53 120 CURVE SMOOTH",
"43 120 OFFCURVE",
"33 110 OFFCURVE",
"24 90 CURVE",
"24 90 OFFCURVE",
"24 116 OFFCURVE",
"24 116 CURVE",
"24 116 OFFCURVE",
"7 116 OFFCURVE",
"7 116 CURVE",
"7 116 OFFCURVE",
"7 0 OFFCURVE",
"7 0 CURVE"
);
}
);
width = 128;
}
);
unicode = 006D;
},
{
glyphname = n;
layers = (
{
hints = (
{
place = "{16, 20}";
type = Stem;
},
{
place = "{94, 19}";
type = Stem;
},
{
horizontal = 1;
place = "{0, 21}";
target = up;
type = BottomGhost;
},
{
horizontal = 1;
place = "{91, 25}";
type = Stem;
},
{
horizontal = 1;
place = "{102, 18}";
type = Stem;
}
);
layerId = "F2A7ED21-5BE1-4BFF-B4F1-F4609BDA8B83";
paths = (
{
closed = 1;
nodes = (
"16 0 OFFCURVE",
"36 0 OFFCURVE",
"36 0 CURVE",
"36 0 OFFCURVE",
"36 68 OFFCURVE",
"36 68 CURVE",
"47 91 OFFCURVE",
"60 102 OFFCURVE",
"77 102 CURVE SMOOTH",
"82 102 OFFCURVE",
"86 100 OFFCURVE",
"89 96 CURVE SMOOTH",
"92 91 OFFCURVE",
"94 81 OFFCURVE",
"94 67 CURVE",
"94 67 OFFCURVE",
"94 0 OFFCURVE",
"94 0 CURVE",
"94 0 OFFCURVE",
"113 0 OFFCURVE",
"113 0 CURVE",
"113 0 OFFCURVE",
"113 65 OFFCURVE",
"113 65 CURVE",
"113 102 OFFCURVE",
"102 120 OFFCURVE",
"79 120 CURVE SMOOTH",
"62 120 OFFCURVE",
"47 110 OFFCURVE",
"36 91 CURVE",
"36 91 OFFCURVE",
"36 116 OFFCURVE",
"36 116 CURVE",
"36 116 OFFCURVE",
"16 116 OFFCURVE",
"16 116 CURVE",
"16 116 OFFCURVE",
"16 0 OFFCURVE",
"16 0 CURVE"
);
}
);
width = 128;
}
);
unicode = 006E;
},
{
glyphname = o;
layers = (
{
hints = (
{
horizontal = 1;
place = "{-3, 16}";
type = Stem;
},
{
horizontal = 1;
place = "{103, 17}";
type = Stem;
},
{
place = "{9, 21}";
type = Stem;
},
{
place = "{98, 21}";
type = Stem;
}
);
layerId = "F2A7ED21-5BE1-4BFF-B4F1-F4609BDA8B83";
paths = (
{
closed = 1;
nodes = (
"99 -3 OFFCURVE",
"119 25 OFFCURVE",
"119 58 CURVE SMOOTH",
"119 92 OFFCURVE",
"100 120 OFFCURVE",
"64 120 CURVE SMOOTH",
"29 120 OFFCURVE",
"9 91 OFFCURVE",
"9 58 CURVE SMOOTH",
"9 25 OFFCURVE",
"29 -3 OFFCURVE",
"64 -3 CURVE SMOOTH"
);
},
{
closed = 1;
nodes = (
"54 13 OFFCURVE",
"46 17 OFFCURVE",
"40 25 CURVE",
"33 32 OFFCURVE",
"30 43 OFFCURVE",
"30 58 CURVE SMOOTH",
"30 74 OFFCURVE",
"33 85 OFFCURVE",
"40 92 CURVE SMOOTH",
"46 99 OFFCURVE",
"54 103 OFFCURVE",
"64 103 CURVE SMOOTH",
"73 103 OFFCURVE",
"82 99 OFFCURVE",
"89 92 CURVE SMOOTH",
"95 85 OFFCURVE",
"98 73 OFFCURVE",
"98 58 CURVE SMOOTH",
"98 36 OFFCURVE",
"89 13 OFFCURVE",
"64 13 CURVE SMOOTH"
);
}
);
width = 128;
}
);
unicode = 006F;
},
{
glyphname = p;
layers = (
{
hints = (
{
place = "{15, 19}";
type = Stem;
},
{
place = "{95, 21}";
type = Stem;
},
{
horizontal = 1;
place = "{-45, 21}";
target = up;
type = BottomGhost;
},
{
horizontal = 1;
place = "{-2, 17}";
type = Stem;
},
{
horizontal = 1;
place = "{101, 19}";
type = Stem;
},
{
horizontal = 1;
place = "{116, -20}";
target = down;
type = TopGhost;
}
);
layerId = "F2A7ED21-5BE1-4BFF-B4F1-F4609BDA8B83";
paths = (
{
closed = 1;
nodes = (
"34 -45 OFFCURVE",
"34 0 OFFCURVE",
"34 0 CURVE",
"42 0 OFFCURVE",
"47 0 OFFCURVE",
"49 -1 CURVE SMOOTH",
"51 -2 OFFCURVE",
"53 -2 OFFCURVE",
"56 -2 CURVE SMOOTH",
"96 -2 OFFCURVE",
"116 33 OFFCURVE",
"116 69 CURVE SMOOTH",
"116 85 OFFCURVE",
"112 98 OFFCURVE",
"105 107 CURVE SMOOTH",
"97 116 OFFCURVE",
"88 120 OFFCURVE",
"78 120 CURVE SMOOTH",
"61 120 OFFCURVE",
"46 110 OFFCURVE",
"34 90 CURVE",
"34 90 OFFCURVE",
"34 116 OFFCURVE",
"34 116 CURVE",
"34 116 OFFCURVE",
"15 116 OFFCURVE",
"15 116 CURVE",
"15 116 OFFCURVE",
"15 -45 OFFCURVE",
"15 -45 CURVE",
"15 -45 OFFCURVE",
"34 -45 OFFCURVE",
"34 -45 CURVE"
);
},
{
closed = 1;
nodes = (
"34 67 LINE",
"47 90 OFFCURVE",
"60 101 OFFCURVE",
"74 101 CURVE SMOOTH",
"79 101 OFFCURVE",
"84 98 OFFCURVE",
"89 93 CURVE",
"93 87 OFFCURVE",
"95 78 OFFCURVE",
"95 66 CURVE SMOOTH",
"95 41 OFFCURVE",
"81 15 OFFCURVE",
"53 15 CURVE",
"53 15 OFFCURVE",
"34 17 OFFCURVE",
"34 17 CURVE"
);
}
);
width = 128;
}
);
unicode = 0070;
},
{
glyphname = q;
layers = (
{
hints = (
{
horizontal = 1;
place = "{-45, 21}";
target = up;
type = BottomGhost;
},
{
horizontal = 1;
place = "{-3, 18}";
type = Stem;
},
{
horizontal = 1;
place = "{102, 16}";
type = Stem;
},
{
place = "{12, 21}";
type = Stem;
},
{
place = "{94, 19}";
type = Stem;
}
);
layerId = "F2A7ED21-5BE1-4BFF-B4F1-F4609BDA8B83";
paths = (
{
closed = 1;
nodes = (
"12 31 OFFCURVE",
"16 19 OFFCURVE",
"24 10 CURVE SMOOTH",
"31 1 OFFCURVE",
"39 -3 OFFCURVE",
"50 -3 CURVE SMOOTH",
"67 -3 OFFCURVE",
"82 7 OFFCURVE",
"94 26 CURVE",
"94 26 OFFCURVE",
"94 -45 OFFCURVE",
"94 -45 CURVE",
"94 -45 OFFCURVE",
"113 -45 OFFCURVE",
"113 -45 CURVE",
"113 -45 OFFCURVE",
"113 116 OFFCURVE",
"113 116 CURVE",
"94 116 LINE",
"94 116 OFFCURVE",
"72 118 OFFCURVE",
"72 118 CURVE",
"32 118 OFFCURVE",
"12 85 OFFCURVE",
"12 48 CURVE SMOOTH"
);
},
{
closed = 1;
nodes = (
"33 76 OFFCURVE",
"46 102 OFFCURVE",
"75 102 CURVE SMOOTH",
"81 102 OFFCURVE",
"87 101 OFFCURVE",
"94 99 CURVE",
"94 99 OFFCURVE",
"94 49 OFFCURVE",
"94 49 CURVE",
"81 26 OFFCURVE",
"68 15 OFFCURVE",
"54 15 CURVE SMOOTH",
"49 15 OFFCURVE",
"44 18 OFFCURVE",
"40 24 CURVE",
"35 29 OFFCURVE",
"33 37 OFFCURVE",
"33 50 CURVE SMOOTH"
);
}
);
width = 128;
}
);
unicode = 0071;
},
{
glyphname = r;
layers = (
{
hints = (
{
place = "{26, 19}";
type = Stem;
},
{
place = "{95, 18}";
type = Stem;
},
{
horizontal = 1;
place = "{0, 21}";
target = up;
type = BottomGhost;
},
{
horizontal = 1;
place = "{91, 25}";
type = Stem;
},
{
horizontal = 1;
place = "{102, 18}";
type = Stem;
}
);
layerId = "F2A7ED21-5BE1-4BFF-B4F1-F4609BDA8B83";
paths = (
{
closed = 1;
nodes = (
"45 0 OFFCURVE",
"45 68 OFFCURVE",
"45 68 CURVE",
"58 91 OFFCURVE",
"72 102 OFFCURVE",
"87 102 CURVE SMOOTH",
"92 102 OFFCURVE",
"94 102 OFFCURVE",
"95 101 CURVE",
"95 101 OFFCURVE",
"95 74 OFFCURVE",
"95 74 CURVE",
"95 74 OFFCURVE",
"113 74 OFFCURVE",
"113 74 CURVE",
"113 74 OFFCURVE",
"113 116 OFFCURVE",
"113 116 CURVE",
"108 119 OFFCURVE",
"101 120 OFFCURVE",
"92 120 CURVE SMOOTH",
"73 120 OFFCURVE",
"57 110 OFFCURVE",
"45 91 CURVE",
"45 91 OFFCURVE",
"45 116 OFFCURVE",
"45 116 CURVE",
"45 116 OFFCURVE",
"26 116 OFFCURVE",
"26 116 CURVE",
"26 116 OFFCURVE",
"26 0 OFFCURVE",
"26 0 CURVE",
"26 0 OFFCURVE",
"45 0 OFFCURVE",
"45 0 CURVE"
);
}
);
width = 128;
}
);
unicode = 0072;
},
{
glyphname = s;
layers = (
{
hints = (
{
horizontal = 1;
place = "{-3, 16}";
type = Stem;
},
{
horizontal = 1;
place = "{103, 17}";
type = Stem;
},
{
place = "{21, 20}";
type = Stem;
},
{
place = "{92, 20}";
type = Stem;
}
);
layerId = "F2A7ED21-5BE1-4BFF-B4F1-F4609BDA8B83";
paths = (
{
closed = 1;
nodes = (
"33 0 OFFCURVE",
"48 -3 OFFCURVE",
"63 -3 CURVE SMOOTH",
"82 -3 OFFCURVE",
"94 0 OFFCURVE",
"101 7 CURVE SMOOTH",
"108 13 OFFCURVE",
"112 21 OFFCURVE",
"112 31 CURVE SMOOTH",
"112 38 OFFCURVE",
"110 45 OFFCURVE",
"106 50 CURVE SMOOTH",
"101 55 OFFCURVE",
"92 60 OFFCURVE",
"79 65 CURVE SMOOTH",
"60 72 OFFCURVE",
"49 77 OFFCURVE",
"46 80 CURVE SMOOTH",
"43 82 OFFCURVE",
"41 85 OFFCURVE",
"41 88 CURVE SMOOTH",
"41 92 OFFCURVE",
"43 95 OFFCURVE",
"47 98 CURVE SMOOTH",
"52 101 OFFCURVE",
"59 103 OFFCURVE",
"67 103 CURVE SMOOTH",
"78 103 OFFCURVE",
"90 101 OFFCURVE",
"103 97 CURVE",
"103 97 OFFCURVE",
"103 114 OFFCURVE",
"103 114 CURVE",
"92 118 OFFCURVE",
"80 120 OFFCURVE",
"68 120 CURVE SMOOTH",
"51 120 OFFCURVE",
"39 117 OFFCURVE",
"32 111 CURVE SMOOTH",
"25 104 OFFCURVE",
"21 96 OFFCURVE",
"21 87 CURVE SMOOTH",
"21 67 OFFCURVE",
"37 60 OFFCURVE",
"54 54 CURVE SMOOTH",
"74 47 OFFCURVE",
"85 42 OFFCURVE",
"88 39 CURVE SMOOTH",
"91 36 OFFCURVE",
"92 33 OFFCURVE",
"92 29 CURVE SMOOTH",
"92 24 OFFCURVE",
"90 21 OFFCURVE",
"86 18 CURVE SMOOTH",
"81 15 OFFCURVE",
"73 13 OFFCURVE",
"64 13 CURVE SMOOTH",
"48 13 OFFCURVE",
"32 18 OFFCURVE",
"17 27 CURVE",
"17 27 OFFCURVE",
"17 6 OFFCURVE",
"17 6 CURVE"
);
}
);
width = 128;
}
);
unicode = 0073;
},
{
glyphname = t;
layers = (
{
hints = (
{
place = "{39, 19}";
type = Stem;
},
{
place = "{58, 52}";
type = Stem;
},
{
horizontal = 1;
place = "{-3, 16}";
type = Stem;
},
{
horizontal = 1;
place = "{91, 16}";
type = Stem;
},
{
horizontal = 1;
place = "{107, 47}";
type = Stem;
}
);
layerId = "F2A7ED21-5BE1-4BFF-B4F1-F4609BDA8B83";
paths = (
{
closed = 1;
nodes = (
"39 91 OFFCURVE",
"39 44 OFFCURVE",
"39 44 CURVE",
"39 13 OFFCURVE",
"53 -3 OFFCURVE",
"82 -3 CURVE SMOOTH",
"87 -3 OFFCURVE",
"97 0 OFFCURVE",
"113 5 CURVE",
"113 5 OFFCURVE",
"113 22 OFFCURVE",
"113 22 CURVE",
"103 16 OFFCURVE",
"93 13 OFFCURVE",
"84 13 CURVE SMOOTH",
"75 13 OFFCURVE",
"69 15 OFFCURVE",
"65 20 CURVE SMOOTH",
"60 25 OFFCURVE",
"58 33 OFFCURVE",
"58 44 CURVE",
"58 44 OFFCURVE",
"58 91 OFFCURVE",
"58 91 CURVE",
"58 91 OFFCURVE",
"110 91 OFFCURVE",
"110 91 CURVE",
"110 91 OFFCURVE",
"110 107 OFFCURVE",
"110 107 CURVE",
"110 107 OFFCURVE",
"58 107 OFFCURVE",
"58 107 CURVE",
"58 107 OFFCURVE",
"58 154 OFFCURVE",
"58 154 CURVE",
"58 154 OFFCURVE",
"39 154 OFFCURVE",
"39 154 CURVE",
"39 154 OFFCURVE",
"39 107 OFFCURVE",
"39 107 CURVE",
"39 107 OFFCURVE",
"10 107 OFFCURVE",
"10 107 CURVE",
"10 107 OFFCURVE",
"10 91 OFFCURVE",
"10 91 CURVE",
"10 91 OFFCURVE",
"39 91 OFFCURVE",
"39 91 CURVE"
);
}
);
width = 128;
}
);
unicode = 0074;
},
{
glyphname = u;
layers = (
{
hints = (
{
place = "{15, 19}";
type = Stem;
},
{
place = "{92, 20}";
type = Stem;
},
{
horizontal = 1;
place = "{-3, 18}";
type = Stem;
},
{
horizontal = 1;
place = "{0, 21}";
target = up;
type = BottomGhost;
},
{
horizontal = 1;
place = "{49, 67}";
type = Stem;
},
{
horizontal = 1;
place = "{116, -20}";
target = down;
type = TopGhost;
}
);
layerId = "F2A7ED21-5BE1-4BFF-B4F1-F4609BDA8B83";
paths = (
{
closed = 1;
nodes = (
"15 15 OFFCURVE",
"26 -3 OFFCURVE",
"49 -3 CURVE SMOOTH",
"66 -3 OFFCURVE",
"80 7 OFFCURVE",
"92 26 CURVE",
"92 26 OFFCURVE",
"92 0 OFFCURVE",
"92 0 CURVE",
"92 0 OFFCURVE",
"112 0 OFFCURVE",
"112 0 CURVE",
"112 0 OFFCURVE",
"112 116 OFFCURVE",
"112 116 CURVE",
"112 116 OFFCURVE",
"92 116 OFFCURVE",
"92 116 CURVE",
"92 116 OFFCURVE",
"92 49 OFFCURVE",
"92 49 CURVE",
"81 26 OFFCURVE",
"68 15 OFFCURVE",
"51 15 CURVE SMOOTH",
"46 15 OFFCURVE",
"42 17 OFFCURVE",
"39 21 CURVE SMOOTH",
"36 26 OFFCURVE",
"34 36 OFFCURVE",
"34 49 CURVE",
"34 49 OFFCURVE",
"34 116 OFFCURVE",
"34 116 CURVE",
"34 116 OFFCURVE",
"15 116 OFFCURVE",
"15 116 CURVE",
"15 116 OFFCURVE",
"15 51 OFFCURVE",
"15 51 CURVE"
);
}
);
width = 128;
}
);
unicode = 0075;
},
{
glyphname = uacute;
layers = (
{
hints = (
{
place = "{15, 19}";
type = Stem;
},
{
place = "{92, 20}";
type = Stem;
},
{
horizontal = 1;
place = "{-3, 18}";
type = Stem;
},
{
horizontal = 1;
place = "{0, 21}";
target = up;
type = BottomGhost;
},
{
horizontal = 1;
place = "{49, 67}";
type = Stem;
},
{
horizontal = 1;
place = "{116, -20}";
target = down;
type = TopGhost;
},
{
horizontal = 1;
place = "{134, 34}";
type = Stem;
}
);
layerId = "F2A7ED21-5BE1-4BFF-B4F1-F4609BDA8B83";
paths = (
{
closed = 1;
nodes = (
"64 168 LINE",
"64 168 OFFCURVE",
"33 134 OFFCURVE",
"33 134 CURVE",
"33 134 OFFCURVE",
"51 134 OFFCURVE",
"51 134 CURVE",
"51 134 OFFCURVE",
"87 168 OFFCURVE",
"87 168 CURVE"
);
},
{
closed = 1;
nodes = (
"15 15 OFFCURVE",
"26 -3 OFFCURVE",
"49 -3 CURVE SMOOTH",
"66 -3 OFFCURVE",
"80 7 OFFCURVE",
"92 26 CURVE",
"92 26 OFFCURVE",
"92 0 OFFCURVE",
"92 0 CURVE",
"92 0 OFFCURVE",
"112 0 OFFCURVE",
"112 0 CURVE",
"112 0 OFFCURVE",
"112 116 OFFCURVE",
"112 116 CURVE",
"112 116 OFFCURVE",
"92 116 OFFCURVE",
"92 116 CURVE",
"92 116 OFFCURVE",
"92 49 OFFCURVE",
"92 49 CURVE",
"81 26 OFFCURVE",
"68 15 OFFCURVE",
"51 15 CURVE SMOOTH",
"46 15 OFFCURVE",
"42 17 OFFCURVE",
"39 21 CURVE SMOOTH",
"36 26 OFFCURVE",
"34 36 OFFCURVE",
"34 49 CURVE",
"34 49 OFFCURVE",
"34 116 OFFCURVE",
"34 116 CURVE",
"34 116 OFFCURVE",
"15 116 OFFCURVE",
"15 116 CURVE",
"15 116 OFFCURVE",
"15 51 OFFCURVE",
"15 51 CURVE"
);
}
);
width = 128;
}
);
unicode = 00FA;
},
{
glyphname = ugrave;
layers = (
{
hints = (
{
place = "{15, 19}";
type = Stem;
},
{
place = "{92, 20}";
type = Stem;
},
{
horizontal = 1;
place = "{-3, 18}";
type = Stem;
},
{
horizontal = 1;
place = "{0, 21}";
target = up;
type = BottomGhost;
},
{
horizontal = 1;
place = "{49, 67}";
type = Stem;
},
{
horizontal = 1;
place = "{116, 52}";
type = Stem;
},
{
horizontal = 1;
place = "{134, 34}";
type = Stem;
}
);
layerId = "F2A7ED21-5BE1-4BFF-B4F1-F4609BDA8B83";
paths = (
{
closed = 1;
nodes = (
"33 168 LINE",
"33 168 OFFCURVE",
"69 134 OFFCURVE",
"69 134 CURVE",
"69 134 OFFCURVE",
"87 134 OFFCURVE",
"87 134 CURVE",
"87 134 OFFCURVE",
"56 168 OFFCURVE",
"56 168 CURVE"
);
},
{
closed = 1;
nodes = (
"15 15 OFFCURVE",
"26 -3 OFFCURVE",
"49 -3 CURVE SMOOTH",
"66 -3 OFFCURVE",
"80 7 OFFCURVE",
"92 26 CURVE",
"92 26 OFFCURVE",
"92 0 OFFCURVE",
"92 0 CURVE",
"92 0 OFFCURVE",
"112 0 OFFCURVE",
"112 0 CURVE",
"112 0 OFFCURVE",
"112 116 OFFCURVE",
"112 116 CURVE",
"112 116 OFFCURVE",
"92 116 OFFCURVE",
"92 116 CURVE",
"92 116 OFFCURVE",
"92 49 OFFCURVE",
"92 49 CURVE",
"81 26 OFFCURVE",
"68 15 OFFCURVE",
"51 15 CURVE SMOOTH",
"46 15 OFFCURVE",
"42 17 OFFCURVE",
"39 21 CURVE SMOOTH",
"36 26 OFFCURVE",
"34 36 OFFCURVE",
"34 49 CURVE",
"34 49 OFFCURVE",
"34 116 OFFCURVE",
"34 116 CURVE",
"34 116 OFFCURVE",
"15 116 OFFCURVE",
"15 116 CURVE",
"15 116 OFFCURVE",
"15 51 OFFCURVE",
"15 51 CURVE"
);
}
);
width = 128;
}
);
unicode = 00F9;
},
{
glyphname = v;
layers = (
{
hints = (
{
horizontal = 1;
place = "{0, 21}";
target = up;
type = BottomGhost;
},
{
horizontal = 1;
place = "{116, -20}";
target = down;
type = TopGhost;
},
{
place = "{3, 122}";
type = Stem;
}
);
layerId = "F2A7ED21-5BE1-4BFF-B4F1-F4609BDA8B83";
paths = (
{
closed = 1;
nodes = (
"74 0 OFFCURVE",
"125 116 OFFCURVE",
"125 116 CURVE",
"105 116 LINE",
"105 116 OFFCURVE",
"65 24 OFFCURVE",
"65 24 CURVE",
"65 24 OFFCURVE",
"25 116 OFFCURVE",
"25 116 CURVE",
"25 116 OFFCURVE",
"3 116 OFFCURVE",
"3 116 CURVE",
"3 116 OFFCURVE",
"54 0 OFFCURVE",
"54 0 CURVE",
"54 0 OFFCURVE",
"74 0 OFFCURVE",
"74 0 CURVE"
);
}
);
width = 128;
}
);
unicode = 0076;
},
{
glyphname = w;
layers = (
{
hints = (
{
place = "{2, 124}";
type = Stem;
},
{
place = "{35, 60}";
type = Stem;
},
{
horizontal = 1;
place = "{0, 21}";
target = up;
type = BottomGhost;
},
{
horizontal = 1;
place = "{91, 25}";
type = Stem;
}
);
layerId = "F2A7ED21-5BE1-4BFF-B4F1-F4609BDA8B83";
paths = (
{
closed = 1;
nodes = (
"21 0 OFFCURVE",
"40 0 OFFCURVE",
"40 0 CURVE",
"40 0 OFFCURVE",
"59 75 OFFCURVE",
"59 75 CURVE",
"62 91 LINE",
"63 91 LINE",
"63 91 OFFCURVE",
"89 0 OFFCURVE",
"89 0 CURVE",
"89 0 OFFCURVE",
"107 0 OFFCURVE",
"107 0 CURVE",
"107 0 OFFCURVE",
"126 116 OFFCURVE",
"126 116 CURVE",
"126 116 OFFCURVE",
"111 116 OFFCURVE",
"111 116 CURVE",
"111 116 OFFCURVE",
"97 29 OFFCURVE",
"97 29 CURVE",
"97 29 OFFCURVE",
"94 46 OFFCURVE",
"94 46 CURVE",
"94 46 OFFCURVE",
"73 116 OFFCURVE",
"73 116 CURVE",
"73 116 OFFCURVE",
"55 116 OFFCURVE",
"55 116 CURVE",
"55 116 OFFCURVE",
"37 46 OFFCURVE",
"37 46 CURVE",
"37 46 OFFCURVE",
"34 29 OFFCURVE",
"34 29 CURVE",
"34 29 OFFCURVE",
"20 116 OFFCURVE",
"20 116 CURVE",
"20 116 OFFCURVE",
"2 116 OFFCURVE",
"2 116 CURVE",
"2 116 OFFCURVE",
"21 0 OFFCURVE",
"21 0 CURVE"
);
}
);
width = 128;
}
);
unicode = 0077;
},
{
glyphname = x;
layers = (
{
hints = (
{
place = "{6, 117}";
type = Stem;
},
{
horizontal = 1;
place = "{0, 21}";
target = up;
type = BottomGhost;
},
{
horizontal = 1;
place = "{77, 39}";
type = Stem;
},
{
horizontal = 1;
place = "{116, -20}";
target = down;
type = TopGhost;
}
);
layerId = "F2A7ED21-5BE1-4BFF-B4F1-F4609BDA8B83";
paths = (
{
closed = 1;
nodes = (
"28 0 OFFCURVE",
"63 46 OFFCURVE",
"63 46 CURVE",
"98 0 LINE",
"98 0 OFFCURVE",
"123 0 OFFCURVE",
"123 0 CURVE",
"123 0 OFFCURVE",
"75 63 OFFCURVE",
"75 63 CURVE",
"75 63 OFFCURVE",
"115 116 OFFCURVE",
"115 116 CURVE",
"115 116 OFFCURVE",
"93 116 OFFCURVE",
"93 116 CURVE",
"93 116 OFFCURVE",
"64 77 OFFCURVE",
"64 77 CURVE",
"64 77 OFFCURVE",
"34 116 OFFCURVE",
"34 116 CURVE",
"34 116 OFFCURVE",
"9 116 OFFCURVE",
"9 116 CURVE",
"9 116 OFFCURVE",
"52 61 OFFCURVE",
"52 61 CURVE",
"52 61 OFFCURVE",
"6 0 OFFCURVE",
"6 0 CURVE",
"6 0 OFFCURVE",
"28 0 OFFCURVE",
"28 0 CURVE"
);
}
);
width = 128;
}
);
unicode = 0078;
},
{
glyphname = y;
layers = (
{
hints = (
{
horizontal = 1;
place = "{-49, 17}";
type = Stem;
},
{
horizontal = 1;
place = "{116, -20}";
target = down;
type = TopGhost;
},
{
place = "{3, 122}";
type = Stem;
}
);
layerId = "F2A7ED21-5BE1-4BFF-B4F1-F4609BDA8B83";
paths = (
{
closed = 1;
nodes = (
"32 -49 OFFCURVE",
"43 -45 OFFCURVE",
"52 -38 CURVE SMOOTH",
"60 -32 OFFCURVE",
"69 -17 OFFCURVE",
"80 8 CURVE",
"80 8 OFFCURVE",
"125 116 OFFCURVE",
"125 116 CURVE",
"125 116 OFFCURVE",
"105 116 OFFCURVE",
"105 116 CURVE",
"105 116 OFFCURVE",
"69 29 OFFCURVE",
"69 29 CURVE",
"69 29 OFFCURVE",
"27 116 OFFCURVE",
"27 116 CURVE",
"27 116 OFFCURVE",
"5 116 OFFCURVE",
"5 116 CURVE",
"5 116 OFFCURVE",
"59 5 OFFCURVE",
"59 5 CURVE",
"50 -20 OFFCURVE",
"36 -32 OFFCURVE",
"19 -32 CURVE",
"19 -32 OFFCURVE",
"3 -30 OFFCURVE",
"3 -30 CURVE",
"3 -30 OFFCURVE",
"3 -47 OFFCURVE",
"3 -47 CURVE",
"3 -47 OFFCURVE",
"19 -49 OFFCURVE",
"19 -49 CURVE"
);
}
);
width = 128;
}
);
unicode = 0079;
},
{
glyphname = z;
layers = (
{
hints = (
{
horizontal = 1;
place = "{0, 18}";
type = Stem;
},
{
horizontal = 1;
place = "{100, 16}";
type = Stem;
},
{
place = "{14, 25}";
type = Stem;
},
{
place = "{85, 26}";
type = Stem;
}
);
layerId = "F2A7ED21-5BE1-4BFF-B4F1-F4609BDA8B83";
paths = (
{
closed = 1;
nodes = (
"111 116 OFFCURVE",
"16 116 OFFCURVE",
"16 116 CURVE",
"16 116 OFFCURVE",
"16 100 OFFCURVE",
"16 100 CURVE",
"16 100 OFFCURVE",
"85 100 OFFCURVE",
"85 100 CURVE",
"85 100 OFFCURVE",
"14 18 OFFCURVE",
"14 18 CURVE",
"14 18 OFFCURVE",
"14 0 OFFCURVE",
"14 0 CURVE",
"14 0 OFFCURVE",
"113 0 OFFCURVE",
"113 0 CURVE",
"113 0 OFFCURVE",
"113 18 OFFCURVE",
"113 18 CURVE",
"39 18 LINE",
"39 18 OFFCURVE",
"111 100 OFFCURVE",
"111 100 CURVE",
"111 100 OFFCURVE",
"111 116 OFFCURVE",
"111 116 CURVE"
);
}
);
width = 128;
}
);
unicode = 007A;
},
{
glyphname = zero;
layers = (
{
hints = (
{
horizontal = 1;
place = "{-5, 16}";
type = Stem;
},
{
horizontal = 1;
place = "{150, 16}";
type = Stem;
},
{
place = "{7, 21}";
type = Stem;
},
{
place = "{100, 21}";
type = Stem;
}
);
layerId = "F2A7ED21-5BE1-4BFF-B4F1-F4609BDA8B83";
paths = (
{
closed = 1;
nodes = (
"7 43 OFFCURVE",
"17 -5 OFFCURVE",
"64 -5 CURVE SMOOTH",
"80 -5 OFFCURVE",
"93 1 OFFCURVE",
"102 13 CURVE SMOOTH",
"115 28 OFFCURVE",
"121 50 OFFCURVE",
"121 81 CURVE SMOOTH",
"121 111 OFFCURVE",
"115 133 OFFCURVE",
"102 148 CURVE SMOOTH",
"93 160 OFFCURVE",
"80 166 OFFCURVE",
"64 166 CURVE SMOOTH",
"18 166 OFFCURVE",
"7 118 OFFCURVE",
"7 81 CURVE SMOOTH"
);
},
{
closed = 1;
nodes = (
"29 53 OFFCURVE",
"28 65 OFFCURVE",
"28 82 CURVE SMOOTH",
"28 104 OFFCURVE",
"33 150 OFFCURVE",
"64 150 CURVE SMOOTH",
"74 150 OFFCURVE",
"82 145 OFFCURVE",
"88 134 CURVE",
"88 134 OFFCURVE",
"32 46 OFFCURVE",
"32 46 CURVE"
);
},
{
closed = 1;
nodes = (
"98 98 OFFCURVE",
"100 87 OFFCURVE",
"100 82 CURVE SMOOTH",
"100 59 OFFCURVE",
"95 11 OFFCURVE",
"63 11 CURVE SMOOTH",
"54 11 OFFCURVE",
"46 16 OFFCURVE",
"40 26 CURVE",
"40 26 OFFCURVE",
"95 115 OFFCURVE",
"95 115 CURVE"
);
}
);
width = 128;
}
);
unicode = 0030;
},
{
glyphname = one;
layers = (
{
hints = (
{
horizontal = 1;
place = "{0, 16}";
type = Stem;
},
{
horizontal = 1;
place = "{141, 21}";
type = Stem;
},
{
place = "{59, 20}";
type = Stem;
}
);
layerId = "F2A7ED21-5BE1-4BFF-B4F1-F4609BDA8B83";
paths = (
{
closed = 1;
nodes = (
"117 0 OFFCURVE",
"117 16 OFFCURVE",
"117 16 CURVE",
"79 16 LINE",
"79 16 OFFCURVE",
"79 162 OFFCURVE",
"79 162 CURVE",
"79 162 OFFCURVE",
"59 162 OFFCURVE",
"59 162 CURVE",
"48 151 OFFCURVE",
"35 143 OFFCURVE",
"20 137 CURVE",
"20 137 OFFCURVE",
"20 119 OFFCURVE",
"20 119 CURVE",
"32 123 OFFCURVE",
"45 130 OFFCURVE",
"59 141 CURVE",
"59 141 OFFCURVE",
"59 16 OFFCURVE",
"59 16 CURVE",
"59 16 OFFCURVE",
"20 16 OFFCURVE",
"20 16 CURVE",
"20 16 OFFCURVE",
"20 0 OFFCURVE",
"20 0 CURVE",
"20 0 OFFCURVE",
"117 0 OFFCURVE",
"117 0 CURVE"
);
}
);
width = 128;
}
);
unicode = 0031;
},
{
glyphname = two;
layers = (
{
hints = (
{
horizontal = 1;
place = "{0, 18}";
type = Stem;
},
{
horizontal = 1;
place = "{150, 16}";
type = Stem;
},
{
place = "{16, 20}";
type = Stem;
},
{
place = "{90, 21}";
type = Stem;
}
);
layerId = "F2A7ED21-5BE1-4BFF-B4F1-F4609BDA8B83";
paths = (
{
closed = 1;
nodes = (
"36 18 LINE",
"37 31 OFFCURVE",
"44 44 OFFCURVE",
"57 58 CURVE",
"84 84 OFFCURVE",
"100 101 OFFCURVE",
"105 109 CURVE SMOOTH",
"109 116 OFFCURVE",
"111 123 OFFCURVE",
"111 131 CURVE SMOOTH",
"111 141 OFFCURVE",
"107 150 OFFCURVE",
"100 157 CURVE",
"92 163 OFFCURVE",
"81 166 OFFCURVE",
"67 166 CURVE SMOOTH",
"48 166 OFFCURVE",
"32 163 OFFCURVE",
"19 156 CURVE",
"19 156 OFFCURVE",
"19 138 OFFCURVE",
"19 138 CURVE",
"36 146 OFFCURVE",
"50 150 OFFCURVE",
"63 150 CURVE SMOOTH",
"72 150 OFFCURVE",
"78 148 OFFCURVE",
"83 143 CURVE",
"88 140 OFFCURVE",
"90 136 OFFCURVE",
"90 129 CURVE SMOOTH",
"90 124 OFFCURVE",
"89 120 OFFCURVE",
"86 115 CURVE SMOOTH",
"84 111 OFFCURVE",
"74 99 OFFCURVE",
"57 80 CURVE",
"38 61 OFFCURVE",
"27 48 OFFCURVE",
"22 40 CURVE SMOOTH",
"18 33 OFFCURVE",
"16 25 OFFCURVE",
"16 18 CURVE",
"16 18 OFFCURVE",
"16 0 OFFCURVE",
"16 0 CURVE",
"16 0 OFFCURVE",
"113 0 OFFCURVE",
"113 0 CURVE",
"113 0 OFFCURVE",
"113 18 OFFCURVE",
"113 18 CURVE"
);
}
);
width = 128;
}
);
unicode = 0032;
},
{
glyphname = three;
layers = (
{
hints = (
{
place = "{85, 21}";
type = Stem;
},
{
place = "{93, 21}";
type = Stem;
},
{
horizontal = 1;
place = "{-5, 16}";
type = Stem;
},
{
horizontal = 1;
place = "{81, 16}";
type = Stem;
},
{
horizontal = 1;
place = "{150, 16}";
type = Stem;
}
);
layerId = "F2A7ED21-5BE1-4BFF-B4F1-F4609BDA8B83";
paths = (
{
closed = 1;
nodes = (
"32 -2 OFFCURVE",
"45 -5 OFFCURVE",
"54 -5 CURVE SMOOTH",
"86 -5 OFFCURVE",
"114 13 OFFCURVE",
"114 47 CURVE SMOOTH",
"114 58 OFFCURVE",
"111 67 OFFCURVE",
"106 74 CURVE",
"99 81 OFFCURVE",
"90 87 OFFCURVE",
"79 90 CURVE",
"97 99 OFFCURVE",
"106 112 OFFCURVE",
"106 128 CURVE SMOOTH",
"106 140 OFFCURVE",
"102 149 OFFCURVE",
"94 156 CURVE SMOOTH",
"87 163 OFFCURVE",
"74 166 OFFCURVE",
"55 166 CURVE SMOOTH",
"40 166 OFFCURVE",
"27 164 OFFCURVE",
"18 159 CURVE",
"18 159 OFFCURVE",
"18 141 OFFCURVE",
"18 141 CURVE",
"31 147 OFFCURVE",
"43 150 OFFCURVE",
"55 150 CURVE SMOOTH",
"65 150 OFFCURVE",
"73 148 OFFCURVE",
"78 144 CURVE SMOOTH",
"83 139 OFFCURVE",
"85 133 OFFCURVE",
"85 126 CURVE SMOOTH",
"85 105 OFFCURVE",
"65 97 OFFCURVE",
"47 97 CURVE",
"47 97 OFFCURVE",
"32 97 OFFCURVE",
"32 97 CURVE",
"32 97 OFFCURVE",
"32 81 OFFCURVE",
"32 81 CURVE",
"32 81 OFFCURVE",
"43 81 OFFCURVE",
"43 81 CURVE",
"67 81 OFFCURVE",
"93 75 OFFCURVE",
"93 46 CURVE SMOOTH",
"93 24 OFFCURVE",
"77 11 OFFCURVE",
"56 11 CURVE SMOOTH",
"45 11 OFFCURVE",
"31 15 OFFCURVE",
"15 23 CURVE",
"15 23 OFFCURVE",
"15 3 OFFCURVE",
"15 3 CURVE"
);
}
);
width = 128;
}
);
unicode = 0033;
},
{
glyphname = four;
layers = (
{
hints = (
{
place = "{74, 19}";
type = Stem;
},
{
horizontal = 1;
place = "{0, 61}";
type = Stem;
},
{
horizontal = 1;
place = "{45, 16}";
type = Stem;
},
{
horizontal = 1;
place = "{132, 30}";
type = Stem;
},
{
horizontal = 1;
place = "{162, -20}";
target = down;
type = TopGhost;
}
);
layerId = "F2A7ED21-5BE1-4BFF-B4F1-F4609BDA8B83";
paths = (
{
closed = 1;
nodes = (
"5 45 OFFCURVE",
"74 45 OFFCURVE",
"74 45 CURVE",
"74 45 OFFCURVE",
"74 0 OFFCURVE",
"74 0 CURVE",
"74 0 OFFCURVE",
"93 0 OFFCURVE",
"93 0 CURVE",
"93 0 OFFCURVE",
"93 45 OFFCURVE",
"93 45 CURVE",
"123 45 LINE",
"123 45 OFFCURVE",
"123 61 OFFCURVE",
"123 61 CURVE",
"123 61 OFFCURVE",
"93 61 OFFCURVE",
"93 61 CURVE",
"93 61 OFFCURVE",
"93 162 OFFCURVE",
"93 162 CURVE",
"93 162 OFFCURVE",
"74 162 OFFCURVE",
"74 162 CURVE",
"74 162 OFFCURVE",
"5 61 OFFCURVE",
"5 61 CURVE",
"5 61 OFFCURVE",
"5 45 OFFCURVE",
"5 45 CURVE"
);
},
{
closed = 1;
nodes = (
"74 61 OFFCURVE",
"26 61 OFFCURVE",
"26 61 CURVE",
"74 132 LINE",
"74 132 OFFCURVE",
"74 61 OFFCURVE",
"74 61 CURVE"
);
}
);
width = 128;
}
);
unicode = 0034;
},
{
glyphname = five;
layers = (
{
hints = (
{
horizontal = 1;
place = "{-5, 18}";
type = Stem;
},
{
horizontal = 1;
place = "{84, 19}";
type = Stem;
},
{
horizontal = 1;
place = "{143, 19}";
type = Stem;
},
{
place = "{20, 19}";
type = Stem;
},
{
place = "{93, 22}";
type = Stem;
}
);
layerId = "F2A7ED21-5BE1-4BFF-B4F1-F4609BDA8B83";
paths = (
{
closed = 1;
nodes = (
"73 84 OFFCURVE",
"93 72 OFFCURVE",
"93 48 CURVE SMOOTH",
"93 26 OFFCURVE",
"77 13 OFFCURVE",
"56 13 CURVE SMOOTH",
"47 13 OFFCURVE",
"34 17 OFFCURVE",
"16 24 CURVE",
"16 24 OFFCURVE",
"16 3 OFFCURVE",
"16 3 CURVE",
"37 -2 OFFCURVE",
"51 -5 OFFCURVE",
"56 -5 CURVE SMOOTH",
"89 -5 OFFCURVE",
"115 16 OFFCURVE",
"115 50 CURVE SMOOTH",
"115 66 OFFCURVE",
"109 79 OFFCURVE",
"97 89 CURVE",
"84 98 OFFCURVE",
"66 103 OFFCURVE",
"42 103 CURVE",
"42 103 OFFCURVE",
"39 103 OFFCURVE",
"39 103 CURVE",
"39 103 OFFCURVE",
"39 143 OFFCURVE",
"39 143 CURVE",
"39 143 OFFCURVE",
"110 143 OFFCURVE",
"110 143 CURVE",
"110 143 OFFCURVE",
"110 162 OFFCURVE",
"110 162 CURVE",
"110 162 OFFCURVE",
"20 162 OFFCURVE",
"20 162 CURVE",
"20 162 OFFCURVE",
"20 84 OFFCURVE",
"20 84 CURVE",
"20 84 OFFCURVE",
"32 84 OFFCURVE",
"32 84 CURVE"
);
}
);
width = 128;
}
);
unicode = 0035;
},
{
glyphname = six;
layers = (
{
hints = (
{
place = "{11, 19}";
type = Stem;
},
{
place = "{101, 20}";
type = Stem;
},
{
horizontal = 1;
place = "{-5, 16}";
type = Stem;
},
{
horizontal = 1;
place = "{85, 16}";
type = Stem;
},
{
horizontal = 1;
place = "{150, 16}";
type = Stem;
},
{
horizontal = 1;
place = "{162, -20}";
target = down;
type = TopGhost;
}
);
layerId = "F2A7ED21-5BE1-4BFF-B4F1-F4609BDA8B83";
paths = (
{
closed = 1;
nodes = (
"30 104 OFFCURVE",
"35 122 OFFCURVE",
"46 135 CURVE",
"53 145 OFFCURVE",
"63 150 OFFCURVE",
"76 150 CURVE SMOOTH",
"83 150 OFFCURVE",
"93 147 OFFCURVE",
"108 142 CURVE",
"108 142 OFFCURVE",
"108 162 OFFCURVE",
"108 162 CURVE",
"102 165 OFFCURVE",
"92 166 OFFCURVE",
"77 166 CURVE SMOOTH",
"28 166 OFFCURVE",
"11 121 OFFCURVE",
"11 79 CURVE SMOOTH",
"11 42 OFFCURVE",
"22 -5 OFFCURVE",
"67 -5 CURVE SMOOTH",
"99 -5 OFFCURVE",
"121 21 OFFCURVE",
"121 52 CURVE SMOOTH",
"121 82 OFFCURVE",
"103 101 OFFCURVE",
"73 101 CURVE SMOOTH",
"55 101 OFFCURVE",
"41 93 OFFCURVE",
"30 76 CURVE",
"30 76 OFFCURVE",
"30 80 OFFCURVE",
"30 80 CURVE"
);
},
{
closed = 1;
nodes = (
"61 11 OFFCURVE",
"54 14 OFFCURVE",
"48 21 CURVE SMOOTH",
"41 28 OFFCURVE",
"38 36 OFFCURVE",
"38 47 CURVE SMOOTH",
"38 59 OFFCURVE",
"41 68 OFFCURVE",
"48 75 CURVE SMOOTH",
"54 82 OFFCURVE",
"62 85 OFFCURVE",
"72 85 CURVE SMOOTH",
"81 85 OFFCURVE",
"88 82 OFFCURVE",
"93 76 CURVE SMOOTH",
"98 69 OFFCURVE",
"101 60 OFFCURVE",
"101 51 CURVE SMOOTH",
"101 39 OFFCURVE",
"98 29 OFFCURVE",
"92 22 CURVE SMOOTH",
"85 15 OFFCURVE",
"77 11 OFFCURVE",
"68 11 CURVE SMOOTH"
);
}
);
width = 128;
}
);
unicode = 0036;
},
{
glyphname = seven;
layers = (
{
hints = (
{
horizontal = 1;
place = "{0, 21}";
target = up;
type = BottomGhost;
},
{
horizontal = 1;
place = "{142, 20}";
type = Stem;
},
{
place = "{33, 21}";
type = Stem;
},
{
place = "{101, 19}";
type = Stem;
}
);
layerId = "F2A7ED21-5BE1-4BFF-B4F1-F4609BDA8B83";
paths = (
{
closed = 1;
nodes = (
"54 28 OFFCURVE",
"56 40 OFFCURVE",
"60 49 CURVE SMOOTH",
"63 57 OFFCURVE",
"76 76 OFFCURVE",
"98 106 CURVE SMOOTH",
"113 125 OFFCURVE",
"120 139 OFFCURVE",
"120 149 CURVE",
"120 149 OFFCURVE",
"120 162 OFFCURVE",
"120 162 CURVE",
"120 162 OFFCURVE",
"17 162 OFFCURVE",
"17 162 CURVE",
"17 162 OFFCURVE",
"17 142 OFFCURVE",
"17 142 CURVE",
"17 142 OFFCURVE",
"101 142 OFFCURVE",
"101 142 CURVE",
"98 134 OFFCURVE",
"94 127 OFFCURVE",
"89 121 CURVE SMOOTH",
"62 86 OFFCURVE",
"46 63 OFFCURVE",
"41 52 CURVE",
"36 37 OFFCURVE",
"33 25 OFFCURVE",
"33 14 CURVE",
"33 14 OFFCURVE",
"33 0 OFFCURVE",
"33 0 CURVE",
"33 0 OFFCURVE",
"54 0 OFFCURVE",
"54 0 CURVE",
"54 0 OFFCURVE",
"54 14 OFFCURVE",
"54 14 CURVE"
);
}
);
width = 128;
}
);
unicode = 0037;
},
{
glyphname = eight;
layers = (
{
hints = (
{
place = "{14, 21}";
type = Stem;
},
{
place = "{23, 18}";
type = Stem;
},
{
place = "{90, 19}";
type = Stem;
},
{
place = "{95, 21}";
type = Stem;
},
{
horizontal = 1;
place = "{-5, 16}";
type = Stem;
},
{
horizontal = 1;
place = "{150, 16}";
type = Stem;
}
);
layerId = "F2A7ED21-5BE1-4BFF-B4F1-F4609BDA8B83";
paths = (
{
closed = 1;
nodes = (
"25 72 OFFCURVE",
"14 56 OFFCURVE",
"14 37 CURVE SMOOTH",
"14 7 OFFCURVE",
"38 -5 OFFCURVE",
"65 -5 CURVE SMOOTH",
"82 -5 OFFCURVE",
"94 -1 OFFCURVE",
"103 8 CURVE SMOOTH",
"112 16 OFFCURVE",
"116 26 OFFCURVE",
"116 38 CURVE SMOOTH",
"116 42 OFFCURVE",
"114 49 OFFCURVE",
"111 59 CURVE",
"107 65 OFFCURVE",
"97 74 OFFCURVE",
"81 87 CURVE",
"100 102 OFFCURVE",
"109 116 OFFCURVE",
"109 131 CURVE SMOOTH",
"109 154 OFFCURVE",
"89 166 OFFCURVE",
"68 166 CURVE SMOOTH",
"56 166 OFFCURVE",
"45 162 OFFCURVE",
"36 155 CURVE SMOOTH",
"27 147 OFFCURVE",
"23 138 OFFCURVE",
"23 127 CURVE SMOOTH",
"23 114 OFFCURVE",
"30 101 OFFCURVE",
"44 90 CURVE",
"44 90 OFFCURVE",
"48 87 OFFCURVE",
"48 87 CURVE"
);
},
{
closed = 1;
nodes = (
"56 106 OFFCURVE",
"49 112 OFFCURVE",
"46 116 CURVE SMOOTH",
"43 121 OFFCURVE",
"41 126 OFFCURVE",
"41 129 CURVE SMOOTH",
"41 134 OFFCURVE",
"43 139 OFFCURVE",
"48 144 CURVE SMOOTH",
"53 148 OFFCURVE",
"59 150 OFFCURVE",
"65 150 CURVE SMOOTH",
"77 150 OFFCURVE",
"90 143 OFFCURVE",
"90 130 CURVE SMOOTH",
"90 119 OFFCURVE",
"83 108 OFFCURVE",
"68 97 CURVE"
);
},
{
closed = 1;
nodes = (
"73 68 OFFCURVE",
"82 59 OFFCURVE",
"89 51 CURVE SMOOTH",
"93 46 OFFCURVE",
"95 41 OFFCURVE",
"95 36 CURVE SMOOTH",
"95 30 OFFCURVE",
"92 24 OFFCURVE",
"87 19 CURVE",
"80 14 OFFCURVE",
"72 11 OFFCURVE",
"65 11 CURVE SMOOTH",
"56 11 OFFCURVE",
"49 14 OFFCURVE",
"44 19 CURVE SMOOTH",
"38 24 OFFCURVE",
"35 30 OFFCURVE",
"35 37 CURVE SMOOTH",
"35 50 OFFCURVE",
"44 63 OFFCURVE",
"62 77 CURVE"
);
}
);
width = 128;
}
);
unicode = 0038;
},
{
glyphname = nine;
layers = (
{
hints = (
{
place = "{7, 20}";
type = Stem;
},
{
place = "{97, 20}";
type = Stem;
},
{
horizontal = 1;
place = "{-5, 16}";
type = Stem;
},
{
horizontal = 1;
place = "{0, 21}";
target = up;
type = BottomGhost;
},
{
horizontal = 1;
place = "{61, 16}";
type = Stem;
},
{
horizontal = 1;
place = "{150, 16}";
type = Stem;
}
);
layerId = "F2A7ED21-5BE1-4BFF-B4F1-F4609BDA8B83";
paths = (
{
closed = 1;
nodes = (
"97 53 OFFCURVE",
"88 11 OFFCURVE",
"52 11 CURVE SMOOTH",
"46 11 OFFCURVE",
"35 14 OFFCURVE",
"19 19 CURVE",
"19 19 OFFCURVE",
"19 0 OFFCURVE",
"19 0 CURVE",
"36 -3 OFFCURVE",
"46 -5 OFFCURVE",
"51 -5 CURVE SMOOTH",
"101 -5 OFFCURVE",
"117 39 OFFCURVE",
"117 82 CURVE SMOOTH",
"117 119 OFFCURVE",
"107 166 OFFCURVE",
"61 166 CURVE SMOOTH",
"29 166 OFFCURVE",
"7 140 OFFCURVE",
"7 109 CURVE SMOOTH",
"7 82 OFFCURVE",
"26 61 OFFCURVE",
"54 61 CURVE SMOOTH",
"72 61 OFFCURVE",
"86 69 OFFCURVE",
"97 86 CURVE",
"97 86 OFFCURVE",
"97 82 OFFCURVE",
"97 82 CURVE"
);
},
{
closed = 1;
nodes = (
"67 150 OFFCURVE",
"74 147 OFFCURVE",
"81 140 CURVE SMOOTH",
"87 133 OFFCURVE",
"90 125 OFFCURVE",
"90 114 CURVE SMOOTH",
"90 95 OFFCURVE",
"76 77 OFFCURVE",
"56 77 CURVE SMOOTH",
"47 77 OFFCURVE",
"40 80 OFFCURVE",
"35 86 CURVE SMOOTH",
"30 91 OFFCURVE",
"27 99 OFFCURVE",
"27 110 CURVE SMOOTH",
"27 123 OFFCURVE",
"30 133 OFFCURVE",
"37 140 CURVE SMOOTH",
"43 147 OFFCURVE",
"50 150 OFFCURVE",
"59 150 CURVE SMOOTH"
);
}
);
width = 128;
}
);
unicode = 0039;
},
{
glyphname = period;
layers = (
{
hints = (
{
horizontal = 1;
place = "{-5, 34}";
type = Stem;
},
{
place = "{47, 34}";
type = Stem;
}
);
layerId = "F2A7ED21-5BE1-4BFF-B4F1-F4609BDA8B83";
paths = (
{
closed = 1;
nodes = (
"81 21 OFFCURVE",
"73 29 OFFCURVE",
"64 29 CURVE SMOOTH",
"55 29 OFFCURVE",
"47 21 OFFCURVE",
"47 12 CURVE SMOOTH",
"47 3 OFFCURVE",
"55 -5 OFFCURVE",
"64 -5 CURVE SMOOTH",
"73 -5 OFFCURVE",
"81 3 OFFCURVE",
"81 12 CURVE SMOOTH"
);
}
);
width = 128;
}
);
unicode = 002E;
},
{
glyphname = comma;
layers = (
{
hints = (
{
place = "{64, 20}";
type = Stem;
},
{
horizontal = 1;
place = "{-45, 21}";
target = up;
type = BottomGhost;
},
{
horizontal = 1;
place = "{-4, 35}";
type = Stem;
},
{
horizontal = 1;
place = "{-4, 21}";
target = up;
type = BottomGhost;
}
);
layerId = "F2A7ED21-5BE1-4BFF-B4F1-F4609BDA8B83";
paths = (
{
closed = 1;
nodes = (
"55 -44 OFFCURVE",
"64 -39 OFFCURVE",
"73 -29 CURVE SMOOTH",
"80 -20 OFFCURVE",
"84 -9 OFFCURVE",
"84 2 CURVE SMOOTH",
"84 12 OFFCURVE",
"82 19 OFFCURVE",
"78 24 CURVE SMOOTH",
"73 29 OFFCURVE",
"68 31 OFFCURVE",
"62 31 CURVE SMOOTH",
"53 31 OFFCURVE",
"45 23 OFFCURVE",
"45 14 CURVE SMOOTH",
"45 2 OFFCURVE",
"51 -4 OFFCURVE",
"64 -4 CURVE",
"64 -16 OFFCURVE",
"57 -30 OFFCURVE",
"44 -32 CURVE",
"44 -32 OFFCURVE",
"44 -45 OFFCURVE",
"44 -45 CURVE"
);
}
);
width = 128;
}
);
unicode = 002C;
},
{
glyphname = colon;
layers = (
{
hints = (
{
horizontal = 1;
place = "{-5, 34}";
type = Stem;
},
{
horizontal = 1;
place = "{86, 34}";
type = Stem;
},
{
place = "{47, 34}";
type = Stem;
}
);
layerId = "F2A7ED21-5BE1-4BFF-B4F1-F4609BDA8B83";
paths = (
{
closed = 1;
nodes = (
"81 112 OFFCURVE",
"73 120 OFFCURVE",
"64 120 CURVE SMOOTH",
"55 120 OFFCURVE",
"47 112 OFFCURVE",
"47 103 CURVE SMOOTH",
"47 94 OFFCURVE",
"55 86 OFFCURVE",
"64 86 CURVE SMOOTH",
"73 86 OFFCURVE",
"81 94 OFFCURVE",
"81 103 CURVE SMOOTH"
);
},
{
closed = 1;
nodes = (
"81 21 OFFCURVE",
"73 29 OFFCURVE",
"64 29 CURVE SMOOTH",
"55 29 OFFCURVE",
"47 21 OFFCURVE",
"47 12 CURVE SMOOTH",
"47 3 OFFCURVE",
"55 -5 OFFCURVE",
"64 -5 CURVE SMOOTH",
"73 -5 OFFCURVE",
"81 3 OFFCURVE",
"81 12 CURVE SMOOTH"
);
}
);
width = 128;
}
);
unicode = 003A;
},
{
glyphname = semicolon;
layers = (
{
hints = (
{
place = "{45, 34}";
type = Stem;
},
{
place = "{64, 20}";
type = Stem;
},
{
horizontal = 1;
place = "{-45, 21}";
target = up;
type = BottomGhost;
},
{
horizontal = 1;
place = "{-4, 35}";
type = Stem;
},
{
horizontal = 1;
place = "{-4, 21}";
target = up;
type = BottomGhost;
},
{
horizontal = 1;
place = "{86, 34}";
type = Stem;
}
);
layerId = "F2A7ED21-5BE1-4BFF-B4F1-F4609BDA8B83";
paths = (
{
closed = 1;
nodes = (
"79 112 OFFCURVE",
"71 120 OFFCURVE",
"62 120 CURVE SMOOTH",
"53 120 OFFCURVE",
"45 112 OFFCURVE",
"45 103 CURVE SMOOTH",
"45 94 OFFCURVE",
"53 86 OFFCURVE",
"62 86 CURVE SMOOTH",
"71 86 OFFCURVE",
"79 94 OFFCURVE",
"79 103 CURVE SMOOTH"
);
},
{
closed = 1;
nodes = (
"55 -44 OFFCURVE",
"64 -39 OFFCURVE",
"73 -29 CURVE SMOOTH",
"80 -20 OFFCURVE",
"84 -9 OFFCURVE",
"84 2 CURVE SMOOTH",
"84 12 OFFCURVE",
"82 19 OFFCURVE",
"78 24 CURVE SMOOTH",
"73 29 OFFCURVE",
"68 31 OFFCURVE",
"62 31 CURVE SMOOTH",
"53 31 OFFCURVE",
"45 23 OFFCURVE",
"45 14 CURVE SMOOTH",
"45 2 OFFCURVE",
"51 -4 OFFCURVE",
"64 -4 CURVE",
"64 -16 OFFCURVE",
"57 -30 OFFCURVE",
"44 -32 CURVE",
"44 -32 OFFCURVE",
"44 -45 OFFCURVE",
"44 -45 CURVE"
);
}
);
width = 128;
}
);
unicode = 003B;
},
{
glyphname = exclam;
layers = (
{
hints = (
{
place = "{49, 30}";
type = Stem;
},
{
place = "{52, 21}";
type = Stem;
},
{
horizontal = 1;
place = "{-5, 30}";
type = Stem;
},
{
horizontal = 1;
place = "{46, 116}";
type = Stem;
},
{
horizontal = 1;
place = "{162, -20}";
target = down;
type = TopGhost;
}
);
layerId = "F2A7ED21-5BE1-4BFF-B4F1-F4609BDA8B83";
paths = (
{
closed = 1;
nodes = (
"71 46 OFFCURVE",
"76 162 OFFCURVE",
"76 162 CURVE",
"50 162 LINE",
"50 162 OFFCURVE",
"55 46 OFFCURVE",
"55 46 CURVE",
"55 46 OFFCURVE",
"71 46 OFFCURVE",
"71 46 CURVE"
);
},
{
closed = 1;
nodes = (
"72 -5 OFFCURVE",
"79 2 OFFCURVE",
"79 10 CURVE SMOOTH",
"79 20 OFFCURVE",
"74 25 OFFCURVE",
"64 25 CURVE SMOOTH",
"56 25 OFFCURVE",
"49 18 OFFCURVE",
"49 10 CURVE SMOOTH",
"49 3 OFFCURVE",
"57 -5 OFFCURVE",
"64 -5 CURVE SMOOTH"
);
}
);
width = 128;
}
);
unicode = 0021;
},
{
glyphname = question;
layers = (
{
hints = (
{
place = "{37, 30}";
type = Stem;
},
{
place = "{42, 19}";
type = Stem;
},
{
place = "{89, 21}";
type = Stem;
},
{
horizontal = 1;
place = "{-5, 30}";
type = Stem;
},
{
horizontal = 1;
place = "{150, 16}";
type = Stem;
}
);
layerId = "F2A7ED21-5BE1-4BFF-B4F1-F4609BDA8B83";
paths = (
{
closed = 1;
nodes = (
"61 62 OFFCURVE",
"64 71 OFFCURVE",
"71 78 CURVE SMOOTH",
"90 97 OFFCURVE",
"101 109 OFFCURVE",
"104 114 CURVE SMOOTH",
"108 120 OFFCURVE",
"110 126 OFFCURVE",
"110 132 CURVE SMOOTH",
"110 142 OFFCURVE",
"106 150 OFFCURVE",
"98 157 CURVE SMOOTH",
"90 163 OFFCURVE",
"78 166 OFFCURVE",
"62 166 CURVE SMOOTH",
"49 166 OFFCURVE",
"35 163 OFFCURVE",
"22 157 CURVE",
"22 157 OFFCURVE",
"22 138 OFFCURVE",
"22 138 CURVE",
"36 146 OFFCURVE",
"49 150 OFFCURVE",
"62 150 CURVE SMOOTH",
"71 150 OFFCURVE",
"78 148 OFFCURVE",
"83 145 CURVE",
"87 141 OFFCURVE",
"89 137 OFFCURVE",
"89 132 CURVE SMOOTH",
"89 124 OFFCURVE",
"82 113 OFFCURVE",
"68 98 CURVE SMOOTH",
"55 85 OFFCURVE",
"48 76 OFFCURVE",
"46 71 CURVE SMOOTH",
"43 66 OFFCURVE",
"42 59 OFFCURVE",
"42 50 CURVE",
"42 50 OFFCURVE",
"42 46 OFFCURVE",
"42 46 CURVE",
"42 46 OFFCURVE",
"61 46 OFFCURVE",
"61 46 CURVE",
"61 46 OFFCURVE",
"61 51 OFFCURVE",
"61 51 CURVE"
);
},
{
closed = 1;
nodes = (
"60 -5 OFFCURVE",
"67 2 OFFCURVE",
"67 10 CURVE SMOOTH",
"67 20 OFFCURVE",
"62 25 OFFCURVE",
"52 25 CURVE SMOOTH",
"44 25 OFFCURVE",
"37 18 OFFCURVE",
"37 10 CURVE SMOOTH",
"37 3 OFFCURVE",
"45 -5 OFFCURVE",
"52 -5 CURVE SMOOTH"
);
}
);
width = 128;
}
);
unicode = 003F;
},
{
glyphname = asterisk;
layers = (
{
hints = (
{
place = "{55, 17}";
type = Stem;
},
{
horizontal = 1;
place = "{69, 97}";
type = Stem;
},
{
horizontal = 1;
place = "{130, 36}";
type = Stem;
},
{
horizontal = 1;
place = "{150, 16}";
type = Stem;
}
);
layerId = "F2A7ED21-5BE1-4BFF-B4F1-F4609BDA8B83";
paths = (
{
closed = 1;
nodes = (
"79 117 OFFCURVE",
"111 133 OFFCURVE",
"111 133 CURVE",
"111 133 OFFCURVE",
"101 150 OFFCURVE",
"101 150 CURVE",
"101 150 OFFCURVE",
"71 130 OFFCURVE",
"71 130 CURVE",
"71 130 OFFCURVE",
"74 166 OFFCURVE",
"74 166 CURVE",
"74 166 OFFCURVE",
"54 166 OFFCURVE",
"54 166 CURVE",
"54 166 OFFCURVE",
"56 130 OFFCURVE",
"56 130 CURVE",
"56 130 OFFCURVE",
"27 150 OFFCURVE",
"27 150 CURVE",
"27 150 OFFCURVE",
"17 133 OFFCURVE",
"17 133 CURVE",
"17 133 OFFCURVE",
"49 117 OFFCURVE",
"49 117 CURVE",
"49 117 OFFCURVE",
"17 102 OFFCURVE",
"17 102 CURVE",
"17 102 OFFCURVE",
"27 85 OFFCURVE",
"27 85 CURVE",
"27 85 OFFCURVE",
"56 105 OFFCURVE",
"56 105 CURVE",
"56 105 OFFCURVE",
"54 69 OFFCURVE",
"54 69 CURVE",
"54 69 OFFCURVE",
"74 69 OFFCURVE",
"74 69 CURVE",
"74 69 OFFCURVE",
"71 105 OFFCURVE",
"71 105 CURVE",
"101 85 LINE",
"101 85 OFFCURVE",
"111 102 OFFCURVE",
"111 102 CURVE",
"111 102 OFFCURVE",
"79 117 OFFCURVE",
"79 117 CURVE"
);
}
);
width = 128;
}
);
unicode = 002A;
},
{
glyphname = numbersign;
layers = (
{
hints = (
{
place = "{7, 114}";
type = Stem;
},
{
horizontal = 1;
place = "{0, 58}";
type = Stem;
},
{
horizontal = 1;
place = "{44, 14}";
type = Stem;
},
{
horizontal = 1;
place = "{101, 15}";
type = Stem;
},
{
horizontal = 1;
place = "{101, 61}";
type = Stem;
}
);
layerId = "F2A7ED21-5BE1-4BFF-B4F1-F4609BDA8B83";
paths = (
{
closed = 1;
nodes = (
"24 44 OFFCURVE",
"12 0 OFFCURVE",
"12 0 CURVE",
"12 0 OFFCURVE",
"28 0 OFFCURVE",
"28 0 CURVE",
"28 0 OFFCURVE",
"39 44 OFFCURVE",
"39 44 CURVE",
"68 44 LINE",
"68 44 OFFCURVE",
"56 0 OFFCURVE",
"56 0 CURVE",
"56 0 OFFCURVE",
"72 0 OFFCURVE",
"72 0 CURVE",
"72 0 OFFCURVE",
"84 44 OFFCURVE",
"84 44 CURVE",
"84 44 OFFCURVE",
"121 44 OFFCURVE",
"121 44 CURVE",
"121 44 OFFCURVE",
"121 58 OFFCURVE",
"121 58 CURVE",
"121 58 OFFCURVE",
"88 58 OFFCURVE",
"88 58 CURVE",
"88 58 OFFCURVE",
"99 101 OFFCURVE",
"99 101 CURVE",
"99 101 OFFCURVE",
"121 101 OFFCURVE",
"121 101 CURVE",
"121 101 OFFCURVE",
"121 116 OFFCURVE",
"121 116 CURVE",
"121 116 OFFCURVE",
"103 116 OFFCURVE",
"103 116 CURVE",
"103 116 OFFCURVE",
"116 162 OFFCURVE",
"116 162 CURVE",
"116 162 OFFCURVE",
"100 162 OFFCURVE",
"100 162 CURVE",
"100 162 OFFCURVE",
"88 116 OFFCURVE",
"88 116 CURVE",
"88 116 OFFCURVE",
"58 116 OFFCURVE",
"58 116 CURVE",
"58 116 OFFCURVE",
"70 162 OFFCURVE",
"70 162 CURVE",
"70 162 OFFCURVE",
"55 162 OFFCURVE",
"55 162 CURVE",
"55 162 OFFCURVE",
"43 116 OFFCURVE",
"43 116 CURVE",
"43 116 OFFCURVE",
"7 116 OFFCURVE",
"7 116 CURVE",
"7 116 OFFCURVE",
"7 101 OFFCURVE",
"7 101 CURVE",
"7 101 OFFCURVE",
"39 101 OFFCURVE",
"39 101 CURVE",
"39 101 OFFCURVE",
"28 58 OFFCURVE",
"28 58 CURVE",
"28 58 OFFCURVE",
"7 58 OFFCURVE",
"7 58 CURVE",
"7 58 OFFCURVE",
"7 44 OFFCURVE",
"7 44 CURVE",
"7 44 OFFCURVE",
"24 44 OFFCURVE",
"24 44 CURVE"
);
},
{
closed = 1;
nodes = (
"84 101 OFFCURVE",
"72 58 OFFCURVE",
"72 58 CURVE",
"72 58 OFFCURVE",
"43 58 OFFCURVE",
"43 58 CURVE",
"54 101 LINE",
"54 101 OFFCURVE",
"84 101 OFFCURVE",
"84 101 CURVE"
);
}
);
width = 128;
}
);
unicode = 0023;
},
{
glyphname = slash;
layers = (
{
hints = (
{
horizontal = 1;
place = "{-5, 21}";
target = up;
type = BottomGhost;
},
{
horizontal = 1;
place = "{166, -20}";
target = down;
type = TopGhost;
},
{
place = "{3, 122}";
type = Stem;
}
);
layerId = "F2A7ED21-5BE1-4BFF-B4F1-F4609BDA8B83";
paths = (
{
closed = 1;
nodes = (
"106 166 LINE",
"106 166 OFFCURVE",
"3 -5 OFFCURVE",
"3 -5 CURVE",
"3 -5 OFFCURVE",
"22 -5 OFFCURVE",
"22 -5 CURVE",
"22 -5 OFFCURVE",
"125 166 OFFCURVE",
"125 166 CURVE"
);
}
);
width = 128;
}
);
unicode = 002F;
},
{
glyphname = backslash;
layers = (
{
hints = (
{
horizontal = 1;
place = "{-5, 21}";
target = up;
type = BottomGhost;
},
{
horizontal = 1;
place = "{166, -20}";
target = down;
type = TopGhost;
},
{
place = "{3, 122}";
type = Stem;
}
);
layerId = "F2A7ED21-5BE1-4BFF-B4F1-F4609BDA8B83";
paths = (
{
closed = 1;
nodes = (
"125 -5 OFFCURVE",
"22 166 OFFCURVE",
"22 166 CURVE",
"3 166 LINE",
"3 166 OFFCURVE",
"106 -5 OFFCURVE",
"106 -5 CURVE",
"106 -5 OFFCURVE",
"125 -5 OFFCURVE",
"125 -5 CURVE"
);
}
);
width = 128;
}
);
unicode = 005C;
},
{
glyphname = parenleft;
layers = (
{
hints = (
{
horizontal = 1;
place = "{155, 16}";
type = Stem;
},
{
place = "{20, 21}";
type = Stem;
}
);
layerId = "F2A7ED21-5BE1-4BFF-B4F1-F4609BDA8B83";
paths = (
{
closed = 1;
nodes = (
"20 13 OFFCURVE",
"57 -35 OFFCURVE",
"112 -39 CURVE",
"112 -39 OFFCURVE",
"112 -23 OFFCURVE",
"112 -23 CURVE",
"68 -19 OFFCURVE",
"41 25 OFFCURVE",
"41 66 CURVE SMOOTH",
"41 109 OFFCURVE",
"66 151 OFFCURVE",
"112 155 CURVE",
"112 155 OFFCURVE",
"112 171 OFFCURVE",
"112 171 CURVE",
"56 169 OFFCURVE",
"20 120 OFFCURVE",
"20 66 CURVE SMOOTH"
);
}
);
width = 128;
}
);
unicode = 0028;
},
{
glyphname = parenright;
layers = (
{
hints = (
{
horizontal = 1;
place = "{155, 16}";
type = Stem;
},
{
place = "{87, 21}";
type = Stem;
}
);
layerId = "F2A7ED21-5BE1-4BFF-B4F1-F4609BDA8B83";
paths = (
{
closed = 1;
nodes = (
"71 -35 OFFCURVE",
"108 13 OFFCURVE",
"108 66 CURVE SMOOTH",
"108 121 OFFCURVE",
"74 169 OFFCURVE",
"16 171 CURVE",
"16 171 OFFCURVE",
"16 155 OFFCURVE",
"16 155 CURVE",
"36 153 OFFCURVE",
"53 144 OFFCURVE",
"67 128 CURVE",
"80 111 OFFCURVE",
"87 90 OFFCURVE",
"87 66 CURVE SMOOTH",
"87 22 OFFCURVE",
"61 -17 OFFCURVE",
"16 -23 CURVE",
"16 -23 OFFCURVE",
"16 -39 OFFCURVE",
"16 -39 CURVE"
);
}
);
width = 128;
}
);
unicode = 0029;
},
{
glyphname = braceleft;
layers = (
{
hints = (
{
horizontal = 1;
place = "{-39, 16}";
type = Stem;
},
{
horizontal = 1;
place = "{58, 16}";
type = Stem;
},
{
horizontal = 1;
place = "{155, 16}";
type = Stem;
},
{
place = "{61, 19}";
type = Stem;
},
{
place = "{99, 16}";
type = Stem;
}
);
layerId = "F2A7ED21-5BE1-4BFF-B4F1-F4609BDA8B83";
paths = (
{
closed = 1;
nodes = (
"51 58 OFFCURVE",
"61 50 OFFCURVE",
"61 35 CURVE SMOOTH",
"61 30 OFFCURVE",
"61 28 OFFCURVE",
"60 27 CURVE",
"56 8 OFFCURVE",
"54 -4 OFFCURVE",
"54 -9 CURVE SMOOTH",
"54 -29 OFFCURVE",
"69 -39 OFFCURVE",
"99 -39 CURVE",
"99 -39 OFFCURVE",
"115 -39 OFFCURVE",
"115 -39 CURVE",
"115 -39 OFFCURVE",
"115 -23 OFFCURVE",
"115 -23 CURVE",
"99 -23 LINE SMOOTH",
"89 -23 OFFCURVE",
"82 -21 OFFCURVE",
"79 -18 CURVE SMOOTH",
"75 -15 OFFCURVE",
"73 -12 OFFCURVE",
"73 -7 CURVE",
"73 -5 OFFCURVE",
"74 0 OFFCURVE",
"76 7 CURVE SMOOTH",
"79 16 OFFCURVE",
"80 25 OFFCURVE",
"80 34 CURVE SMOOTH",
"80 47 OFFCURVE",
"72 58 OFFCURVE",
"57 66 CURVE",
"72 74 OFFCURVE",
"80 84 OFFCURVE",
"80 97 CURVE",
"80 97 OFFCURVE",
"78 114 OFFCURVE",
"78 114 CURVE",
"77 117 OFFCURVE",
"77 121 OFFCURVE",
"77 124 CURVE",
"76 127 OFFCURVE",
"74 133 OFFCURVE",
"74 137 CURVE",
"73 138 OFFCURVE",
"73 139 OFFCURVE",
"73 140 CURVE",
"73 144 OFFCURVE",
"75 148 OFFCURVE",
"79 151 CURVE SMOOTH",
"82 154 OFFCURVE",
"88 155 OFFCURVE",
"99 155 CURVE",
"99 155 OFFCURVE",
"115 155 OFFCURVE",
"115 155 CURVE",
"115 155 OFFCURVE",
"115 171 OFFCURVE",
"115 171 CURVE",
"115 171 OFFCURVE",
"99 171 OFFCURVE",
"99 171 CURVE",
"84 171 OFFCURVE",
"73 169 OFFCURVE",
"66 166 CURVE SMOOTH",
"58 162 OFFCURVE",
"54 154 OFFCURVE",
"54 141 CURVE SMOOTH",
"54 133 OFFCURVE",
"54 129 OFFCURVE",
"55 128 CURVE",
"59 111 OFFCURVE",
"61 101 OFFCURVE",
"61 98 CURVE SMOOTH",
"61 91 OFFCURVE",
"59 85 OFFCURVE",
"54 81 CURVE SMOOTH",
"49 76 OFFCURVE",
"42 74 OFFCURVE",
"31 74 CURVE",
"31 74 OFFCURVE",
"22 74 OFFCURVE",
"22 74 CURVE",
"22 74 OFFCURVE",
"22 58 OFFCURVE",
"22 58 CURVE",
"22 58 OFFCURVE",
"31 58 OFFCURVE",
"31 58 CURVE"
);
}
);
width = 128;
}
);
unicode = 007B;
},
{
glyphname = braceright;
layers = (
{
hints = (
{
horizontal = 1;
place = "{-39, 16}";
type = Stem;
},
{
horizontal = 1;
place = "{58, 16}";
type = Stem;
},
{
horizontal = 1;
place = "{155, 16}";
type = Stem;
},
{
place = "{55, 20}";
type = Stem;
},
{
place = "{97, 9}";
type = Stem;
}
);
layerId = "F2A7ED21-5BE1-4BFF-B4F1-F4609BDA8B83";
paths = (
{
closed = 1;
nodes = (
"13 -39 OFFCURVE",
"29 -39 OFFCURVE",
"29 -39 CURVE",
"60 -39 OFFCURVE",
"75 -29 OFFCURVE",
"75 -9 CURVE",
"75 -9 OFFCURVE",
"73 4 OFFCURVE",
"73 4 CURVE",
"69 21 OFFCURVE",
"67 31 OFFCURVE",
"67 34 CURVE SMOOTH",
"67 58 OFFCURVE",
"88 58 OFFCURVE",
"106 58 CURVE",
"106 58 OFFCURVE",
"106 74 OFFCURVE",
"106 74 CURVE",
"106 74 OFFCURVE",
"97 74 OFFCURVE",
"97 74 CURVE",
"87 74 OFFCURVE",
"80 76 OFFCURVE",
"75 81 CURVE SMOOTH",
"70 85 OFFCURVE",
"67 91 OFFCURVE",
"67 98 CURVE SMOOTH",
"67 102 OFFCURVE",
"67 104 OFFCURVE",
"68 105 CURVE",
"73 120 OFFCURVE",
"75 132 OFFCURVE",
"75 141 CURVE SMOOTH",
"75 170 OFFCURVE",
"51 171 OFFCURVE",
"29 171 CURVE",
"29 171 OFFCURVE",
"13 171 OFFCURVE",
"13 171 CURVE",
"13 171 OFFCURVE",
"13 155 OFFCURVE",
"13 155 CURVE",
"13 155 OFFCURVE",
"29 155 OFFCURVE",
"29 155 CURVE",
"46 155 OFFCURVE",
"55 150 OFFCURVE",
"55 140 CURVE SMOOTH",
"55 137 OFFCURVE",
"54 132 OFFCURVE",
"52 126 CURVE SMOOTH",
"49 117 OFFCURVE",
"48 108 OFFCURVE",
"48 98 CURVE SMOOTH",
"48 85 OFFCURVE",
"56 74 OFFCURVE",
"71 66 CURVE",
"56 58 OFFCURVE",
"48 47 OFFCURVE",
"48 34 CURVE",
"48 34 OFFCURVE",
"50 19 OFFCURVE",
"50 19 CURVE",
"50 19 OFFCURVE",
"55 -7 OFFCURVE",
"55 -7 CURVE",
"55 -11 OFFCURVE",
"53 -15 OFFCURVE",
"50 -18 CURVE SMOOTH",
"45 -21 OFFCURVE",
"38 -23 OFFCURVE",
"29 -23 CURVE",
"29 -23 OFFCURVE",
"13 -23 OFFCURVE",
"13 -23 CURVE",
"13 -23 OFFCURVE",
"13 -39 OFFCURVE",
"13 -39 CURVE"
);
}
);
width = 128;
}
);
unicode = 007D;
},
{
glyphname = bracketleft;
layers = (
{
hints = (
{
horizontal = 1;
place = "{-39, 16}";
type = Stem;
},
{
horizontal = 1;
place = "{155, 16}";
type = Stem;
},
{
place = "{37, 19}";
type = Stem;
}
);
layerId = "CA520923-60C5-486F-B3B7-3CF52C5755D9";
name = "Regular-Mono";
paths = (
{
closed = 1;
nodes = (
"37 -39 LINE",
"121 -39 LINE",
"121 -23 LINE",
"56 -23 LINE",
"56 155 LINE",
"121 155 LINE",
"121 171 LINE",
"37 171 LINE"
);
}
);
width = 128;
}
);
unicode = 005B;
},
{
glyphname = bracketright;
layers = (
{
hints = (
{
horizontal = 1;
place = "{-39, 16}";
type = Stem;
},
{
horizontal = 1;
place = "{155, 16}";
type = Stem;
},
{
place = "{72, 19}";
type = Stem;
}
);
layerId = "CA520923-60C5-486F-B3B7-3CF52C5755D9";
name = "Regular-Mono";
paths = (
{
closed = 1;
nodes = (
"72 155 LINE",
"72 -23 LINE",
"7 -23 LINE",
"7 -39 LINE",
"91 -39 LINE",
"91 171 LINE",
"7 171 LINE",
"7 155 LINE"
);
}
);
width = 128;
}
);
unicode = 005D;
},
{
glyphname = hyphen;
layers = (
{
hints = (
{
horizontal = 1;
place = "{57, 17}";
type = Stem;
},
{
place = "{24, 80}";
type = Stem;
}
);
layerId = "F2A7ED21-5BE1-4BFF-B4F1-F4609BDA8B83";
paths = (
{
closed = 1;
nodes = (
"104 57 OFFCURVE",
"104 74 OFFCURVE",
"104 74 CURVE",
"24 74 LINE",
"24 74 OFFCURVE",
"24 57 OFFCURVE",
"24 57 CURVE",
"24 57 OFFCURVE",
"104 57 OFFCURVE",
"104 57 CURVE"
);
}
);
width = 128;
}
);
unicode = 002D;
},
{
glyphname = underscore;
layers = (
{
hints = (
{
horizontal = 1;
place = "{-16, 16}";
type = Stem;
},
{
place = "{7, 114}";
type = Stem;
}
);
layerId = "F2A7ED21-5BE1-4BFF-B4F1-F4609BDA8B83";
paths = (
{
closed = 1;
nodes = (
"121 -16 OFFCURVE",
"121 0 OFFCURVE",
"121 0 CURVE",
"7 0 LINE",
"7 0 OFFCURVE",
"7 -16 OFFCURVE",
"7 -16 CURVE",
"7 -16 OFFCURVE",
"121 -16 OFFCURVE",
"121 -16 CURVE"
);
}
);
width = 128;
}
);
unicode = 005F;
},
{
glyphname = quotedbl;
layers = (
{
hints = (
{
horizontal = 1;
place = "{110, 58}";
type = Stem;
},
{
place = "{31, 19}";
type = Stem;
},
{
place = "{77, 19}";
type = Stem;
}
);
layerId = "F2A7ED21-5BE1-4BFF-B4F1-F4609BDA8B83";
paths = (
{
closed = 1;
nodes = (
"93 110 OFFCURVE",
"100 168 OFFCURVE",
"100 168 CURVE",
"74 168 LINE",
"74 168 OFFCURVE",
"80 110 OFFCURVE",
"80 110 CURVE",
"80 110 OFFCURVE",
"93 110 OFFCURVE",
"93 110 CURVE"
);
},
{
closed = 1;
nodes = (
"48 110 OFFCURVE",
"54 168 OFFCURVE",
"54 168 CURVE",
"28 168 LINE",
"28 168 OFFCURVE",
"35 110 OFFCURVE",
"35 110 CURVE",
"35 110 OFFCURVE",
"48 110 OFFCURVE",
"48 110 CURVE"
);
}
);
width = 128;
}
);
unicode = 0022;
},
{
glyphname = quotesingle;
layers = (
{
hints = (
{
horizontal = 1;
place = "{103, 65}";
type = Stem;
},
{
place = "{46, 36}";
type = Stem;
}
);
layerId = "F2A7ED21-5BE1-4BFF-B4F1-F4609BDA8B83";
paths = (
{
closed = 1;
nodes = (
"46 168 LINE",
"46 168 OFFCURVE",
"57 103 OFFCURVE",
"57 103 CURVE",
"57 103 OFFCURVE",
"71 103 OFFCURVE",
"71 103 CURVE",
"71 103 OFFCURVE",
"82 168 OFFCURVE",
"82 168 CURVE"
);
}
);
width = 128;
}
);
unicode = 0027;
},
{
glyphname = at;
layers = (
{
hints = (
{
horizontal = 1;
place = "{-5, 12}";
type = Stem;
},
{
horizontal = 1;
place = "{45, 16}";
type = Stem;
},
{
horizontal = 1;
place = "{112, 14}";
type = Stem;
},
{
horizontal = 1;
place = "{154, 12}";
type = Stem;
},
{
place = "{0, 13}";
type = Stem;
},
{
place = "{24, 17}";
type = Stem;
},
{
place = "{74, 16}";
type = Stem;
},
{
place = "{115, 13}";
type = Stem;
}
);
layerId = "F2A7ED21-5BE1-4BFF-B4F1-F4609BDA8B83";
paths = (
{
closed = 1;
nodes = (
"87 12 OFFCURVE",
"76 7 OFFCURVE",
"65 7 CURVE SMOOTH",
"28 7 OFFCURVE",
"13 50 OFFCURVE",
"13 81 CURVE SMOOTH",
"13 103 OFFCURVE",
"19 122 OFFCURVE",
"30 137 CURVE SMOOTH",
"39 148 OFFCURVE",
"51 154 OFFCURVE",
"64 154 CURVE SMOOTH",
"102 154 OFFCURVE",
"115 123 OFFCURVE",
"115 90 CURVE SMOOTH",
"115 80 OFFCURVE",
"113 72 OFFCURVE",
"109 66 CURVE SMOOTH",
"106 62 OFFCURVE",
"102 60 OFFCURVE",
"98 60 CURVE SMOOTH",
"95 60 OFFCURVE",
"92 62 OFFCURVE",
"91 67 CURVE",
"90 68 OFFCURVE",
"90 72 OFFCURVE",
"90 80 CURVE",
"90 80 OFFCURVE",
"90 126 OFFCURVE",
"90 126 CURVE",
"90 126 OFFCURVE",
"70 126 OFFCURVE",
"70 126 CURVE",
"41 126 OFFCURVE",
"24 108 OFFCURVE",
"24 79 CURVE SMOOTH",
"24 70 OFFCURVE",
"27 61 OFFCURVE",
"32 54 CURVE SMOOTH",
"37 48 OFFCURVE",
"43 45 OFFCURVE",
"49 45 CURVE SMOOTH",
"60 45 OFFCURVE",
"69 52 OFFCURVE",
"74 65 CURVE",
"76 53 OFFCURVE",
"83 45 OFFCURVE",
"95 45 CURVE SMOOTH",
"104 45 OFFCURVE",
"111 49 OFFCURVE",
"118 57 CURVE SMOOTH",
"125 64 OFFCURVE",
"128 75 OFFCURVE",
"128 91 CURVE SMOOTH",
"128 132 OFFCURVE",
"110 166 OFFCURVE",
"65 166 CURVE SMOOTH",
"17 166 OFFCURVE",
"0 122 OFFCURVE",
"0 81 CURVE SMOOTH",
"0 39 OFFCURVE",
"18 -5 OFFCURVE",
"66 -5 CURVE SMOOTH",
"77 -5 OFFCURVE",
"87 -2 OFFCURVE",
"96 4 CURVE",
"96 4 OFFCURVE",
"96 21 OFFCURVE",
"96 21 CURVE"
);
},
{
closed = 1;
nodes = (
"65 69 OFFCURVE",
"57 61 OFFCURVE",
"50 61 CURVE SMOOTH",
"43 61 OFFCURVE",
"41 73 OFFCURVE",
"41 78 CURVE SMOOTH",
"41 89 OFFCURVE",
"44 98 OFFCURVE",
"49 105 CURVE SMOOTH",
"53 110 OFFCURVE",
"60 112 OFFCURVE",
"70 112 CURVE",
"70 112 OFFCURVE",
"74 112 OFFCURVE",
"74 112 CURVE",
"74 112 OFFCURVE",
"74 84 OFFCURVE",
"74 84 CURVE"
);
}
);
width = 128;
}
);
unicode = 0040;
},
{
glyphname = ampersand;
layers = (
{
hints = (
{
place = "{0, 19}";
type = Stem;
},
{
place = "{12, 19}";
type = Stem;
},
{
place = "{67, 17}";
type = Stem;
},
{
place = "{94, 19}";
type = Stem;
},
{
horizontal = 1;
place = "{-5, 16}";
type = Stem;
},
{
horizontal = 1;
place = "{0, 21}";
target = up;
type = BottomGhost;
},
{
horizontal = 1;
place = "{152, 14}";
type = Stem;
}
);
layerId = "F2A7ED21-5BE1-4BFF-B4F1-F4609BDA8B83";
paths = (
{
closed = 1;
nodes = (
"110 43 OFFCURVE",
"113 58 OFFCURVE",
"113 77 CURVE",
"113 77 OFFCURVE",
"113 82 OFFCURVE",
"113 82 CURVE",
"113 82 OFFCURVE",
"94 82 OFFCURVE",
"94 82 CURVE",
"94 82 OFFCURVE",
"94 77 OFFCURVE",
"94 77 CURVE",
"94 63 OFFCURVE",
"93 53 OFFCURVE",
"91 46 CURVE",
"91 46 OFFCURVE",
"54 91 OFFCURVE",
"54 91 CURVE",
"74 106 OFFCURVE",
"84 121 OFFCURVE",
"84 137 CURVE SMOOTH",
"84 146 OFFCURVE",
"81 153 OFFCURVE",
"75 158 CURVE SMOOTH",
"68 163 OFFCURVE",
"60 166 OFFCURVE",
"51 166 CURVE SMOOTH",
"29 166 OFFCURVE",
"12 150 OFFCURVE",
"12 128 CURVE SMOOTH",
"12 119 OFFCURVE",
"18 106 OFFCURVE",
"29 91 CURVE",
"10 75 OFFCURVE",
"0 58 OFFCURVE",
"0 40 CURVE SMOOTH",
"0 12 OFFCURVE",
"24 -5 OFFCURVE",
"50 -5 CURVE SMOOTH",
"66 -5 OFFCURVE",
"80 1 OFFCURVE",
"92 14 CURVE",
"92 14 OFFCURVE",
"103 0 OFFCURVE",
"103 0 CURVE",
"103 0 OFFCURVE",
"128 0 OFFCURVE",
"128 0 CURVE",
"128 0 OFFCURVE",
"103 30 OFFCURVE",
"103 30 CURVE"
);
},
{
closed = 1;
nodes = (
"35 114 OFFCURVE",
"31 123 OFFCURVE",
"31 132 CURVE SMOOTH",
"31 137 OFFCURVE",
"33 142 OFFCURVE",
"36 147 CURVE SMOOTH",
"39 150 OFFCURVE",
"44 152 OFFCURVE",
"49 152 CURVE SMOOTH",
"60 152 OFFCURVE",
"67 147 OFFCURVE",
"67 135 CURVE SMOOTH",
"67 125 OFFCURVE",
"59 114 OFFCURVE",
"44 103 CURVE"
);
},
{
closed = 1;
nodes = (
"71 16 OFFCURVE",
"61 11 OFFCURVE",
"50 11 CURVE SMOOTH",
"41 11 OFFCURVE",
"34 14 OFFCURVE",
"28 20 CURVE SMOOTH",
"22 25 OFFCURVE",
"19 32 OFFCURVE",
"19 41 CURVE SMOOTH",
"19 54 OFFCURVE",
"26 67 OFFCURVE",
"39 78 CURVE",
"39 78 OFFCURVE",
"81 26 OFFCURVE",
"81 26 CURVE"
);
}
);
width = 128;
}
);
unicode = 0026;
},
{
glyphname = paragraph;
layers = (
{
hints = (
{
place = "{106, 17}";
type = Stem;
},
{
place = "{152, 17}";
type = Stem;
},
{
place = "{169, 13}";
type = Stem;
},
{
horizontal = 1;
place = "{-1, 21}";
target = up;
type = BottomGhost;
},
{
horizontal = 1;
place = "{167, 15}";
type = Stem;
}
);
layerId = "F2A7ED21-5BE1-4BFF-B4F1-F4609BDA8B83";
paths = (
{
closed = 1;
nodes = (
"76 108 OFFCURVE",
"81 103 OFFCURVE",
"87 98 CURVE SMOOTH",
"90 95 OFFCURVE",
"96 93 OFFCURVE",
"106 91 CURVE",
"106 91 OFFCURVE",
"106 -1 OFFCURVE",
"106 -1 CURVE",
"106 -1 OFFCURVE",
"123 -1 OFFCURVE",
"123 -1 CURVE",
"123 -1 OFFCURVE",
"123 167 OFFCURVE",
"123 167 CURVE",
"152 167 LINE",
"152 167 OFFCURVE",
"152 -1 OFFCURVE",
"152 -1 CURVE",
"152 -1 OFFCURVE",
"169 -1 OFFCURVE",
"169 -1 CURVE",
"169 -1 OFFCURVE",
"169 167 OFFCURVE",
"169 167 CURVE",
"169 167 OFFCURVE",
"182 167 OFFCURVE",
"182 167 CURVE",
"182 167 OFFCURVE",
"182 182 OFFCURVE",
"182 182 CURVE",
"182 182 OFFCURVE",
"111 182 OFFCURVE",
"111 182 CURVE",
"98 182 OFFCURVE",
"87 177 OFFCURVE",
"78 166 CURVE SMOOTH",
"71 159 OFFCURVE",
"68 149 OFFCURVE",
"68 136 CURVE SMOOTH",
"68 129 OFFCURVE",
"70 122 OFFCURVE",
"73 114 CURVE SMOOTH"
);
}
);
width = 256;
}
);
unicode = 00B6;
},
{
glyphname = section;
layers = (
{
hints = (
{
place = "{77, 24}";
type = Stem;
},
{
place = "{79, 25}";
type = Stem;
},
{
place = "{150, 25}";
type = Stem;
},
{
place = "{156, 24}";
type = Stem;
},
{
horizontal = 1;
place = "{-6, 18}";
type = Stem;
},
{
horizontal = 1;
place = "{169, 17}";
type = Stem;
}
);
layerId = "F2A7ED21-5BE1-4BFF-B4F1-F4609BDA8B83";
paths = (
{
closed = 1;
nodes = (
"169 61 OFFCURVE",
"174 66 OFFCURVE",
"175 70 CURVE",
"178 75 OFFCURVE",
"180 81 OFFCURVE",
"180 87 CURVE SMOOTH",
"180 93 OFFCURVE",
"178 98 OFFCURVE",
"173 103 CURVE SMOOTH",
"168 108 OFFCURVE",
"155 116 OFFCURVE",
"135 127 CURVE SMOOTH",
"118 136 OFFCURVE",
"109 142 OFFCURVE",
"107 145 CURVE SMOOTH",
"105 147 OFFCURVE",
"104 150 OFFCURVE",
"104 153 CURVE SMOOTH",
"104 156 OFFCURVE",
"106 160 OFFCURVE",
"109 163 CURVE SMOOTH",
"114 167 OFFCURVE",
"120 169 OFFCURVE",
"127 169 CURVE SMOOTH",
"141 169 OFFCURVE",
"149 165 OFFCURVE",
"151 150 CURVE",
"151 150 OFFCURVE",
"178 150 OFFCURVE",
"178 150 CURVE",
"171 179 OFFCURVE",
"154 186 OFFCURVE",
"126 186 CURVE SMOOTH",
"122 186 OFFCURVE",
"113 184 OFFCURVE",
"100 181 CURVE",
"95 179 OFFCURVE",
"90 175 OFFCURVE",
"86 170 CURVE SMOOTH",
"81 165 OFFCURVE",
"79 159 OFFCURVE",
"79 151 CURVE SMOOTH",
"79 145 OFFCURVE",
"80 141 OFFCURVE",
"83 138 CURVE",
"84 135 OFFCURVE",
"89 130 OFFCURVE",
"97 125 CURVE",
"84 115 OFFCURVE",
"77 105 OFFCURVE",
"77 94 CURVE SMOOTH",
"77 83 OFFCURVE",
"84 73 OFFCURVE",
"93 68 CURVE",
"94 67 OFFCURVE",
"104 62 OFFCURVE",
"123 52 CURVE SMOOTH",
"136 45 OFFCURVE",
"143 40 OFFCURVE",
"146 37 CURVE SMOOTH",
"149 34 OFFCURVE",
"150 31 OFFCURVE",
"150 27 CURVE SMOOTH",
"150 24 OFFCURVE",
"148 20 OFFCURVE",
"145 17 CURVE SMOOTH",
"140 14 OFFCURVE",
"134 12 OFFCURVE",
"128 12 CURVE SMOOTH",
"121 12 OFFCURVE",
"115 14 OFFCURVE",
"110 18 CURVE SMOOTH",
"107 21 OFFCURVE",
"105 27 OFFCURVE",
"104 35 CURVE",
"104 35 OFFCURVE",
"77 35 OFFCURVE",
"77 35 CURVE",
"83 5 OFFCURVE",
"99 -6 OFFCURVE",
"130 -6 CURVE SMOOTH",
"151 -6 OFFCURVE",
"175 3 OFFCURVE",
"175 28 CURVE",
"175 30 OFFCURVE",
"174 34 OFFCURVE",
"173 41 CURVE",
"171 46 OFFCURVE",
"167 51 OFFCURVE",
"160 56 CURVE"
);
},
{
closed = 1;
nodes = (
"134 104 OFFCURVE",
"147 96 OFFCURVE",
"152 91 CURVE SMOOTH",
"155 88 OFFCURVE",
"156 85 OFFCURVE",
"156 82 CURVE SMOOTH",
"156 76 OFFCURVE",
"151 71 OFFCURVE",
"141 67 CURVE",
"120 78 OFFCURVE",
"108 85 OFFCURVE",
"105 88 CURVE SMOOTH",
"102 91 OFFCURVE",
"101 93 OFFCURVE",
"101 96 CURVE SMOOTH",
"101 102 OFFCURVE",
"105 108 OFFCURVE",
"114 115 CURVE"
);
}
);
width = 256;
}
);
unicode = 00A7;
},
{
glyphname = copyright;
layers = (
{
hints = (
{
horizontal = 1;
place = "{-5, 13}";
type = Stem;
},
{
horizontal = 1;
place = "{26, 14}";
type = Stem;
},
{
horizontal = 1;
place = "{120, 16}";
type = Stem;
},
{
horizontal = 1;
place = "{154, 12}";
type = Stem;
},
{
place = "{0, 13}";
type = Stem;
},
{
place = "{24, 17}";
type = Stem;
},
{
place = "{115, 13}";
type = Stem;
}
);
layerId = "F2A7ED21-5BE1-4BFF-B4F1-F4609BDA8B83";
paths = (
{
closed = 1;
nodes = (
"128 120 OFFCURVE",
"110 166 OFFCURVE",
"64 166 CURVE SMOOTH",
"17 166 OFFCURVE",
"0 122 OFFCURVE",
"0 81 CURVE SMOOTH",
"0 41 OFFCURVE",
"17 -5 OFFCURVE",
"64 -5 CURVE SMOOTH",
"111 -5 OFFCURVE",
"128 41 OFFCURVE",
"128 81 CURVE SMOOTH"
);
},
{
closed = 1;
nodes = (
"51 8 OFFCURVE",
"39 14 OFFCURVE",
"30 25 CURVE SMOOTH",
"19 40 OFFCURVE",
"13 59 OFFCURVE",
"13 81 CURVE SMOOTH",
"13 112 OFFCURVE",
"27 154 OFFCURVE",
"64 154 CURVE SMOOTH",
"103 154 OFFCURVE",
"115 114 OFFCURVE",
"115 81 CURVE SMOOTH",
"115 50 OFFCURVE",
"101 8 OFFCURVE",
"64 8 CURVE SMOOTH"
);
},
{
closed = 1;
nodes = (
"81 42 OFFCURVE",
"74 40 OFFCURVE",
"73 40 CURVE",
"64 40 OFFCURVE",
"57 44 OFFCURVE",
"51 51 CURVE SMOOTH",
"44 58 OFFCURVE",
"41 68 OFFCURVE",
"41 81 CURVE SMOOTH",
"41 94 OFFCURVE",
"44 103 OFFCURVE",
"50 110 CURVE SMOOTH",
"55 117 OFFCURVE",
"61 120 OFFCURVE",
"70 120 CURVE SMOOTH",
"81 120 OFFCURVE",
"88 119 OFFCURVE",
"93 116 CURVE",
"93 116 OFFCURVE",
"93 132 OFFCURVE",
"93 132 CURVE",
"88 135 OFFCURVE",
"80 136 OFFCURVE",
"69 136 CURVE SMOOTH",
"38 136 OFFCURVE",
"24 109 OFFCURVE",
"24 81 CURVE SMOOTH",
"24 54 OFFCURVE",
"42 26 OFFCURVE",
"71 26 CURVE SMOOTH",
"80 26 OFFCURVE",
"87 27 OFFCURVE",
"93 29 CURVE",
"93 29 OFFCURVE",
"93 45 OFFCURVE",
"93 45 CURVE"
);
}
);
width = 128;
}
);
unicode = 00A9;
},
{
glyphname = degree;
layers = (
{
hints = (
{
horizontal = 1;
place = "{132, 14}";
type = Stem;
},
{
horizontal = 1;
place = "{185, 14}";
type = Stem;
},
{
place = "{29, 14}";
type = Stem;
},
{
place = "{82, 14}";
type = Stem;
}
);
layerId = "F2A7ED21-5BE1-4BFF-B4F1-F4609BDA8B83";
paths = (
{
closed = 1;
nodes = (
"32 182 OFFCURVE",
"29 174 OFFCURVE",
"29 165 CURVE SMOOTH",
"29 156 OFFCURVE",
"32 149 OFFCURVE",
"39 142 CURVE SMOOTH",
"45 135 OFFCURVE",
"53 132 OFFCURVE",
"62 132 CURVE SMOOTH",
"71 132 OFFCURVE",
"79 135 OFFCURVE",
"86 142 CURVE SMOOTH",
"93 148 OFFCURVE",
"96 156 OFFCURVE",
"96 165 CURVE SMOOTH",
"96 184 OFFCURVE",
"81 199 OFFCURVE",
"62 199 CURVE SMOOTH",
"53 199 OFFCURVE",
"45 196 OFFCURVE",
"39 189 CURVE SMOOTH"
);
},
{
closed = 1;
nodes = (
"67 185 OFFCURVE",
"72 183 OFFCURVE",
"77 180 CURVE",
"80 175 OFFCURVE",
"82 170 OFFCURVE",
"82 165 CURVE SMOOTH",
"82 154 OFFCURVE",
"73 146 OFFCURVE",
"62 146 CURVE SMOOTH",
"57 146 OFFCURVE",
"53 148 OFFCURVE",
"49 152 CURVE SMOOTH",
"45 155 OFFCURVE",
"43 159 OFFCURVE",
"43 165 CURVE SMOOTH",
"43 176 OFFCURVE",
"51 185 OFFCURVE",
"62 185 CURVE SMOOTH"
);
}
);
width = 256;
}
);
unicode = 00B0;
},
{
glyphname = bar;
layers = (
{
hints = (
{
horizontal = 1;
place = "{-5, 21}";
target = up;
type = BottomGhost;
},
{
horizontal = 1;
place = "{166, -20}";
target = down;
type = TopGhost;
},
{
place = "{56, 16}";
type = Stem;
}
);
layerId = "F2A7ED21-5BE1-4BFF-B4F1-F4609BDA8B83";
paths = (
{
closed = 1;
nodes = (
"72 -5 OFFCURVE",
"72 166 OFFCURVE",
"72 166 CURVE",
"56 166 LINE",
"56 166 OFFCURVE",
"56 -5 OFFCURVE",
"56 -5 CURVE",
"56 -5 OFFCURVE",
"72 -5 OFFCURVE",
"72 -5 CURVE"
);
}
);
width = 128;
}
);
unicode = 007C;
},
{
glyphname = cent;
layers = (
{
hints = (
{
place = "{65, 22}";
type = Stem;
},
{
place = "{160, 23}";
type = Stem;
},
{
horizontal = 1;
place = "{-3, 18}";
type = Stem;
},
{
horizontal = 1;
place = "{1, 21}";
target = up;
type = BottomGhost;
},
{
horizontal = 1;
place = "{120, 17}";
type = Stem;
}
);
layerId = "F2A7ED21-5BE1-4BFF-B4F1-F4609BDA8B83";
paths = (
{
closed = 1;
nodes = (
"119 -2 OFFCURVE",
"127 -3 OFFCURVE",
"136 -3 CURVE SMOOTH",
"159 -3 OFFCURVE",
"177 15 OFFCURVE",
"185 35 CURVE",
"185 35 OFFCURVE",
"167 43 OFFCURVE",
"167 43 CURVE",
"164 34 OFFCURVE",
"159 27 OFFCURVE",
"153 21 CURVE SMOOTH",
"148 17 OFFCURVE",
"142 15 OFFCURVE",
"134 15 CURVE",
"132 15 LINE",
"131 15 OFFCURVE",
"130 15 OFFCURVE",
"129 16 CURVE",
"128 16 OFFCURVE",
"126 16 OFFCURVE",
"124 17 CURVE",
"122 17 OFFCURVE",
"120 17 OFFCURVE",
"118 17 CURVE",
"118 17 OFFCURVE",
"152 114 OFFCURVE",
"152 114 CURVE",
"157 111 OFFCURVE",
"159 105 OFFCURVE",
"160 97 CURVE",
"160 97 OFFCURVE",
"183 97 OFFCURVE",
"183 97 CURVE",
"180 112 OFFCURVE",
"172 123 OFFCURVE",
"158 132 CURVE",
"158 132 OFFCURVE",
"165 153 OFFCURVE",
"165 153 CURVE",
"165 153 OFFCURVE",
"150 158 OFFCURVE",
"150 158 CURVE",
"150 158 OFFCURVE",
"142 137 OFFCURVE",
"142 137 CURVE",
"121 139 OFFCURVE",
"102 133 OFFCURVE",
"87 120 CURVE SMOOTH",
"72 106 OFFCURVE",
"65 88 OFFCURVE",
"65 66 CURVE SMOOTH",
"65 40 OFFCURVE",
"78 23 OFFCURVE",
"97 7 CURVE",
"97 7 OFFCURVE",
"89 -16 OFFCURVE",
"89 -16 CURVE",
"89 -16 OFFCURVE",
"104 -21 OFFCURVE",
"104 -21 CURVE",
"104 -21 OFFCURVE",
"112 1 OFFCURVE",
"112 1 CURVE"
);
},
{
closed = 1;
nodes = (
"91 39 OFFCURVE",
"87 48 OFFCURVE",
"87 67 CURVE SMOOTH",
"87 84 OFFCURVE",
"92 97 OFFCURVE",
"102 107 CURVE SMOOTH",
"111 116 OFFCURVE",
"123 121 OFFCURVE",
"137 120 CURVE",
"137 120 OFFCURVE",
"103 25 OFFCURVE",
"103 25 CURVE"
);
}
);
width = 256;
}
);
unicode = 00A2;
},
{
glyphname = dollar;
layers = (
{
hints = (
{
horizontal = 1;
place = "{0, 16}";
type = Stem;
},
{
horizontal = 1;
place = "{145, 16}";
type = Stem;
},
{
place = "{18, 21}";
type = Stem;
},
{
place = "{60, 15}";
type = Stem;
},
{
place = "{94, 21}";
type = Stem;
}
);
layerId = "F2A7ED21-5BE1-4BFF-B4F1-F4609BDA8B83";
paths = (
{
closed = 1;
nodes = (
"29 3 OFFCURVE",
"43 0 OFFCURVE",
"60 0 CURVE",
"60 0 OFFCURVE",
"60 -16 OFFCURVE",
"60 -16 CURVE",
"60 -16 OFFCURVE",
"75 -16 OFFCURVE",
"75 -16 CURVE",
"75 -16 OFFCURVE",
"75 2 OFFCURVE",
"75 2 CURVE",
"88 4 OFFCURVE",
"98 9 OFFCURVE",
"105 17 CURVE SMOOTH",
"112 24 OFFCURVE",
"115 32 OFFCURVE",
"115 43 CURVE SMOOTH",
"115 50 OFFCURVE",
"113 57 OFFCURVE",
"109 63 CURVE SMOOTH",
"104 69 OFFCURVE",
"93 77 OFFCURVE",
"75 88 CURVE",
"75 88 OFFCURVE",
"75 145 OFFCURVE",
"75 145 CURVE",
"76 145 OFFCURVE",
"86 143 OFFCURVE",
"104 138 CURVE",
"104 138 OFFCURVE",
"104 156 OFFCURVE",
"104 156 CURVE",
"87 159 OFFCURVE",
"78 161 OFFCURVE",
"75 161 CURVE",
"75 161 OFFCURVE",
"75 178 OFFCURVE",
"75 178 CURVE",
"75 178 OFFCURVE",
"60 178 OFFCURVE",
"60 178 CURVE",
"60 178 OFFCURVE",
"60 161 OFFCURVE",
"60 161 CURVE",
"47 160 OFFCURVE",
"36 156 OFFCURVE",
"29 148 CURVE SMOOTH",
"22 139 OFFCURVE",
"18 130 OFFCURVE",
"18 122 CURVE SMOOTH",
"18 114 OFFCURVE",
"21 106 OFFCURVE",
"27 99 CURVE SMOOTH",
"32 92 OFFCURVE",
"43 84 OFFCURVE",
"60 74 CURVE",
"60 74 OFFCURVE",
"60 16 OFFCURVE",
"60 16 CURVE",
"45 17 OFFCURVE",
"30 22 OFFCURVE",
"17 29 CURVE",
"17 29 OFFCURVE",
"17 9 OFFCURVE",
"17 9 CURVE"
);
},
{
closed = 1;
nodes = (
"39 127 OFFCURVE",
"41 132 OFFCURVE",
"44 137 CURVE SMOOTH",
"47 140 OFFCURVE",
"53 143 OFFCURVE",
"60 145 CURVE",
"60 145 OFFCURVE",
"60 97 OFFCURVE",
"60 97 CURVE",
"46 106 OFFCURVE",
"39 115 OFFCURVE",
"39 124 CURVE SMOOTH"
);
},
{
closed = 1;
nodes = (
"88 57 OFFCURVE",
"94 49 OFFCURVE",
"94 41 CURVE SMOOTH",
"94 32 OFFCURVE",
"88 24 OFFCURVE",
"75 18 CURVE",
"75 18 OFFCURVE",
"75 66 OFFCURVE",
"75 66 CURVE"
);
}
);
width = 128;
}
);
unicode = 0024;
},
{
glyphname = sterling;
layers = (
{
hints = (
{
place = "{47, 18}";
type = Stem;
},
{
place = "{81, 22}";
type = Stem;
},
{
place = "{106, 21}";
type = Stem;
},
{
place = "{165, 23}";
type = Stem;
},
{
horizontal = 1;
place = "{-3, 15}";
type = Stem;
},
{
horizontal = 1;
place = "{-2, 19}";
type = Stem;
},
{
horizontal = 1;
place = "{34, 17}";
type = Stem;
},
{
horizontal = 1;
place = "{83, 17}";
type = Stem;
},
{
horizontal = 1;
place = "{166, 18}";
type = Stem;
}
);
layerId = "F2A7ED21-5BE1-4BFF-B4F1-F4609BDA8B83";
paths = (
{
closed = 1;
nodes = (
"61 0 OFFCURVE",
"69 -3 OFFCURVE",
"79 -3 CURVE SMOOTH",
"86 -3 OFFCURVE",
"92 -2 OFFCURVE",
"97 1 CURVE SMOOTH",
"102 3 OFFCURVE",
"108 8 OFFCURVE",
"115 15 CURVE",
"132 6 OFFCURVE",
"141 2 OFFCURVE",
"142 1 CURVE",
"147 -1 OFFCURVE",
"153 -2 OFFCURVE",
"158 -2 CURVE SMOOTH",
"176 -2 OFFCURVE",
"192 10 OFFCURVE",
"206 33 CURVE",
"206 33 OFFCURVE",
"188 41 OFFCURVE",
"188 41 CURVE",
"179 25 OFFCURVE",
"168 17 OFFCURVE",
"157 17 CURVE SMOOTH",
"148 17 OFFCURVE",
"137 21 OFFCURVE",
"124 30 CURVE",
"126 35 OFFCURVE",
"127 41 OFFCURVE",
"127 47 CURVE SMOOTH",
"127 52 OFFCURVE",
"124 64 OFFCURVE",
"118 83 CURVE",
"118 83 OFFCURVE",
"177 83 OFFCURVE",
"177 83 CURVE",
"177 83 OFFCURVE",
"177 100 OFFCURVE",
"177 100 CURVE",
"177 100 OFFCURVE",
"113 100 OFFCURVE",
"113 100 CURVE",
"106 115 OFFCURVE",
"103 128 OFFCURVE",
"103 138 CURVE SMOOTH",
"103 146 OFFCURVE",
"106 153 OFFCURVE",
"112 158 CURVE SMOOTH",
"117 163 OFFCURVE",
"125 166 OFFCURVE",
"135 166 CURVE SMOOTH",
"145 166 OFFCURVE",
"152 164 OFFCURVE",
"157 159 CURVE SMOOTH",
"161 156 OFFCURVE",
"164 149 OFFCURVE",
"165 139 CURVE",
"165 139 OFFCURVE",
"188 139 OFFCURVE",
"188 139 CURVE",
"184 169 OFFCURVE",
"166 184 OFFCURVE",
"135 184 CURVE SMOOTH",
"108 184 OFFCURVE",
"81 171 OFFCURVE",
"81 141 CURVE SMOOTH",
"81 133 OFFCURVE",
"84 119 OFFCURVE",
"91 100 CURVE",
"91 100 OFFCURVE",
"50 100 OFFCURVE",
"50 100 CURVE",
"50 100 OFFCURVE",
"50 83 OFFCURVE",
"50 83 CURVE",
"50 83 OFFCURVE",
"96 83 OFFCURVE",
"96 83 CURVE",
"103 67 OFFCURVE",
"106 53 OFFCURVE",
"106 42 CURVE",
"95 48 OFFCURVE",
"86 51 OFFCURVE",
"78 51 CURVE SMOOTH",
"69 51 OFFCURVE",
"61 48 OFFCURVE",
"56 43 CURVE SMOOTH",
"50 38 OFFCURVE",
"47 32 OFFCURVE",
"47 23 CURVE SMOOTH",
"47 16 OFFCURVE",
"50 10 OFFCURVE",
"56 5 CURVE SMOOTH"
);
},
{
closed = 1;
nodes = (
"65 30 OFFCURVE",
"69 34 OFFCURVE",
"78 34 CURVE SMOOTH",
"85 34 OFFCURVE",
"92 31 OFFCURVE",
"101 25 CURVE",
"95 19 OFFCURVE",
"88 12 OFFCURVE",
"78 12 CURVE SMOOTH",
"74 12 OFFCURVE",
"71 13 OFFCURVE",
"69 15 CURVE SMOOTH",
"66 17 OFFCURVE",
"65 20 OFFCURVE",
"65 23 CURVE SMOOTH"
);
}
);
width = 256;
}
);
unicode = 00A3;
},
{
glyphname = yen;
layers = (
{
hints = (
{
place = "{54, 20}";
type = Stem;
},
{
place = "{74, 33}";
type = Stem;
},
{
horizontal = 1;
place = "{0, 40}";
type = Stem;
},
{
horizontal = 1;
place = "{26, 14}";
type = Stem;
},
{
horizontal = 1;
place = "{61, 14}";
type = Stem;
},
{
horizontal = 1;
place = "{162, -20}";
target = down;
type = TopGhost;
}
);
layerId = "F2A7ED21-5BE1-4BFF-B4F1-F4609BDA8B83";
paths = (
{
closed = 1;
nodes = (
"20 75 OFFCURVE",
"20 61 OFFCURVE",
"20 61 CURVE",
"20 61 OFFCURVE",
"54 61 OFFCURVE",
"54 61 CURVE",
"54 61 OFFCURVE",
"54 40 OFFCURVE",
"54 40 CURVE",
"54 40 OFFCURVE",
"20 40 OFFCURVE",
"20 40 CURVE",
"20 40 OFFCURVE",
"20 26 OFFCURVE",
"20 26 CURVE",
"20 26 OFFCURVE",
"54 26 OFFCURVE",
"54 26 CURVE",
"54 26 OFFCURVE",
"54 0 OFFCURVE",
"54 0 CURVE",
"54 0 OFFCURVE",
"74 0 OFFCURVE",
"74 0 CURVE",
"74 0 OFFCURVE",
"74 26 OFFCURVE",
"74 26 CURVE",
"107 26 LINE",
"107 26 OFFCURVE",
"107 40 OFFCURVE",
"107 40 CURVE",
"107 40 OFFCURVE",
"74 40 OFFCURVE",
"74 40 CURVE",
"74 40 OFFCURVE",
"74 61 OFFCURVE",
"74 61 CURVE",
"74 61 OFFCURVE",
"107 61 OFFCURVE",
"107 61 CURVE",
"107 61 OFFCURVE",
"107 75 OFFCURVE",
"107 75 CURVE",
"107 75 OFFCURVE",
"74 75 OFFCURVE",
"74 75 CURVE",
"74 75 OFFCURVE",
"123 162 OFFCURVE",
"123 162 CURVE",
"123 162 OFFCURVE",
"103 162 OFFCURVE",
"103 162 CURVE",
"103 162 OFFCURVE",
"65 95 OFFCURVE",
"65 95 CURVE",
"65 95 OFFCURVE",
"27 162 OFFCURVE",
"27 162 CURVE",
"27 162 OFFCURVE",
"5 162 OFFCURVE",
"5 162 CURVE",
"5 162 OFFCURVE",
"53 75 OFFCURVE",
"53 75 CURVE",
"53 75 OFFCURVE",
"20 75 OFFCURVE",
"20 75 CURVE"
);
}
);
width = 128;
}
);
unicode = 00A5;
},
{
glyphname = plus;
layers = (
{
hints = (
{
place = "{56, 16}";
type = Stem;
},
{
place = "{72, 49}";
type = Stem;
},
{
horizontal = 1;
place = "{0, 65}";
type = Stem;
},
{
horizontal = 1;
place = "{48, 17}";
type = Stem;
},
{
horizontal = 1;
place = "{65, 48}";
type = Stem;
}
);
layerId = "F2A7ED21-5BE1-4BFF-B4F1-F4609BDA8B83";
paths = (
{
closed = 1;
nodes = (
"56 48 OFFCURVE",
"56 0 OFFCURVE",
"56 0 CURVE",
"56 0 OFFCURVE",
"72 0 OFFCURVE",
"72 0 CURVE",
"72 0 OFFCURVE",
"72 48 OFFCURVE",
"72 48 CURVE",
"121 48 LINE",
"121 48 OFFCURVE",
"121 65 OFFCURVE",
"121 65 CURVE",
"121 65 OFFCURVE",
"72 65 OFFCURVE",
"72 65 CURVE",
"72 65 OFFCURVE",
"72 113 OFFCURVE",
"72 113 CURVE",
"72 113 OFFCURVE",
"56 113 OFFCURVE",
"56 113 CURVE",
"56 113 OFFCURVE",
"56 65 OFFCURVE",
"56 65 CURVE",
"56 65 OFFCURVE",
"7 65 OFFCURVE",
"7 65 CURVE",
"7 65 OFFCURVE",
"7 48 OFFCURVE",
"7 48 CURVE",
"7 48 OFFCURVE",
"56 48 OFFCURVE",
"56 48 CURVE"
);
}
);
width = 128;
}
);
unicode = 002B;
},
{
glyphname = multiply;
layers = (
{
hints = (
{
horizontal = 1;
place = "{11, 93}";
type = Stem;
},
{
place = "{7, 93}";
type = Stem;
}
);
layerId = "F2A7ED21-5BE1-4BFF-B4F1-F4609BDA8B83";
paths = (
{
closed = 1;
nodes = (
"88 12 LINE",
"88 12 OFFCURVE",
"99 23 OFFCURVE",
"99 23 CURVE",
"99 23 OFFCURVE",
"65 57 OFFCURVE",
"65 57 CURVE",
"65 57 OFFCURVE",
"100 92 OFFCURVE",
"100 92 CURVE",
"100 92 OFFCURVE",
"88 104 OFFCURVE",
"88 104 CURVE",
"88 104 OFFCURVE",
"53 69 OFFCURVE",
"53 69 CURVE",
"53 69 OFFCURVE",
"19 103 OFFCURVE",
"19 103 CURVE",
"19 103 OFFCURVE",
"8 92 OFFCURVE",
"8 92 CURVE",
"8 92 OFFCURVE",
"42 58 OFFCURVE",
"42 58 CURVE",
"42 58 OFFCURVE",
"7 23 OFFCURVE",
"7 23 CURVE",
"7 23 OFFCURVE",
"19 11 OFFCURVE",
"19 11 CURVE",
"19 11 OFFCURVE",
"54 46 OFFCURVE",
"54 46 CURVE"
);
}
);
width = 107;
}
);
unicode = 00D7;
},
{
glyphname = divide;
layers = (
{
hints = (
{
place = "{7, 126}";
type = Stem;
},
{
place = "{57, 27}";
type = Stem;
},
{
horizontal = 1;
place = "{48, 16}";
type = Stem;
},
{
horizontal = 1;
place = "{85, 27}";
type = Stem;
}
);
layerId = "F2A7ED21-5BE1-4BFF-B4F1-F4609BDA8B83";
paths = (
{
closed = 1;
nodes = (
"63 112 OFFCURVE",
"57 106 OFFCURVE",
"57 98 CURVE",
"57 96 OFFCURVE",
"58 93 OFFCURVE",
"61 89 CURVE SMOOTH",
"63 86 OFFCURVE",
"68 85 OFFCURVE",
"71 85 CURVE SMOOTH",
"76 85 OFFCURVE",
"84 93 OFFCURVE",
"84 98 CURVE SMOOTH",
"84 102 OFFCURVE",
"81 106 OFFCURVE",
"79 108 CURVE SMOOTH",
"77 111 OFFCURVE",
"74 112 OFFCURVE",
"71 112 CURVE SMOOTH"
);
},
{
closed = 1;
nodes = (
"7 64 LINE",
"7 64 OFFCURVE",
"7 48 OFFCURVE",
"7 48 CURVE",
"7 48 OFFCURVE",
"133 48 OFFCURVE",
"133 48 CURVE",
"133 48 OFFCURVE",
"133 64 OFFCURVE",
"133 64 CURVE"
);
},
{
closed = 1;
nodes = (
"68 28 OFFCURVE",
"65 26 OFFCURVE",
"61 23 CURVE SMOOTH",
"59 21 OFFCURVE",
"57 19 OFFCURVE",
"57 15 CURVE SMOOTH",
"57 8 OFFCURVE",
"64 2 OFFCURVE",
"71 2 CURVE SMOOTH",
"74 2 OFFCURVE",
"77 3 OFFCURVE",
"79 6 CURVE SMOOTH",
"81 8 OFFCURVE",
"84 11 OFFCURVE",
"84 15 CURVE SMOOTH",
"84 19 OFFCURVE",
"81 21 OFFCURVE",
"79 23 CURVE SMOOTH",
"77 26 OFFCURVE",
"73 28 OFFCURVE",
"71 28 CURVE"
);
}
);
width = 140;
}
);
unicode = 00F7;
},
{
glyphname = equal;
layers = (
{
hints = (
{
horizontal = 1;
place = "{30, 16}";
type = Stem;
},
{
horizontal = 1;
place = "{66, 16}";
type = Stem;
},
{
place = "{7, 114}";
type = Stem;
}
);
layerId = "F2A7ED21-5BE1-4BFF-B4F1-F4609BDA8B83";
paths = (
{
closed = 1;
nodes = (
"7 66 OFFCURVE",
"121 66 OFFCURVE",
"121 66 CURVE",
"121 66 OFFCURVE",
"121 82 OFFCURVE",
"121 82 CURVE",
"7 82 LINE",
"7 82 OFFCURVE",
"7 66 OFFCURVE",
"7 66 CURVE"
);
},
{
closed = 1;
nodes = (
"7 46 LINE",
"7 46 OFFCURVE",
"7 30 OFFCURVE",
"7 30 CURVE",
"7 30 OFFCURVE",
"121 30 OFFCURVE",
"121 30 CURVE",
"121 30 OFFCURVE",
"121 46 OFFCURVE",
"121 46 CURVE"
);
}
);
width = 128;
}
);
unicode = 003D;
},
{
glyphname = plusminus;
layers = (
{
hints = (
{
place = "{54, 20}";
type = Stem;
},
{
horizontal = 1;
place = "{3, 19}";
type = Stem;
},
{
horizontal = 1;
place = "{100, 19}";
type = Stem;
},
{
horizontal = 1;
place = "{119, 65}";
type = Stem;
}
);
layerId = "F2A7ED21-5BE1-4BFF-B4F1-F4609BDA8B83";
paths = (
{
closed = 1;
nodes = (
"7 -10 LINE",
"7 -10 OFFCURVE",
"7 -26 OFFCURVE",
"7 -26 CURVE",
"7 -26 OFFCURVE",
"121 -26 OFFCURVE",
"121 -26 CURVE",
"121 -26 OFFCURVE",
"121 -10 OFFCURVE",
"121 -10 CURVE"
);
},
{
closed = 1;
nodes = (
"56 58 OFFCURVE",
"56 10 OFFCURVE",
"56 10 CURVE",
"56 10 OFFCURVE",
"72 10 OFFCURVE",
"72 10 CURVE",
"72 10 OFFCURVE",
"72 58 OFFCURVE",
"72 58 CURVE",
"121 58 LINE",
"121 58 OFFCURVE",
"121 75 OFFCURVE",
"121 75 CURVE",
"121 75 OFFCURVE",
"72 75 OFFCURVE",
"72 75 CURVE",
"72 75 OFFCURVE",
"72 123 OFFCURVE",
"72 123 CURVE",
"72 123 OFFCURVE",
"56 123 OFFCURVE",
"56 123 CURVE",
"56 123 OFFCURVE",
"56 75 OFFCURVE",
"56 75 CURVE",
"56 75 OFFCURVE",
"7 75 OFFCURVE",
"7 75 CURVE",
"7 75 OFFCURVE",
"7 58 OFFCURVE",
"7 58 CURVE",
"7 58 OFFCURVE",
"56 58 OFFCURVE",
"56 58 CURVE"
);
}
);
width = 128;
}
);
unicode = 00B1;
},
{
glyphname = asciitilde;
layers = (
{
hints = (
{
horizontal = 1;
place = "{39, 16}";
type = Stem;
},
{
horizontal = 1;
place = "{61, 17}";
type = Stem;
},
{
place = "{6, 12}";
type = Stem;
},
{
place = "{109, 13}";
type = Stem;
}
);
layerId = "F2A7ED21-5BE1-4BFF-B4F1-F4609BDA8B83";
paths = (
{
closed = 1;
nodes = (
"18 52 OFFCURVE",
"25 61 OFFCURVE",
"34 61 CURVE SMOOTH",
"38 61 OFFCURVE",
"45 59 OFFCURVE",
"54 55 CURVE",
"71 44 OFFCURVE",
"83 39 OFFCURVE",
"91 39 CURVE SMOOTH",
"100 39 OFFCURVE",
"108 42 OFFCURVE",
"114 48 CURVE",
"119 55 OFFCURVE",
"122 64 OFFCURVE",
"122 73 CURVE",
"122 74 LINE",
"122 74 OFFCURVE",
"109 74 OFFCURVE",
"109 74 CURVE",
"109 73 LINE",
"109 69 OFFCURVE",
"107 64 OFFCURVE",
"104 59 CURVE SMOOTH",
"101 56 OFFCURVE",
"98 55 OFFCURVE",
"94 55 CURVE SMOOTH",
"89 55 OFFCURVE",
"82 57 OFFCURVE",
"75 61 CURVE SMOOTH",
"56 72 OFFCURVE",
"43 78 OFFCURVE",
"36 78 CURVE SMOOTH",
"17 78 OFFCURVE",
"6 62 OFFCURVE",
"6 44 CURVE",
"6 44 OFFCURVE",
"6 42 OFFCURVE",
"6 42 CURVE",
"6 42 OFFCURVE",
"18 42 OFFCURVE",
"18 42 CURVE",
"18 42 OFFCURVE",
"18 44 OFFCURVE",
"18 44 CURVE"
);
}
);
width = 128;
}
);
unicode = 007E;
},
{
glyphname = logicalnot;
layers = (
{
hints = (
{
horizontal = 1;
place = "{101, 18}";
type = Stem;
},
{
place = "{214, 18}";
type = Stem;
}
);
layerId = "F2A7ED21-5BE1-4BFF-B4F1-F4609BDA8B83";
paths = (
{
closed = 1;
nodes = (
"214 38 OFFCURVE",
"232 38 OFFCURVE",
"232 38 CURVE",
"232 38 OFFCURVE",
"232 119 OFFCURVE",
"232 119 CURVE",
"22 119 LINE",
"22 119 OFFCURVE",
"22 101 OFFCURVE",
"22 101 CURVE",
"22 101 OFFCURVE",
"214 101 OFFCURVE",
"214 101 CURVE",
"214 101 OFFCURVE",
"214 38 OFFCURVE",
"214 38 CURVE"
);
}
);
width = 256;
}
);
unicode = 00AC;
},
{
glyphname = asciicircum;
layers = (
{
hints = (
{
horizontal = 1;
place = "{48, 114}";
type = Stem;
},
{
place = "{7, 114}";
type = Stem;
}
);
layerId = "F2A7ED21-5BE1-4BFF-B4F1-F4609BDA8B83";
paths = (
{
closed = 1;
nodes = (
"25 48 OFFCURVE",
"64 126 OFFCURVE",
"64 126 CURVE",
"103 48 LINE",
"103 48 OFFCURVE",
"121 48 OFFCURVE",
"121 48 CURVE",
"121 48 OFFCURVE",
"64 162 OFFCURVE",
"64 162 CURVE",
"64 162 OFFCURVE",
"7 48 OFFCURVE",
"7 48 CURVE",
"7 48 OFFCURVE",
"25 48 OFFCURVE",
"25 48 CURVE"
);
}
);
width = 128;
}
);
unicode = 005E;
},
{
glyphname = percent;
layers = (
{
hints = (
{
place = "{0, 17}";
type = Stem;
},
{
place = "{49, 16}";
type = Stem;
},
{
place = "{63, 16}";
type = Stem;
},
{
place = "{111, 17}";
type = Stem;
},
{
horizontal = 1;
place = "{0, 13}";
type = Stem;
},
{
horizontal = 1;
place = "{-5, 21}";
target = up;
type = BottomGhost;
},
{
horizontal = 1;
place = "{68, 13}";
type = Stem;
},
{
horizontal = 1;
place = "{81, 13}";
type = Stem;
},
{
horizontal = 1;
place = "{149, 13}";
type = Stem;
},
{
horizontal = 1;
place = "{166, -20}";
target = down;
type = TopGhost;
}
);
layerId = "F2A7ED21-5BE1-4BFF-B4F1-F4609BDA8B83";
paths = (
{
closed = 1;
nodes = (
"111 166 LINE",
"111 166 OFFCURVE",
"0 -5 OFFCURVE",
"0 -5 CURVE",
"0 -5 OFFCURVE",
"17 -5 OFFCURVE",
"17 -5 CURVE",
"17 -5 OFFCURVE",
"128 166 OFFCURVE",
"128 166 CURVE"
);
},
{
closed = 1;
nodes = (
"24 162 OFFCURVE",
"16 159 OFFCURVE",
"10 152 CURVE SMOOTH",
"3 145 OFFCURVE",
"0 135 OFFCURVE",
"0 121 CURVE SMOOTH",
"0 108 OFFCURVE",
"3 99 OFFCURVE",
"10 92 CURVE SMOOTH",
"16 85 OFFCURVE",
"24 81 OFFCURVE",
"33 81 CURVE SMOOTH",
"55 81 OFFCURVE",
"65 102 OFFCURVE",
"65 121 CURVE SMOOTH",
"65 148 OFFCURVE",
"54 162 OFFCURVE",
"33 162 CURVE SMOOTH"
);
},
{
closed = 1;
nodes = (
"47 138 OFFCURVE",
"49 131 OFFCURVE",
"49 121 CURVE SMOOTH",
"49 111 OFFCURVE",
"47 104 OFFCURVE",
"43 99 CURVE SMOOTH",
"41 96 OFFCURVE",
"38 94 OFFCURVE",
"33 94 CURVE SMOOTH",
"29 94 OFFCURVE",
"25 96 OFFCURVE",
"22 99 CURVE SMOOTH",
"19 104 OFFCURVE",
"17 112 OFFCURVE",
"17 121 CURVE SMOOTH",
"17 130 OFFCURVE",
"19 138 OFFCURVE",
"22 143 CURVE SMOOTH",
"25 147 OFFCURVE",
"28 149 OFFCURVE",
"33 149 CURVE SMOOTH",
"38 149 OFFCURVE",
"41 147 OFFCURVE",
"43 143 CURVE SMOOTH"
);
},
{
closed = 1;
nodes = (
"74 81 OFFCURVE",
"63 67 OFFCURVE",
"63 40 CURVE SMOOTH",
"63 27 OFFCURVE",
"66 18 OFFCURVE",
"73 11 CURVE SMOOTH",
"79 4 OFFCURVE",
"86 0 OFFCURVE",
"95 0 CURVE SMOOTH",
"118 0 OFFCURVE",
"128 22 OFFCURVE",
"128 42 CURVE SMOOTH",
"128 55 OFFCURVE",
"125 64 OFFCURVE",
"119 71 CURVE SMOOTH",
"112 78 OFFCURVE",
"104 81 OFFCURVE",
"95 81 CURVE SMOOTH"
);
},
{
closed = 1;
nodes = (
"99 68 OFFCURVE",
"103 66 OFFCURVE",
"106 62 CURVE SMOOTH",
"109 57 OFFCURVE",
"111 50 OFFCURVE",
"111 41 CURVE SMOOTH",
"111 30 OFFCURVE",
"110 23 OFFCURVE",
"107 20 CURVE SMOOTH",
"104 15 OFFCURVE",
"100 13 OFFCURVE",
"95 13 CURVE SMOOTH",
"83 13 OFFCURVE",
"79 30 OFFCURVE",
"79 40 CURVE SMOOTH",
"79 49 OFFCURVE",
"81 57 OFFCURVE",
"85 62 CURVE SMOOTH",
"87 66 OFFCURVE",
"90 68 OFFCURVE",
"95 68 CURVE SMOOTH"
);
}
);
width = 128;
}
);
unicode = 0025;
},
{
glyphname = dieresis;
layers = (
{
hints = (
{
horizontal = 1;
place = "{188, 22}";
type = Stem;
},
{
place = "{84, 22}";
type = Stem;
},
{
place = "{149, 21}";
type = Stem;
}
);
layerId = "F2A7ED21-5BE1-4BFF-B4F1-F4609BDA8B83";
paths = (
{
closed = 1;
nodes = (
"112 136 OFFCURVE",
"116 140 OFFCURVE",
"116 140 CURVE",
"116 153 LINE",
"116 153 OFFCURVE",
"112 158 OFFCURVE",
"112 158 CURVE",
"112 158 OFFCURVE",
"98 158 OFFCURVE",
"98 158 CURVE",
"98 158 OFFCURVE",
"94 154 OFFCURVE",
"94 154 CURVE",
"94 154 OFFCURVE",
"94 141 OFFCURVE",
"94 141 CURVE",
"94 141 OFFCURVE",
"99 136 OFFCURVE",
"99 136 CURVE",
"99 136 OFFCURVE",
"112 136 OFFCURVE",
"112 136 CURVE"
);
},
{
closed = 1;
nodes = (
"143 136 OFFCURVE",
"156 136 OFFCURVE",
"156 136 CURVE",
"156 136 OFFCURVE",
"160 140 OFFCURVE",
"160 140 CURVE",
"160 153 LINE",
"160 153 OFFCURVE",
"156 158 OFFCURVE",
"156 158 CURVE",
"156 158 OFFCURVE",
"142 158 OFFCURVE",
"142 158 CURVE",
"142 158 OFFCURVE",
"139 154 OFFCURVE",
"139 154 CURVE",
"139 154 OFFCURVE",
"139 140 OFFCURVE",
"139 140 CURVE",
"139 140 OFFCURVE",
"143 136 OFFCURVE",
"143 136 CURVE"
);
}
);
width = 256;
}
);
unicode = 00A8;
},
{
glyphname = grave;
layers = (
{
hints = (
{
horizontal = 1;
place = "{134, 34}";
type = Stem;
},
{
place = "{33, 54}";
type = Stem;
}
);
layerId = "F2A7ED21-5BE1-4BFF-B4F1-F4609BDA8B83";
paths = (
{
closed = 1;
nodes = (
"33 168 LINE",
"33 168 OFFCURVE",
"69 134 OFFCURVE",
"69 134 CURVE",
"69 134 OFFCURVE",
"87 134 OFFCURVE",
"87 134 CURVE",
"87 134 OFFCURVE",
"56 168 OFFCURVE",
"56 168 CURVE"
);
}
);
width = 128;
}
);
unicode = 0060;
},
{
glyphname = acute;
layers = (
{
hints = (
{
place = "{96, 64}";
type = Stem;
},
{
place = "{147, 11}";
type = Stem;
},
{
horizontal = 1;
place = "{196, 18}";
type = Stem;
}
);
layerId = "F2A7ED21-5BE1-4BFF-B4F1-F4609BDA8B83";
paths = (
{
closed = 1;
nodes = (
"64 168 LINE",
"64 168 OFFCURVE",
"33 134 OFFCURVE",
"33 134 CURVE",
"33 134 OFFCURVE",
"51 134 OFFCURVE",
"51 134 CURVE",
"51 134 OFFCURVE",
"87 168 OFFCURVE",
"87 168 CURVE"
);
}
);
width = 128;
}
);
unicode = 00B4;
},
{
glyphname = circumflex;
layers = (
{
anchors = (
{
name = _bottom;
position = "{53, 152}";
},
{
name = bottom;
position = "{52, 116}";
}
);
layerId = "F2A7ED21-5BE1-4BFF-B4F1-F4609BDA8B83";
paths = (
{
closed = 1;
nodes = (
"44 152 OFFCURVE",
"12 118 OFFCURVE",
"12 118 CURVE",
"12 118 OFFCURVE",
"29 118 OFFCURVE",
"29 118 CURVE",
"52 138 LINE",
"76 118 LINE",
"76 118 OFFCURVE",
"93 118 OFFCURVE",
"93 118 CURVE",
"93 118 OFFCURVE",
"61 152 OFFCURVE",
"61 152 CURVE",
"61 152 OFFCURVE",
"44 152 OFFCURVE",
"44 152 CURVE"
);
}
);
width = 107;
}
);
unicode = 02C6;
},
{
glyphname = Aacute;
layers = (
{
hints = (
{
place = "{3, 122}";
type = Stem;
},
{
horizontal = 1;
place = "{0, 52}";
type = Stem;
},
{
horizontal = 1;
place = "{36, 16}";
type = Stem;
},
{
horizontal = 1;
place = "{129, 33}";
type = Stem;
},
{
horizontal = 1;
place = "{162, -20}";
target = down;
type = TopGhost;
},
{
horizontal = 1;
place = "{172, 34}";
type = Stem;
}
);
layerId = "F2A7ED21-5BE1-4BFF-B4F1-F4609BDA8B83";
paths = (
{
closed = 1;
nodes = (
"64 206 LINE",
"64 206 OFFCURVE",
"33 172 OFFCURVE",
"33 172 CURVE",
"33 172 OFFCURVE",
"51 172 OFFCURVE",
"51 172 CURVE",
"51 172 OFFCURVE",
"87 206 OFFCURVE",
"87 206 CURVE"
);
},
{
closed = 1;
nodes = (
"91 36 LINE",
"91 36 OFFCURVE",
"102 0 OFFCURVE",
"102 0 CURVE",
"102 0 OFFCURVE",
"125 0 OFFCURVE",
"125 0 CURVE",
"125 0 OFFCURVE",
"75 162 OFFCURVE",
"75 162 CURVE",
"75 162 OFFCURVE",
"53 162 OFFCURVE",
"53 162 CURVE",
"53 162 OFFCURVE",
"3 0 OFFCURVE",
"3 0 CURVE",
"3 0 OFFCURVE",
"24 0 OFFCURVE",
"24 0 CURVE",
"24 0 OFFCURVE",
"35 36 OFFCURVE",
"35 36 CURVE"
);
},
{
closed = 1;
nodes = (
"59 113 LINE",
"59 113 OFFCURVE",
"63 129 OFFCURVE",
"63 129 CURVE",
"63 129 OFFCURVE",
"67 113 OFFCURVE",
"67 113 CURVE",
"67 113 OFFCURVE",
"87 52 OFFCURVE",
"87 52 CURVE",
"87 52 OFFCURVE",
"40 52 OFFCURVE",
"40 52 CURVE"
);
}
);
width = 128;
}
);
unicode = 00C1;
},
{
glyphname = tilde;
layers = (
{
layerId = "F2A7ED21-5BE1-4BFF-B4F1-F4609BDA8B83";
paths = (
{
closed = 1;
nodes = (
"26 135 OFFCURVE",
"25 129 OFFCURVE",
"24 123 CURVE",
"24 123 OFFCURVE",
"11 123 OFFCURVE",
"11 123 CURVE",
"11 139 OFFCURVE",
"19 153 OFFCURVE",
"33 153 CURVE SMOOTH",
"50 153 OFFCURVE",
"54 139 OFFCURVE",
"63 139 CURVE",
"75 139 OFFCURVE",
"76 149 OFFCURVE",
"77 153 CURVE",
"90 153 LINE",
"90 153 LINE",
"90 137 OFFCURVE",
"77 124 OFFCURVE",
"63 124 CURVE SMOOTH",
"52 124 OFFCURVE",
"41 141 OFFCURVE",
"33 138 CURVE SMOOTH"
);
}
);
width = 107;
}
);
unicode = 02DC;
},
{
glyphname = ring;
layers = (
{
components = (
{
name = space;
alignment = -1;
}
);
layerId = "F2A7ED21-5BE1-4BFF-B4F1-F4609BDA8B83";
paths = (
{
closed = 1;
nodes = (
"14 160 OFFCURVE",
"22 168 OFFCURVE",
"35 168 CURVE SMOOTH",
"48 168 OFFCURVE",
"56 160 OFFCURVE",
"56 147 CURVE SMOOTH",
"56 133 OFFCURVE",
"48 125 OFFCURVE",
"35 125 CURVE SMOOTH",
"22 125 OFFCURVE",
"14 133 OFFCURVE",
"14 147 CURVE SMOOTH"
);
},
{
closed = 1;
nodes = (
"25 141 OFFCURVE",
"29 137 OFFCURVE",
"35 137 CURVE SMOOTH",
"41 137 OFFCURVE",
"45 141 OFFCURVE",
"45 147 CURVE SMOOTH",
"45 153 OFFCURVE",
"41 157 OFFCURVE",
"35 157 CURVE SMOOTH",
"29 157 OFFCURVE",
"25 153 OFFCURVE",
"25 147 CURVE SMOOTH"
);
}
);
width = 70;
}
);
unicode = 02DA;
},
{
glyphname = AE;
layers = (
{
components = (
{
name = E;
transform = "{1, 0, 0, 1, 69, 0}";
alignment = -1;
}
);
hints = (
{
place = "{-56, 184}";
type = Stem;
},
{
place = "{90, 21}";
type = Stem;
},
{
place = "{111, 58}";
type = Stem;
},
{
horizontal = 1;
place = "{0, 52}";
type = Stem;
},
{
horizontal = 1;
place = "{36, 16}";
type = Stem;
},
{
horizontal = 1;
place = "{129, 33}";
type = Stem;
},
{
horizontal = 1;
place = "{162, -20}";
target = down;
type = TopGhost;
},
{
horizontal = 1;
place = "{0, 18}";
type = Stem;
},
{
horizontal = 1;
place = "{74, 17}";
type = Stem;
},
{
horizontal = 1;
place = "{145, 17}";
type = Stem;
}
);
layerId = "F2A7ED21-5BE1-4BFF-B4F1-F4609BDA8B83";
paths = (
{
closed = 1;
nodes = (
"90 36 LINE",
"90 36 OFFCURVE",
"90 0 OFFCURVE",
"90 0 CURVE",
"90 0 OFFCURVE",
"111 0 OFFCURVE",
"111 0 CURVE",
"111 0 OFFCURVE",
"111 162 OFFCURVE",
"111 162 CURVE",
"111 162 OFFCURVE",
"77 162 OFFCURVE",
"77 162 CURVE",
"77 162 OFFCURVE",
"6 0 OFFCURVE",
"6 0 CURVE",
"6 0 OFFCURVE",
"27 0 OFFCURVE",
"27 0 CURVE",
"27 0 OFFCURVE",
"41 36 OFFCURVE",
"41 36 CURVE"
);
},
{
closed = 1;
nodes = (
"90 145 OFFCURVE",
"90 52 OFFCURVE",
"90 52 CURVE",
"90 52 OFFCURVE",
"48 52 OFFCURVE",
"48 52 CURVE",
"48 52 OFFCURVE",
"90 145 OFFCURVE",
"90 145 CURVE"
);
}
);
width = 183;
}
);
unicode = 00C6;
},
{
glyphname = igrave;
layers = (
{
components = (
{
name = grave;
transform = "{1, 0, 0, 1, 4, 0}";
alignment = -1;
}
);
hints = (
{
place = "{46, 25}";
type = Stem;
},
{
place = "{49, 19}";
type = Stem;
},
{
place = "{37, 54}";
type = Stem;
},
{
horizontal = 1;
place = "{0, 16}";
type = Stem;
},
{
horizontal = 1;
place = "{100, 16}";
type = Stem;
},
{
horizontal = 1;
place = "{145, 26}";
type = Stem;
},
{
horizontal = 1;
place = "{134, 34}";
type = Stem;
}
);
layerId = "F2A7ED21-5BE1-4BFF-B4F1-F4609BDA8B83";
paths = (
{
closed = 1;
nodes = (
"16 116 OFFCURVE",
"16 100 OFFCURVE",
"16 100 CURVE",
"16 100 OFFCURVE",
"49 100 OFFCURVE",
"49 100 CURVE",
"49 100 OFFCURVE",
"49 0 OFFCURVE",
"49 0 CURVE",
"49 0 OFFCURVE",
"101 0 OFFCURVE",
"101 0 CURVE",
"101 0 OFFCURVE",
"101 16 OFFCURVE",
"101 16 CURVE",
"68 16 LINE",
"68 16 OFFCURVE",
"68 116 OFFCURVE",
"68 116 CURVE",
"68 116 OFFCURVE",
"16 116 OFFCURVE",
"16 116 CURVE"
);
}
);
width = 128;
}
);
unicode = 00EC;
},
{
glyphname = iacute;
layers = (
{
components = (
{
name = acute;
transform = "{1, 0, 0, 1, 4, 0}";
alignment = -1;
}
);
hints = (
{
place = "{46, 25}";
type = Stem;
},
{
place = "{49, 19}";
type = Stem;
},
{
place = "{100, 64}";
type = Stem;
},
{
place = "{151, 11}";
type = Stem;
},
{
horizontal = 1;
place = "{0, 16}";
type = Stem;
},
{
horizontal = 1;
place = "{100, 16}";
type = Stem;
},
{
horizontal = 1;
place = "{145, 26}";
type = Stem;
},
{
horizontal = 1;
place = "{196, 18}";
type = Stem;
}
);
layerId = "F2A7ED21-5BE1-4BFF-B4F1-F4609BDA8B83";
paths = (
{
closed = 1;
nodes = (
"16 116 OFFCURVE",
"16 100 OFFCURVE",
"16 100 CURVE",
"16 100 OFFCURVE",
"49 100 OFFCURVE",
"49 100 CURVE",
"49 100 OFFCURVE",
"49 0 OFFCURVE",
"49 0 CURVE",
"49 0 OFFCURVE",
"101 0 OFFCURVE",
"101 0 CURVE",
"101 0 OFFCURVE",
"101 16 OFFCURVE",
"101 16 CURVE",
"68 16 LINE",
"68 16 OFFCURVE",
"68 116 OFFCURVE",
"68 116 CURVE",
"68 116 OFFCURVE",
"16 116 OFFCURVE",
"16 116 CURVE"
);
}
);
width = 128;
}
);
unicode = 00ED;
},
{
glyphname = icircumflex;
layers = (
{
components = (
{
name = circumflex;
transform = "{1, 0, 0, 1, 12, 15}";
alignment = -1;
}
);
hints = (
{
place = "{46, 25}";
type = Stem;
},
{
place = "{49, 19}";
type = Stem;
},
{
horizontal = 1;
place = "{0, 16}";
type = Stem;
},
{
horizontal = 1;
place = "{100, 16}";
type = Stem;
},
{
horizontal = 1;
place = "{145, 26}";
type = Stem;
}
);
layerId = "F2A7ED21-5BE1-4BFF-B4F1-F4609BDA8B83";
paths = (
{
closed = 1;
nodes = (
"16 116 OFFCURVE",
"16 100 OFFCURVE",
"16 100 CURVE",
"16 100 OFFCURVE",
"49 100 OFFCURVE",
"49 100 CURVE",
"49 100 OFFCURVE",
"49 0 OFFCURVE",
"49 0 CURVE",
"49 0 OFFCURVE",
"101 0 OFFCURVE",
"101 0 CURVE",
"101 0 OFFCURVE",
"101 16 OFFCURVE",
"101 16 CURVE",
"68 16 LINE",
"68 16 OFFCURVE",
"68 116 OFFCURVE",
"68 116 CURVE",
"68 116 OFFCURVE",
"16 116 OFFCURVE",
"16 116 CURVE"
);
}
);
width = 128;
}
);
unicode = 00EE;
},
{
glyphname = idieresis;
layers = (
{
components = (
{
name = dieresis;
transform = "{1, 0, 0, 1, -63, 0}";
alignment = -1;
}
);
hints = (
{
place = "{46, 25}";
type = Stem;
},
{
place = "{49, 19}";
type = Stem;
},
{
place = "{21, 22}";
type = Stem;
},
{
place = "{86, 21}";
type = Stem;
},
{
horizontal = 1;
place = "{0, 16}";
type = Stem;
},
{
horizontal = 1;
place = "{100, 16}";
type = Stem;
},
{
horizontal = 1;
place = "{145, 26}";
type = Stem;
},
{
horizontal = 1;
place = "{188, 22}";
type = Stem;
}
);
layerId = "F2A7ED21-5BE1-4BFF-B4F1-F4609BDA8B83";
paths = (
{
closed = 1;
nodes = (
"16 116 OFFCURVE",
"16 100 OFFCURVE",
"16 100 CURVE",
"16 100 OFFCURVE",
"49 100 OFFCURVE",
"49 100 CURVE",
"49 100 OFFCURVE",
"49 0 OFFCURVE",
"49 0 CURVE",
"49 0 OFFCURVE",
"101 0 OFFCURVE",
"101 0 CURVE",
"101 0 OFFCURVE",
"101 16 OFFCURVE",
"101 16 CURVE",
"68 16 LINE",
"68 16 OFFCURVE",
"68 116 OFFCURVE",
"68 116 CURVE",
"68 116 OFFCURVE",
"16 116 OFFCURVE",
"16 116 CURVE"
);
}
);
width = 128;
}
);
unicode = 00EF;
},
{
glyphname = lslash;
layers = (
{
components = (
{
name = hyphen;
transform = "{0.707, 0.707, -0.707, 0.707, 59, -35}";
alignment = -1;
}
);
hints = (
{
horizontal = 1;
place = "{57, 17}";
type = Stem;
},
{
place = "{24, 80}";
type = Stem;
}
);
layerId = "F2A7ED21-5BE1-4BFF-B4F1-F4609BDA8B83";
paths = (
{
closed = 1;
nodes = (
"16 116 OFFCURVE",
"16 100 OFFCURVE",
"16 100 CURVE",
"16 100 OFFCURVE",
"49 100 OFFCURVE",
"49 100 CURVE",
"49 100 OFFCURVE",
"49 0 OFFCURVE",
"49 0 CURVE",
"49 0 OFFCURVE",
"101 0 OFFCURVE",
"101 0 CURVE",
"101 0 OFFCURVE",
"101 16 OFFCURVE",
"101 16 CURVE",
"68 16 LINE",
"68 16 OFFCURVE",
"68 116 OFFCURVE",
"68 116 CURVE",
"68 116 OFFCURVE",
"16 116 OFFCURVE",
"16 116 CURVE"
);
}
);
width = 128;
}
);
unicode = 0142;
},
{
glyphname = caron;
layers = (
{
anchors = (
{
name = bottom;
position = "{53, 116}";
}
);
layerId = "F2A7ED21-5BE1-4BFF-B4F1-F4609BDA8B83";
paths = (
{
closed = 1;
nodes = (
"44 118 OFFCURVE",
"61 118 OFFCURVE",
"61 118 CURVE",
"61 118 OFFCURVE",
"93 152 OFFCURVE",
"93 152 CURVE",
"93 152 OFFCURVE",
"76 152 OFFCURVE",
"76 152 CURVE",
"52 132 LINE",
"29 152 LINE",
"29 152 OFFCURVE",
"12 152 OFFCURVE",
"12 152 CURVE",
"12 152 OFFCURVE",
"44 118 OFFCURVE",
"44 118 CURVE"
);
}
);
width = 107;
}
);
unicode = 02C7;
},
{
glyphname = cedilla;
layers = (
{
components = (
{
name = space;
alignment = -1;
}
);
layerId = "F2A7ED21-5BE1-4BFF-B4F1-F4609BDA8B83";
paths = (
{
closed = 1;
nodes = (
"13 -42 LINE",
"52 -42 LINE",
"52 0 LINE",
"38 0 LINE",
"38 -28 LINE",
"13 -28 LINE"
);
}
);
width = 70;
}
);
unicode = 00B8;
},
{
glyphname = macron;
layers = (
{
components = (
{
name = space;
alignment = -1;
}
);
layerId = "F2A7ED21-5BE1-4BFF-B4F1-F4609BDA8B83";
paths = (
{
closed = 1;
nodes = (
"8 131 LINE",
"62.4 131 LINE",
"62.4 145 LINE",
"8 145 LINE"
);
}
);
width = 70;
}
);
unicode = 00AF;
},
{
glyphname = jcircumflex;
layers = (
{
components = (
{
name = circumflex;
transform = "{1, 0, 0, 1, 10, 10}";
alignment = -1;
}
);
hints = (
{
place = "{73, 26}";
type = Stem;
},
{
place = "{76, 20}";
type = Stem;
},
{
horizontal = 1;
place = "{-49, 17}";
type = Stem;
},
{
horizontal = 1;
place = "{100, 16}";
type = Stem;
},
{
horizontal = 1;
place = "{145, 26}";
type = Stem;
}
);
layerId = "F2A7ED21-5BE1-4BFF-B4F1-F4609BDA8B83";
paths = (
{
closed = 1;
nodes = (
"27 -48 OFFCURVE",
"36 -49 OFFCURVE",
"45 -49 CURVE SMOOTH",
"86 -49 OFFCURVE",
"96 -23 OFFCURVE",
"96 14 CURVE",
"96 14 OFFCURVE",
"96 116 OFFCURVE",
"96 116 CURVE",
"96 116 OFFCURVE",
"27 116 OFFCURVE",
"27 116 CURVE",
"27 116 OFFCURVE",
"27 100 OFFCURVE",
"27 100 CURVE",
"27 100 OFFCURVE",
"76 100 OFFCURVE",
"76 100 CURVE",
"76 100 OFFCURVE",
"76 10 OFFCURVE",
"76 10 CURVE",
"76 -7 OFFCURVE",
"74 -18 OFFCURVE",
"69 -23 CURVE SMOOTH",
"64 -29 OFFCURVE",
"56 -32 OFFCURVE",
"45 -32 CURVE",
"44 -32 OFFCURVE",
"35 -30 OFFCURVE",
"18 -27 CURVE",
"18 -27 OFFCURVE",
"18 -46 OFFCURVE",
"18 -46 CURVE"
);
}
);
width = 128;
}
);
unicode = 0135;
},
{
glyphname = endash;
layers = (
{
layerId = "F2A7ED21-5BE1-4BFF-B4F1-F4609BDA8B83";
paths = (
{
closed = 1;
nodes = (
"17 57 LINE",
"117 57 LINE",
"117 74 LINE",
"17 74 LINE"
);
}
);
width = 134;
}
);
unicode = 2013;
},
{
glyphname = exclamdown;
layers = (
{
layerId = "F2A7ED21-5BE1-4BFF-B4F1-F4609BDA8B83";
paths = (
{
closed = 1;
nodes = (
"71 111 OFFCURVE",
"55 111 OFFCURVE",
"55 111 CURVE",
"55 111 OFFCURVE",
"50 -5 OFFCURVE",
"50 -5 CURVE",
"76 -5 LINE",
"76 -5 OFFCURVE",
"71 111 OFFCURVE",
"71 111 CURVE"
);
},
{
closed = 1;
nodes = (
"57 162 OFFCURVE",
"49 154 OFFCURVE",
"49 147 CURVE SMOOTH",
"49 139 OFFCURVE",
"56 132 OFFCURVE",
"64 132 CURVE SMOOTH",
"74 132 OFFCURVE",
"79 137 OFFCURVE",
"79 147 CURVE SMOOTH",
"79 155 OFFCURVE",
"72 162 OFFCURVE",
"64 162 CURVE SMOOTH"
);
}
);
width = 128;
}
);
unicode = 00A1;
},
{
glyphname = questiondown;
layers = (
{
layerId = "F2A7ED21-5BE1-4BFF-B4F1-F4609BDA8B83";
paths = (
{
closed = 1;
nodes = (
"71 99 OFFCURVE",
"68 90 OFFCURVE",
"61 83 CURVE SMOOTH",
"42 64 OFFCURVE",
"31 52 OFFCURVE",
"28 47 CURVE SMOOTH",
"24 41 OFFCURVE",
"22 35 OFFCURVE",
"22 29 CURVE SMOOTH",
"22 19 OFFCURVE",
"26 11 OFFCURVE",
"34 4 CURVE SMOOTH",
"42 -2 OFFCURVE",
"54 -5 OFFCURVE",
"70 -5 CURVE SMOOTH",
"83 -5 OFFCURVE",
"97 -2 OFFCURVE",
"110 4 CURVE",
"110 4 OFFCURVE",
"110 23 OFFCURVE",
"110 23 CURVE",
"96 15 OFFCURVE",
"83 11 OFFCURVE",
"70 11 CURVE SMOOTH",
"61 11 OFFCURVE",
"54 13 OFFCURVE",
"49 16 CURVE",
"45 20 OFFCURVE",
"43 24 OFFCURVE",
"43 29 CURVE SMOOTH",
"43 37 OFFCURVE",
"50 48 OFFCURVE",
"64 63 CURVE SMOOTH",
"77 76 OFFCURVE",
"84 85 OFFCURVE",
"86 90 CURVE SMOOTH",
"89 95 OFFCURVE",
"90 102 OFFCURVE",
"90 111 CURVE",
"90 111 OFFCURVE",
"90 115 OFFCURVE",
"90 115 CURVE",
"90 115 OFFCURVE",
"71 115 OFFCURVE",
"71 115 CURVE",
"71 115 OFFCURVE",
"71 110 OFFCURVE",
"71 110 CURVE"
);
},
{
closed = 1;
nodes = (
"72 166 OFFCURVE",
"65 159 OFFCURVE",
"65 151 CURVE SMOOTH",
"65 141 OFFCURVE",
"70 136 OFFCURVE",
"80 136 CURVE SMOOTH",
"88 136 OFFCURVE",
"95 143 OFFCURVE",
"95 151 CURVE SMOOTH",
"95 158 OFFCURVE",
"87 166 OFFCURVE",
"80 166 CURVE SMOOTH"
);
}
);
width = 128;
}
);
unicode = 00BF;
},
{
glyphname = uni0394;
layers = (
{
hints = (
{
place = "{39, 178}";
type = Stem;
},
{
horizontal = 1;
place = "{0, 21}";
type = Stem;
},
{
horizontal = 1;
place = "{146, 35}";
type = Stem;
},
{
horizontal = 1;
place = "{181, -20}";
target = down;
type = TopGhost;
}
);
layerId = "CA520923-60C5-486F-B3B7-3CF52C5755D9";
name = "Regular-Mono";
paths = (
{
closed = 1;
nodes = (
"73 21 LINE",
"127 146 LINE",
"182 21 LINE"
);
},
{
closed = 1;
nodes = (
"217 0 LINE",
"137 181 LINE",
"117 181 LINE",
"39 0 LINE"
);
}
);
width = 256;
}
);
unicode = 0394;
},
{
glyphname = uni03A9;
layers = (
{
hints = (
{
horizontal = 1;
place = "{0, 19}";
type = Stem;
},
{
horizontal = 1;
place = "{161, 21}";
type = Stem;
},
{
place = "{46, 23}";
type = Stem;
},
{
place = "{98, 20}";
type = Stem;
},
{
place = "{140, 20}";
type = Stem;
},
{
place = "{188, 21}";
type = Stem;
}
);
layerId = "CA520923-60C5-486F-B3B7-3CF52C5755D9";
name = "Regular-Mono";
paths = (
{
closed = 1;
nodes = (
"46 89 OFFCURVE",
"48 79 OFFCURVE",
"53 70 CURVE",
"62 45 OFFCURVE",
"76 37 OFFCURVE",
"98 25 CURVE",
"98 19 LINE",
"48 19 LINE",
"48 0 LINE",
"118 0 LINE",
"118 42 LINE",
"90 48 OFFCURVE",
"69 71 OFFCURVE",
"69 100 CURVE SMOOTH",
"69 134 OFFCURVE",
"96 161 OFFCURVE",
"130 161 CURVE SMOOTH",
"162 161 OFFCURVE",
"188 130 OFFCURVE",
"188 99 CURVE SMOOTH",
"188 85 OFFCURVE",
"182 72 OFFCURVE",
"171 59 CURVE SMOOTH",
"166 54 OFFCURVE",
"156 48 OFFCURVE",
"140 43 CURVE",
"140 0 LINE",
"208 0 LINE",
"208 20 LINE",
"160 20 LINE",
"160 25 LINE",
"190 39 OFFCURVE",
"209 67 OFFCURVE",
"209 100 CURVE SMOOTH",
"209 145 OFFCURVE",
"173 182 OFFCURVE",
"127 182 CURVE SMOOTH",
"97 182 OFFCURVE",
"67 163 OFFCURVE",
"55 135 CURVE",
"49 124 OFFCURVE",
"46 113 OFFCURVE",
"46 100 CURVE SMOOTH"
);
}
);
width = 256;
}
);
unicode = 03A9;
},
{
glyphname = uni03BC;
layers = (
{
hints = (
{
horizontal = 1;
place = "{0, 19}";
type = Stem;
},
{
place = "{146, 17}";
type = Stem;
}
);
layerId = "CA520923-60C5-486F-B3B7-3CF52C5755D9";
name = "Regular-Mono";
paths = (
{
closed = 1;
nodes = (
"68 -26 LINE",
"79 17 LINE",
"86 10 OFFCURVE",
"90 7 OFFCURVE",
"92 6 CURVE SMOOTH",
"97 3 OFFCURVE",
"101 2 OFFCURVE",
"106 2 CURVE SMOOTH",
"117 2 OFFCURVE",
"131 11 OFFCURVE",
"146 28 CURVE",
"147 17 OFFCURVE",
"150 10 OFFCURVE",
"153 7 CURVE SMOOTH",
"157 2 OFFCURVE",
"163 0 OFFCURVE",
"170 0 CURVE SMOOTH",
"178 0 OFFCURVE",
"185 2 OFFCURVE",
"191 6 CURVE SMOOTH",
"196 10 OFFCURVE",
"203 18 OFFCURVE",
"212 29 CURVE",
"195 39 LINE",
"187 26 OFFCURVE",
"180 19 OFFCURVE",
"173 19 CURVE SMOOTH",
"170 19 OFFCURVE",
"168 20 OFFCURVE",
"167 22 CURVE SMOOTH",
"164 25 OFFCURVE",
"163 29 OFFCURVE",
"163 34 CURVE SMOOTH",
"163 39 OFFCURVE",
"164 45 OFFCURVE",
"166 52 CURVE SMOOTH",
"186 129 LINE",
"164 129 LINE",
"154 90 OFFCURVE",
"147 65 OFFCURVE",
"142 55 CURVE SMOOTH",
"136 42 OFFCURVE",
"130 34 OFFCURVE",
"125 30 CURVE SMOOTH",
"118 24 OFFCURVE",
"112 21 OFFCURVE",
"107 21 CURVE SMOOTH",
"104 21 OFFCURVE",
"100 23 OFFCURVE",
"97 26 CURVE SMOOTH",
"94 29 OFFCURVE",
"90 35 OFFCURVE",
"87 44 CURVE",
"109 130 LINE",
"87 130 LINE",
"47 -26 LINE"
);
}
);
width = 256;
}
);
unicode = 03BC;
},
{
glyphname = pi;
layers = (
{
hints = (
{
place = "{93, 20}";
type = Stem;
},
{
place = "{138, 21}";
type = Stem;
},
{
horizontal = 1;
place = "{-3, 20}";
type = Stem;
},
{
horizontal = 1;
place = "{-1, 18}";
type = Stem;
},
{
horizontal = 1;
place = "{106, 19}";
type = Stem;
}
);
layerId = "CA520923-60C5-486F-B3B7-3CF52C5755D9";
name = "Regular-Mono";
paths = (
{
closed = 1;
nodes = (
"171 106 LINE",
"182 106 OFFCURVE",
"190 107 OFFCURVE",
"195 109 CURVE SMOOTH",
"204 113 OFFCURVE",
"211 117 OFFCURVE",
"217 121 CURVE",
"205 137 LINE",
"198 130 OFFCURVE",
"191 127 OFFCURVE",
"185 126 CURVE SMOOTH",
"182 125 OFFCURVE",
"172 125 OFFCURVE",
"155 125 CURVE SMOOTH",
"109 125 OFFCURVE",
"85 125 OFFCURVE",
"83 124 CURVE",
"73 123 OFFCURVE",
"63 119 OFFCURVE",
"53 114 CURVE",
"62 96 LINE",
"69 100 OFFCURVE",
"75 103 OFFCURVE",
"79 104 CURVE SMOOTH",
"84 105 OFFCURVE",
"89 106 OFFCURVE",
"93 106 CURVE",
"91 93 OFFCURVE",
"88 80 OFFCURVE",
"85 65 CURVE",
"80 52 OFFCURVE",
"76 42 OFFCURVE",
"72 35 CURVE SMOOTH",
"67 27 OFFCURVE",
"62 20 OFFCURVE",
"55 13 CURVE",
"60 10 OFFCURVE",
"68 2 OFFCURVE",
"71 -3 CURVE",
"83 11 OFFCURVE",
"92 25 OFFCURVE",
"98 40 CURVE SMOOTH",
"104 55 OFFCURVE",
"109 77 OFFCURVE",
"113 106 CURVE",
"149 106 LINE",
"139 42 LINE",
"138 39 OFFCURVE",
"138 34 OFFCURVE",
"138 29 CURVE SMOOTH",
"138 10 OFFCURVE",
"150 -1 OFFCURVE",
"165 -1 CURVE SMOOTH",
"173 -1 OFFCURVE",
"180 1 OFFCURVE",
"187 5 CURVE SMOOTH",
"193 9 OFFCURVE",
"201 18 OFFCURVE",
"211 32 CURVE",
"202 37 OFFCURVE",
"196 41 OFFCURVE",
"194 43 CURVE",
"183 26 OFFCURVE",
"174 17 OFFCURVE",
"168 17 CURVE SMOOTH",
"165 17 OFFCURVE",
"163 18 OFFCURVE",
"161 21 CURVE",
"160 22 OFFCURVE",
"159 25 OFFCURVE",
"159 28 CURVE SMOOTH",
"159 36 LINE"
);
}
);
width = 256;
}
);
unicode = 03C0;
},
{
glyphname = emdash;
layers = (
{
hints = (
{
horizontal = 1;
place = "{82, 18}";
type = Stem;
},
{
place = "{12, 230}";
type = Stem;
}
);
layerId = "CA520923-60C5-486F-B3B7-3CF52C5755D9";
name = "Regular-Mono";
paths = (
{
closed = 1;
nodes = (
"242 100 LINE",
"12 100 LINE",
"12 82 LINE",
"242 82 LINE"
);
}
);
width = 256;
}
);
unicode = 2014,2015;
},
{
glyphname = ellipsis;
layers = (
{
layerId = "F2A7ED21-5BE1-4BFF-B4F1-F4609BDA8B83";
paths = (
{
closed = 1;
nodes = (
"46 21 OFFCURVE",
"38 29 OFFCURVE",
"29 29 CURVE SMOOTH",
"20 29 OFFCURVE",
"12 21 OFFCURVE",
"12 12 CURVE SMOOTH",
"12 3 OFFCURVE",
"20 -5 OFFCURVE",
"29 -5 CURVE SMOOTH",
"38 -5 OFFCURVE",
"46 3 OFFCURVE",
"46 12 CURVE SMOOTH"
);
},
{
closed = 1;
nodes = (
"100 21 OFFCURVE",
"92 29 OFFCURVE",
"83 29 CURVE SMOOTH",
"74 29 OFFCURVE",
"66 21 OFFCURVE",
"66 12 CURVE SMOOTH",
"66 3 OFFCURVE",
"74 -5 OFFCURVE",
"83 -5 CURVE SMOOTH",
"92 -5 OFFCURVE",
"100 3 OFFCURVE",
"100 12 CURVE SMOOTH"
);
},
{
closed = 1;
nodes = (
"152 21 OFFCURVE",
"144 29 OFFCURVE",
"135 29 CURVE SMOOTH",
"126 29 OFFCURVE",
"118 21 OFFCURVE",
"118 12 CURVE SMOOTH",
"118 3 OFFCURVE",
"126 -5 OFFCURVE",
"135 -5 CURVE SMOOTH",
"144 -5 OFFCURVE",
"152 3 OFFCURVE",
"152 12 CURVE SMOOTH"
);
}
);
width = 164;
}
);
unicode = 2026;
},
{
glyphname = uni2016;
layers = (
{
hints = (
{
horizontal = 1;
place = "{-22, 228}";
type = Stem;
},
{
place = "{95, 16}";
type = Stem;
},
{
place = "{148, 16}";
type = Stem;
}
);
layerId = "CA520923-60C5-486F-B3B7-3CF52C5755D9";
name = "Regular-Mono";
paths = (
{
closed = 1;
nodes = (
"148 -22 LINE",
"164 -22 LINE",
"164 206 LINE",
"148 206 LINE"
);
},
{
closed = 1;
nodes = (
"95 -22 LINE",
"111 -22 LINE",
"111 206 LINE",
"95 206 LINE"
);
}
);
width = 256;
}
);
unicode = 2016,2225;
},
{
glyphname = quoteleft;
layers = (
{
hints = (
{
horizontal = 1;
place = "{103, 30}";
type = Stem;
},
{
place = "{48, 33}";
type = Stem;
}
);
layerId = "CA520923-60C5-486F-B3B7-3CF52C5755D9";
name = "Regular-Mono";
paths = (
{
closed = 1;
nodes = (
"60 133 LINE",
"69 145 OFFCURVE",
"77 155 OFFCURVE",
"83 162 CURVE",
"76 169 LINE",
"62 156 OFFCURVE",
"54 148 OFFCURVE",
"52 143 CURVE SMOOTH",
"49 138 OFFCURVE",
"48 134 OFFCURVE",
"48 131 CURVE SMOOTH",
"48 109 LINE",
"54 103 LINE",
"75 103 LINE",
"81 109 LINE",
"81 128 LINE",
"75 133 LINE"
);
}
);
width = 128;
}
);
unicode = 2018;
},
{
glyphname = quoteright;
layers = (
{
hints = (
{
horizontal = 1;
place = "{138, 30}";
type = Stem;
},
{
place = "{47, 34}";
type = Stem;
}
);
layerId = "CA520923-60C5-486F-B3B7-3CF52C5755D9";
name = "Regular-Mono";
paths = (
{
closed = 1;
nodes = (
"54 138 LINE",
"67 138 LINE",
"60 127 OFFCURVE",
"53 118 OFFCURVE",
"46 110 CURVE",
"53 103 LINE",
"72 118 OFFCURVE",
"81 130 OFFCURVE",
"81 141 CURVE SMOOTH",
"81 162 LINE",
"74 168 LINE",
"54 168 LINE",
"47 163 LINE",
"47 143 LINE"
);
}
);
width = 128;
}
);
unicode = 2019;
},
{
glyphname = quotedblleft;
layers = (
{
hints = (
{
horizontal = 1;
place = "{103, 29}";
type = Stem;
},
{
place = "{20, 30}";
type = Stem;
},
{
place = "{76, 30}";
type = Stem;
}
);
layerId = "CA520923-60C5-486F-B3B7-3CF52C5755D9";
name = "Regular-Mono";
paths = (
{
closed = 1;
nodes = (
"20 110 LINE",
"26 103 LINE",
"44 103 LINE",
"50 110 LINE",
"50 127 LINE",
"45 132 LINE",
"32 132 LINE",
"32 132 OFFCURVE",
"39 141 OFFCURVE",
"53 160 CURVE",
"46 167 LINE",
"29 151 OFFCURVE",
"20 138 OFFCURVE",
"20 129 CURVE SMOOTH"
);
},
{
closed = 1;
nodes = (
"83 103 LINE",
"100 103 LINE",
"106 109 LINE",
"106 127 LINE",
"101 133 LINE",
"88 133 LINE",
"93 140 OFFCURVE",
"100 149 OFFCURVE",
"109 161 CURVE",
"102 167 LINE",
"85 150 OFFCURVE",
"76 138 OFFCURVE",
"76 131 CURVE SMOOTH",
"76 110 LINE"
);
}
);
width = 128;
}
);
unicode = 201C;
},
{
glyphname = quotedblright;
layers = (
{
hints = (
{
horizontal = 1;
place = "{138, 28}";
type = Stem;
},
{
place = "{22, 30}";
type = Stem;
},
{
place = "{80, 29}";
type = Stem;
}
);
layerId = "CA520923-60C5-486F-B3B7-3CF52C5755D9";
name = "Regular-Mono";
paths = (
{
closed = 1;
nodes = (
"26 104 LINE",
"41 118 OFFCURVE",
"50 129 OFFCURVE",
"52 138 CURVE",
"52 139 OFFCURVE",
"52 140 OFFCURVE",
"52 141 CURVE",
"52 159 LINE",
"46 166 LINE",
"28 166 LINE",
"22 160 LINE",
"22 143 LINE",
"28 138 LINE",
"41 138 LINE",
"35 129 OFFCURVE",
"28 120 OFFCURVE",
"20 111 CURVE"
);
},
{
closed = 1;
nodes = (
"82 104 LINE",
"100 119 OFFCURVE",
"109 132 OFFCURVE",
"109 141 CURVE SMOOTH",
"109 159 LINE",
"103 166 LINE",
"84 166 LINE",
"80 161 LINE",
"80 143 LINE",
"86 138 LINE",
"97 138 LINE",
"91 127 OFFCURVE",
"84 118 OFFCURVE",
"76 110 CURVE"
);
}
);
width = 128;
}
);
unicode = 201D;
},
{
glyphname = dagger;
layers = (
{
hints = (
{
place = "{111, 35}";
type = Stem;
},
{
place = "{119, 18}";
type = Stem;
},
{
horizontal = 1;
place = "{-4, 21}";
target = up;
type = BottomGhost;
},
{
horizontal = 1;
place = "{128, 9}";
type = Stem;
}
);
layerId = "CA520923-60C5-486F-B3B7-3CF52C5755D9";
name = "Regular-Mono";
paths = (
{
closed = 1;
nodes = (
"136 140 OFFCURVE",
"137 144 OFFCURVE",
"140 149 CURVE SMOOTH",
"144 158 OFFCURVE",
"146 165 OFFCURVE",
"146 170 CURVE SMOOTH",
"146 174 OFFCURVE",
"144 178 OFFCURVE",
"141 183 CURVE",
"136 186 OFFCURVE",
"132 188 OFFCURVE",
"128 188 CURVE SMOOTH",
"119 188 OFFCURVE",
"111 181 OFFCURVE",
"111 169 CURVE",
"111 167 OFFCURVE",
"113 162 OFFCURVE",
"116 154 CURVE SMOOTH",
"117 149 OFFCURVE",
"119 144 OFFCURVE",
"122 137 CURVE",
"119 138 OFFCURVE",
"113 140 OFFCURVE",
"105 145 CURVE",
"98 148 OFFCURVE",
"94 150 OFFCURVE",
"91 150 CURVE SMOOTH",
"82 150 OFFCURVE",
"74 142 OFFCURVE",
"74 133 CURVE SMOOTH",
"74 124 OFFCURVE",
"82 116 OFFCURVE",
"91 116 CURVE SMOOTH",
"94 116 OFFCURVE",
"99 118 OFFCURVE",
"106 122 CURVE SMOOTH",
"111 125 OFFCURVE",
"117 127 OFFCURVE",
"123 128 CURVE",
"122 121 OFFCURVE",
"120 116 OFFCURVE",
"117 112 CURVE SMOOTH",
"114 108 OFFCURVE",
"109 103 OFFCURVE",
"101 98 CURVE",
"106 93 OFFCURVE",
"110 88 OFFCURVE",
"112 84 CURVE SMOOTH",
"115 77 OFFCURVE",
"116 71 OFFCURVE",
"117 64 CURVE SMOOTH",
"119 53 OFFCURVE",
"120 45 OFFCURVE",
"119 41 CURVE",
"119 -4 LINE",
"137 -4 LINE",
"137 40 LINE SMOOTH",
"137 51 OFFCURVE",
"139 63 OFFCURVE",
"143 76 CURVE",
"147 85 OFFCURVE",
"152 93 OFFCURVE",
"157 98 CURVE",
"145 106 OFFCURVE",
"137 116 OFFCURVE",
"133 128 CURVE",
"140 127 OFFCURVE",
"146 125 OFFCURVE",
"150 123 CURVE SMOOTH",
"157 118 OFFCURVE",
"162 116 OFFCURVE",
"167 116 CURVE SMOOTH",
"176 116 OFFCURVE",
"184 123 OFFCURVE",
"184 134 CURVE SMOOTH",
"184 137 OFFCURVE",
"182 141 OFFCURVE",
"179 146 CURVE",
"174 149 OFFCURVE",
"170 151 OFFCURVE",
"165 151 CURVE",
"164 151 OFFCURVE",
"161 149 OFFCURVE",
"156 146 CURVE",
"155 145 OFFCURVE",
"152 144 OFFCURVE",
"147 141 CURVE SMOOTH",
"143 139 OFFCURVE",
"139 138 OFFCURVE",
"135 137 CURVE"
);
}
);
width = 256;
}
);
unicode = 2020;
},
{
glyphname = daggerdbl;
layers = (
{
hints = (
{
place = "{112, 32}";
type = Stem;
},
{
place = "{123, 10}";
type = Stem;
},
{
horizontal = 1;
place = "{-6, 21}";
target = up;
type = BottomGhost;
},
{
horizontal = 1;
place = "{24, 31}";
type = Stem;
},
{
horizontal = 1;
place = "{127, 31}";
type = Stem;
}
);
layerId = "CA520923-60C5-486F-B3B7-3CF52C5755D9";
name = "Regular-Mono";
paths = (
{
closed = 1;
nodes = (
"134 151 OFFCURVE",
"136 156 OFFCURVE",
"139 161 CURVE SMOOTH",
"142 166 OFFCURVE",
"144 170 OFFCURVE",
"144 173 CURVE SMOOTH",
"144 184 OFFCURVE",
"139 189 OFFCURVE",
"127 189 CURVE SMOOTH",
"120 189 OFFCURVE",
"112 181 OFFCURVE",
"112 173 CURVE SMOOTH",
"112 170 OFFCURVE",
"113 166 OFFCURVE",
"116 161 CURVE",
"117 160 OFFCURVE",
"120 155 OFFCURVE",
"123 146 CURVE",
"118 147 OFFCURVE",
"115 148 OFFCURVE",
"115 148 CURVE",
"111 150 OFFCURVE",
"107 152 OFFCURVE",
"104 154 CURVE SMOOTH",
"101 157 OFFCURVE",
"97 158 OFFCURVE",
"93 158 CURVE SMOOTH",
"89 158 OFFCURVE",
"86 157 OFFCURVE",
"83 154 CURVE SMOOTH",
"80 151 OFFCURVE",
"78 147 OFFCURVE",
"78 144 CURVE SMOOTH",
"78 135 OFFCURVE",
"87 127 OFFCURVE",
"92 127 CURVE SMOOTH",
"99 127 OFFCURVE",
"107 134 OFFCURVE",
"123 137 CURVE",
"120 133 OFFCURVE",
"118 130 OFFCURVE",
"117 128 CURVE SMOOTH",
"115 126 OFFCURVE",
"111 123 OFFCURVE",
"104 119 CURVE",
"113 112 OFFCURVE",
"118 107 OFFCURVE",
"119 105 CURVE SMOOTH",
"122 102 OFFCURVE",
"123 97 OFFCURVE",
"123 91 CURVE SMOOTH",
"123 85 OFFCURVE",
"122 80 OFFCURVE",
"120 77 CURVE SMOOTH",
"115 72 OFFCURVE",
"109 67 OFFCURVE",
"104 64 CURVE",
"112 59 OFFCURVE",
"117 56 OFFCURVE",
"118 54 CURVE SMOOTH",
"119 51 OFFCURVE",
"121 48 OFFCURVE",
"122 44 CURVE",
"117 45 OFFCURVE",
"113 47 OFFCURVE",
"110 49 CURVE SMOOTH",
"102 53 OFFCURVE",
"96 55 OFFCURVE",
"93 55 CURVE SMOOTH",
"89 55 OFFCURVE",
"86 54 OFFCURVE",
"83 51 CURVE SMOOTH",
"80 48 OFFCURVE",
"78 44 OFFCURVE",
"78 39 CURVE SMOOTH",
"78 32 OFFCURVE",
"86 24 OFFCURVE",
"93 24 CURVE SMOOTH",
"96 24 OFFCURVE",
"100 25 OFFCURVE",
"105 28 CURVE SMOOTH",
"110 32 OFFCURVE",
"117 33 OFFCURVE",
"122 36 CURVE",
"121 33 OFFCURVE",
"120 29 OFFCURVE",
"117 25 CURVE SMOOTH",
"114 20 OFFCURVE",
"112 15 OFFCURVE",
"112 12 CURVE SMOOTH",
"112 1 OFFCURVE",
"120 -6 OFFCURVE",
"128 -6 CURVE SMOOTH",
"133 -6 OFFCURVE",
"137 -4 OFFCURVE",
"140 -1 CURVE SMOOTH",
"143 2 OFFCURVE",
"144 6 OFFCURVE",
"144 11 CURVE SMOOTH",
"144 14 OFFCURVE",
"144 17 OFFCURVE",
"143 18 CURVE",
"140 23 OFFCURVE",
"137 29 OFFCURVE",
"133 36 CURVE",
"136 35 OFFCURVE",
"141 33 OFFCURVE",
"148 29 CURVE SMOOTH",
"155 25 OFFCURVE",
"160 23 OFFCURVE",
"163 23 CURVE SMOOTH",
"167 23 OFFCURVE",
"171 25 OFFCURVE",
"174 28 CURVE SMOOTH",
"177 31 OFFCURVE",
"178 35 OFFCURVE",
"178 40 CURVE SMOOTH",
"178 49 OFFCURVE",
"173 55 OFFCURVE",
"162 55 CURVE SMOOTH",
"159 55 OFFCURVE",
"155 54 OFFCURVE",
"150 51 CURVE SMOOTH",
"144 48 OFFCURVE",
"138 45 OFFCURVE",
"133 43 CURVE",
"134 48 OFFCURVE",
"136 52 OFFCURVE",
"137 53 CURVE",
"139 56 OFFCURVE",
"144 60 OFFCURVE",
"153 63 CURVE",
"140 71 OFFCURVE",
"133 80 OFFCURVE",
"133 90 CURVE SMOOTH",
"133 97 OFFCURVE",
"134 103 OFFCURVE",
"137 106 CURVE SMOOTH",
"140 110 OFFCURVE",
"145 114 OFFCURVE",
"152 118 CURVE",
"139 126 OFFCURVE",
"137 127 OFFCURVE",
"133 138 CURVE",
"135 137 OFFCURVE",
"140 136 OFFCURVE",
"147 133 CURVE SMOOTH",
"155 130 OFFCURVE",
"160 128 OFFCURVE",
"162 128 CURVE",
"173 128 OFFCURVE",
"178 134 OFFCURVE",
"178 143 CURVE SMOOTH",
"178 152 OFFCURVE",
"173 158 OFFCURVE",
"162 158 CURVE SMOOTH",
"159 158 OFFCURVE",
"156 157 OFFCURVE",
"151 154 CURVE SMOOTH",
"145 151 OFFCURVE",
"139 148 OFFCURVE",
"133 146 CURVE"
);
}
);
width = 256;
}
);
unicode = 2021;
},
{
glyphname = twodotenleader;
layers = (
{
hints = (
{
horizontal = 1;
place = "{75, 31}";
type = Stem;
},
{
place = "{48, 32}";
type = Stem;
},
{
place = "{176, 31}";
type = Stem;
}
);
layerId = "CA520923-60C5-486F-B3B7-3CF52C5755D9";
name = "Regular-Mono";
paths = (
{
closed = 1;
nodes = (
"48 80 LINE",
"54 75 LINE",
"74 75 LINE",
"80 80 LINE",
"80 100 LINE",
"74 106 LINE",
"54 106 LINE",
"48 100 LINE"
);
},
{
closed = 1;
nodes = (
"176 80 LINE",
"182 75 LINE",
"202 75 LINE",
"207 80 LINE",
"207 101 LINE",
"202 106 LINE",
"182 106 LINE",
"176 101 LINE"
);
}
);
width = 256;
}
);
unicode = 2025;
},
{
glyphname = perthousand;
layers = (
{
hints = (
{
horizontal = 1;
place = "{-5, 16}";
type = Stem;
},
{
horizontal = 1;
place = "{63, 18}";
type = Stem;
},
{
horizontal = 1;
place = "{100, 16}";
type = Stem;
},
{
horizontal = 1;
place = "{168, 18}";
type = Stem;
},
{
place = "{23, 21}";
type = Stem;
},
{
place = "{72, 19}";
type = Stem;
},
{
place = "{94, 21}";
type = Stem;
},
{
place = "{143, 20}";
type = Stem;
},
{
place = "{173, 20}";
type = Stem;
},
{
place = "{221, 20}";
type = Stem;
}
);
layerId = "CA520923-60C5-486F-B3B7-3CF52C5755D9";
name = "Regular-Mono";
paths = (
{
closed = 1;
nodes = (
"203 11 OFFCURVE",
"199 13 OFFCURVE",
"197 17 CURVE",
"194 20 OFFCURVE",
"193 27 OFFCURVE",
"193 38 CURVE SMOOTH",
"193 49 OFFCURVE",
"194 55 OFFCURVE",
"197 58 CURVE SMOOTH",
"200 61 OFFCURVE",
"204 63 OFFCURVE",
"208 63 CURVE SMOOTH",
"212 63 OFFCURVE",
"215 62 OFFCURVE",
"218 59 CURVE SMOOTH",
"220 56 OFFCURVE",
"221 49 OFFCURVE",
"221 38 CURVE SMOOTH",
"221 27 OFFCURVE",
"220 19 OFFCURVE",
"218 16 CURVE SMOOTH",
"215 13 OFFCURVE",
"211 11 OFFCURVE",
"208 11 CURVE SMOOTH"
);
},
{
closed = 1;
nodes = (
"228 -5 OFFCURVE",
"241 10 OFFCURVE",
"241 37 CURVE SMOOTH",
"241 52 OFFCURVE",
"238 63 OFFCURVE",
"233 70 CURVE SMOOTH",
"227 77 OFFCURVE",
"218 81 OFFCURVE",
"206 81 CURVE SMOOTH",
"186 81 OFFCURVE",
"173 69 OFFCURVE",
"173 37 CURVE SMOOTH",
"173 23 OFFCURVE",
"176 13 OFFCURVE",
"183 6 CURVE SMOOTH",
"189 -1 OFFCURVE",
"197 -5 OFFCURVE",
"207 -5 CURVE SMOOTH"
);
},
{
closed = 1;
nodes = (
"125 11 OFFCURVE",
"121 13 OFFCURVE",
"119 17 CURVE",
"116 20 OFFCURVE",
"115 27 OFFCURVE",
"115 38 CURVE SMOOTH",
"115 49 OFFCURVE",
"116 55 OFFCURVE",
"119 58 CURVE SMOOTH",
"122 61 OFFCURVE",
"126 63 OFFCURVE",
"130 63 CURVE SMOOTH",
"134 63 OFFCURVE",
"137 62 OFFCURVE",
"140 59 CURVE SMOOTH",
"142 56 OFFCURVE",
"143 49 OFFCURVE",
"143 38 CURVE SMOOTH",
"143 27 OFFCURVE",
"142 19 OFFCURVE",
"140 16 CURVE SMOOTH",
"137 13 OFFCURVE",
"133 11 OFFCURVE",
"130 11 CURVE SMOOTH"
);
},
{
closed = 1;
nodes = (
"150 -5 OFFCURVE",
"163 10 OFFCURVE",
"163 37 CURVE SMOOTH",
"163 52 OFFCURVE",
"160 63 OFFCURVE",
"154 70 CURVE SMOOTH",
"148 77 OFFCURVE",
"139 81 OFFCURVE",
"128 81 CURVE SMOOTH",
"107 81 OFFCURVE",
"94 69 OFFCURVE",
"94 37 CURVE SMOOTH",
"94 23 OFFCURVE",
"97 13 OFFCURVE",
"104 6 CURVE SMOOTH",
"111 -1 OFFCURVE",
"120 -5 OFFCURVE",
"129 -5 CURVE SMOOTH"
);
},
{
closed = 1;
nodes = (
"156 174 LINE",
"141 184 LINE",
"31 7 LINE",
"46 -3 LINE"
);
},
{
closed = 1;
nodes = (
"53 116 OFFCURVE",
"50 118 OFFCURVE",
"48 122 CURVE",
"45 125 OFFCURVE",
"44 132 OFFCURVE",
"44 143 CURVE SMOOTH",
"44 154 OFFCURVE",
"45 160 OFFCURVE",
"48 163 CURVE SMOOTH",
"51 166 OFFCURVE",
"55 168 OFFCURVE",
"58 168 CURVE SMOOTH",
"63 168 OFFCURVE",
"66 167 OFFCURVE",
"69 164 CURVE SMOOTH",
"71 161 OFFCURVE",
"72 154 OFFCURVE",
"72 143 CURVE SMOOTH",
"72 132 OFFCURVE",
"71 124 OFFCURVE",
"69 121 CURVE SMOOTH",
"66 118 OFFCURVE",
"62 116 OFFCURVE",
"58 116 CURVE SMOOTH"
);
},
{
closed = 1;
nodes = (
"78 100 OFFCURVE",
"91 115 OFFCURVE",
"91 142 CURVE SMOOTH",
"91 157 OFFCURVE",
"88 168 OFFCURVE",
"83 175 CURVE SMOOTH",
"77 182 OFFCURVE",
"68 186 OFFCURVE",
"57 186 CURVE SMOOTH",
"36 186 OFFCURVE",
"23 174 OFFCURVE",
"23 142 CURVE SMOOTH",
"23 128 OFFCURVE",
"26 118 OFFCURVE",
"33 111 CURVE SMOOTH",
"39 104 OFFCURVE",
"47 100 OFFCURVE",
"58 100 CURVE SMOOTH"
);
}
);
width = 256;
}
);
unicode = 2030;
},
{
glyphname = minute;
layers = (
{
hints = (
{
horizontal = 1;
place = "{139, 70}";
type = Stem;
},
{
place = "{40, 61}";
type = Stem;
}
);
layerId = "CA520923-60C5-486F-B3B7-3CF52C5755D9";
name = "Regular-Mono";
paths = (
{
closed = 1;
nodes = (
"82 209 LINE",
"40 149 LINE",
"52 139 LINE",
"101 193 LINE"
);
}
);
width = 256;
}
);
unicode = 2032;
},
{
glyphname = second;
layers = (
{
hints = (
{
horizontal = 1;
place = "{137, 70}";
type = Stem;
},
{
place = "{11, 104}";
type = Stem;
}
);
layerId = "CA520923-60C5-486F-B3B7-3CF52C5755D9";
name = "Regular-Mono";
paths = (
{
closed = 1;
nodes = (
"49 207 LINE",
"11 147 LINE",
"24 138 LINE",
"68 195 LINE"
);
},
{
closed = 1;
nodes = (
"96 207 LINE",
"57 146 LINE",
"70 137 LINE",
"115 195 LINE"
);
}
);
width = 256;
}
);
unicode = 2033;
},
{
glyphname = uni203B;
layers = (
{
hints = (
{
place = "{33, 40}";
type = Stem;
},
{
place = "{108, 40}";
type = Stem;
},
{
place = "{181, 41}";
type = Stem;
},
{
horizontal = 1;
place = "{-4, 40}";
type = Stem;
},
{
horizontal = 1;
place = "{-4, 21}";
target = up;
type = BottomGhost;
},
{
horizontal = 1;
place = "{-1, 21}";
target = up;
type = BottomGhost;
},
{
horizontal = 1;
place = "{71, 41}";
type = Stem;
},
{
horizontal = 1;
place = "{144, 40}";
type = Stem;
},
{
horizontal = 1;
place = "{182, -20}";
target = down;
type = TopGhost;
}
);
layerId = "CA520923-60C5-486F-B3B7-3CF52C5755D9";
name = "Regular-Mono";
paths = (
{
closed = 1;
nodes = (
"134 -4 OFFCURVE",
"139 -2 OFFCURVE",
"143 2 CURVE",
"146 7 OFFCURVE",
"148 11 OFFCURVE",
"148 16 CURVE SMOOTH",
"148 21 OFFCURVE",
"146 25 OFFCURVE",
"143 30 CURVE",
"139 34 OFFCURVE",
"134 36 OFFCURVE",
"128 36 CURVE SMOOTH",
"123 36 OFFCURVE",
"119 34 OFFCURVE",
"114 31 CURVE",
"110 27 OFFCURVE",
"108 22 OFFCURVE",
"108 16 CURVE SMOOTH",
"108 5 OFFCURVE",
"117 -4 OFFCURVE",
"128 -4 CURVE SMOOTH"
);
},
{
closed = 1;
nodes = (
"64 71 OFFCURVE",
"73 80 OFFCURVE",
"73 91 CURVE SMOOTH",
"73 103 OFFCURVE",
"64 112 OFFCURVE",
"53 112 CURVE SMOOTH",
"47 112 OFFCURVE",
"42 110 OFFCURVE",
"39 106 CURVE SMOOTH",
"35 102 OFFCURVE",
"33 97 OFFCURVE",
"33 91 CURVE SMOOTH",
"33 86 OFFCURVE",
"35 81 OFFCURVE",
"39 77 CURVE SMOOTH",
"42 73 OFFCURVE",
"47 71 OFFCURVE",
"53 71 CURVE SMOOTH"
);
},
{
closed = 1;
nodes = (
"213 71 OFFCURVE",
"222 80 OFFCURVE",
"222 91 CURVE SMOOTH",
"222 103 OFFCURVE",
"213 112 OFFCURVE",
"202 112 CURVE SMOOTH",
"190 112 OFFCURVE",
"181 103 OFFCURVE",
"181 91 CURVE SMOOTH",
"181 80 OFFCURVE",
"190 71 OFFCURVE",
"202 71 CURVE SMOOTH"
);
},
{
closed = 1;
nodes = (
"123 184 OFFCURVE",
"119 182 OFFCURVE",
"114 179 CURVE",
"110 175 OFFCURVE",
"108 170 OFFCURVE",
"108 164 CURVE SMOOTH",
"108 153 OFFCURVE",
"117 144 OFFCURVE",
"128 144 CURVE SMOOTH",
"134 144 OFFCURVE",
"139 146 OFFCURVE",
"143 150 CURVE",
"146 155 OFFCURVE",
"148 159 OFFCURVE",
"148 164 CURVE SMOOTH",
"148 169 OFFCURVE",
"146 174 OFFCURVE",
"143 179 CURVE",
"138 182 OFFCURVE",
"133 184 OFFCURVE",
"128 184 CURVE SMOOTH"
);
},
{
closed = 1;
nodes = (
"28 182 LINE",
"119 91 LINE",
"28 -1 LINE",
"36 -9 LINE",
"128 82 LINE",
"220 -9 LINE",
"228 -1 LINE",
"137 91 LINE",
"228 182 LINE",
"220 191 LINE",
"128 100 LINE",
"37 191 LINE"
);
}
);
width = 256;
}
);
unicode = 203B;
},
{
glyphname = uni203E;
layers = (
{
hints = (
{
horizontal = 1;
place = "{207, 11}";
type = Stem;
},
{
place = "{0, 256}";
type = Stem;
}
);
layerId = "CA520923-60C5-486F-B3B7-3CF52C5755D9";
name = "Regular-Mono";
paths = (
{
closed = 1;
nodes = (
"256 218 LINE",
"0 218 LINE",
"0 207 LINE",
"256 207 LINE"
);
}
);
width = 256;
}
);
unicode = 203E,FFE3;
},
{
glyphname = uni2103;
layers = (
{
hints = (
{
place = "{13, 13}";
type = Stem;
},
{
place = "{68, 13}";
type = Stem;
},
{
place = "{71, 26}";
type = Stem;
},
{
horizontal = 1;
place = "{-5, 23}";
type = Stem;
},
{
horizontal = 1;
place = "{134, 13}";
type = Stem;
},
{
horizontal = 1;
place = "{162, 21}";
type = Stem;
},
{
horizontal = 1;
place = "{189, 13}";
type = Stem;
}
);
layerId = "CA520923-60C5-486F-B3B7-3CF52C5755D9";
name = "Regular-Mono";
paths = (
{
closed = 1;
nodes = (
"230 133 LINE",
"224 148 OFFCURVE",
"217 159 OFFCURVE",
"210 165 CURVE SMOOTH",
"195 177 OFFCURVE",
"178 183 OFFCURVE",
"158 183 CURVE SMOOTH",
"133 183 OFFCURVE",
"112 174 OFFCURVE",
"96 156 CURVE",
"79 139 OFFCURVE",
"71 116 OFFCURVE",
"71 88 CURVE SMOOTH",
"71 61 OFFCURVE",
"80 39 OFFCURVE",
"97 22 CURVE SMOOTH",
"114 4 OFFCURVE",
"135 -5 OFFCURVE",
"160 -5 CURVE SMOOTH",
"181 -5 OFFCURVE",
"198 0 OFFCURVE",
"211 11 CURVE SMOOTH",
"219 18 OFFCURVE",
"226 32 OFFCURVE",
"232 51 CURVE",
"204 51 LINE",
"199 37 OFFCURVE",
"193 28 OFFCURVE",
"188 25 CURVE",
"183 20 OFFCURVE",
"174 18 OFFCURVE",
"162 18 CURVE SMOOTH",
"123 18 OFFCURVE",
"97 48 OFFCURVE",
"97 89 CURVE SMOOTH",
"97 110 OFFCURVE",
"104 127 OFFCURVE",
"117 142 CURVE",
"130 155 OFFCURVE",
"144 162 OFFCURVE",
"159 162 CURVE SMOOTH",
"179 162 OFFCURVE",
"193 152 OFFCURVE",
"201 133 CURVE"
);
},
{
closed = 1;
nodes = (
"59 189 OFFCURVE",
"68 180 OFFCURVE",
"68 168 CURVE SMOOTH",
"68 162 OFFCURVE",
"66 157 OFFCURVE",
"62 153 CURVE SMOOTH",
"57 149 OFFCURVE",
"52 147 OFFCURVE",
"47 147 CURVE SMOOTH",
"35 147 OFFCURVE",
"26 156 OFFCURVE",
"26 168 CURVE SMOOTH",
"26 173 OFFCURVE",
"28 178 OFFCURVE",
"32 183 CURVE SMOOTH",
"36 187 OFFCURVE",
"41 189 OFFCURVE",
"47 189 CURVE SMOOTH"
);
},
{
closed = 1;
nodes = (
"28 202 OFFCURVE",
"13 187 OFFCURVE",
"13 168 CURVE SMOOTH",
"13 149 OFFCURVE",
"28 134 OFFCURVE",
"47 134 CURVE SMOOTH",
"66 134 OFFCURVE",
"81 149 OFFCURVE",
"81 168 CURVE SMOOTH",
"81 187 OFFCURVE",
"66 202 OFFCURVE",
"47 202 CURVE SMOOTH"
);
}
);
width = 256;
}
);
unicode = 2103;
},
{
glyphname = uni2109;
layers = (
{
hints = (
{
horizontal = 1;
place = "{1, 21}";
target = up;
type = BottomGhost;
},
{
horizontal = 1;
place = "{81, 21}";
type = Stem;
},
{
horizontal = 1;
place = "{134, 13}";
type = Stem;
},
{
horizontal = 1;
place = "{160, 22}";
type = Stem;
},
{
horizontal = 1;
place = "{186, 14}";
type = Stem;
},
{
place = "{20, 13}";
type = Stem;
},
{
place = "{73, 13}";
type = Stem;
},
{
place = "{98, 23}";
type = Stem;
}
);
layerId = "CA520923-60C5-486F-B3B7-3CF52C5755D9";
name = "Regular-Mono";
paths = (
{
closed = 1;
nodes = (
"121 1 LINE",
"121 81 LINE",
"208 81 LINE",
"208 102 LINE",
"121 102 LINE",
"121 160 LINE",
"233 160 LINE",
"233 182 LINE",
"98 182 LINE",
"98 1 LINE"
);
},
{
closed = 1;
nodes = (
"20 152 OFFCURVE",
"31 134 OFFCURVE",
"54 134 CURVE SMOOTH",
"67 134 OFFCURVE",
"86 145 OFFCURVE",
"86 167 CURVE",
"85 174 OFFCURVE",
"84 180 OFFCURVE",
"81 184 CURVE SMOOTH",
"74 196 OFFCURVE",
"61 200 OFFCURVE",
"52 200 CURVE SMOOTH",
"49 200 OFFCURVE",
"46 199 OFFCURVE",
"41 197 CURVE",
"29 195 OFFCURVE",
"20 180 OFFCURVE",
"20 165 CURVE SMOOTH"
);
},
{
closed = 1;
nodes = (
"64 186 OFFCURVE",
"73 177 OFFCURVE",
"73 166 CURVE",
"73 165 OFFCURVE",
"73 164 OFFCURVE",
"72 163 CURVE",
"71 160 LINE SMOOTH",
"68 152 OFFCURVE",
"62 147 OFFCURVE",
"51 147 CURVE SMOOTH",
"42 147 OFFCURVE",
"34 154 OFFCURVE",
"33 167 CURVE",
"33 177 OFFCURVE",
"41 186 OFFCURVE",
"54 186 CURVE SMOOTH"
);
}
);
width = 256;
}
);
unicode = 2109;
},
{
glyphname = uni2113;
layers = (
{
hints = (
{
horizontal = 1;
place = "{-5, 16}";
type = Stem;
},
{
horizontal = 1;
place = "{15, 18}";
type = Stem;
},
{
horizontal = 1;
place = "{167, 22}";
type = Stem;
},
{
place = "{85, 23}";
type = Stem;
},
{
place = "{157, 23}";
type = Stem;
}
);
layerId = "CA520923-60C5-486F-B3B7-3CF52C5755D9";
name = "Regular-Mono";
paths = (
{
closed = 1;
nodes = (
"129 188 OFFCURVE",
"122 186 OFFCURVE",
"117 183 CURVE SMOOTH",
"104 174 OFFCURVE",
"92 152 OFFCURVE",
"87 116 CURVE SMOOTH",
"86 108 OFFCURVE",
"85 93 OFFCURVE",
"85 72 CURVE SMOOTH",
"85 61 OFFCURVE",
"87 48 OFFCURVE",
"91 35 CURVE",
"84 34 OFFCURVE",
"78 33 OFFCURVE",
"73 33 CURVE",
"75 15 LINE",
"78 15 OFFCURVE",
"86 16 OFFCURVE",
"97 18 CURVE",
"105 6 OFFCURVE",
"112 -2 OFFCURVE",
"123 -5 CURVE SMOOTH",
"126 -6 OFFCURVE",
"132 -7 OFFCURVE",
"139 -7 CURVE SMOOTH",
"158 -7 OFFCURVE",
"177 7 OFFCURVE",
"188 39 CURVE",
"166 44 LINE",
"161 31 OFFCURVE",
"156 21 OFFCURVE",
"150 16 CURVE SMOOTH",
"147 13 OFFCURVE",
"142 11 OFFCURVE",
"135 11 CURVE SMOOTH",
"130 11 OFFCURVE",
"125 15 OFFCURVE",
"120 24 CURVE",
"133 29 OFFCURVE",
"143 34 OFFCURVE",
"150 39 CURVE",
"169 56 OFFCURVE",
"180 86 OFFCURVE",
"180 127 CURVE SMOOTH",
"180 143 OFFCURVE",
"174 167 OFFCURVE",
"159 180 CURVE SMOOTH",
"154 185 OFFCURVE",
"147 188 OFFCURVE",
"138 189 CURVE"
);
},
{
closed = 1;
nodes = (
"108 124 OFFCURVE",
"114 149 OFFCURVE",
"126 162 CURVE",
"129 164 OFFCURVE",
"133 166 OFFCURVE",
"138 167 CURVE",
"139 167 LINE",
"140 167 OFFCURVE",
"142 167 OFFCURVE",
"144 166 CURVE SMOOTH",
"147 163 OFFCURVE",
"150 161 OFFCURVE",
"151 158 CURVE SMOOTH",
"153 154 OFFCURVE",
"154 150 OFFCURVE",
"155 145 CURVE SMOOTH",
"156 136 OFFCURVE",
"157 128 OFFCURVE",
"157 121 CURVE SMOOTH",
"157 116 OFFCURVE",
"156 107 OFFCURVE",
"154 95 CURVE SMOOTH",
"150 70 OFFCURVE",
"144 59 OFFCURVE",
"133 51 CURVE SMOOTH",
"129 48 OFFCURVE",
"122 44 OFFCURVE",
"113 40 CURVE",
"109 52 OFFCURVE",
"108 59 OFFCURVE",
"108 80 CURVE SMOOTH"
);
}
);
width = 256;
}
);
unicode = 2113;
},
{
glyphname = uni2116;
layers = (
{
hints = (
{
place = "{17, 22}";
type = Stem;
},
{
place = "{97, 22}";
type = Stem;
},
{
place = "{128, 23}";
type = Stem;
},
{
place = "{202, 22}";
type = Stem;
},
{
place = "{224, 25}";
type = Stem;
},
{
horizontal = 1;
place = "{-6, 19}";
type = Stem;
},
{
horizontal = 1;
place = "{-2, 25}";
type = Stem;
},
{
horizontal = 1;
place = "{0, 50}";
type = Stem;
},
{
horizontal = 1;
place = "{118, 18}";
type = Stem;
},
{
horizontal = 1;
place = "{130, 51}";
type = Stem;
},
{
horizontal = 1;
place = "{181, -20}";
target = down;
type = TopGhost;
}
);
layerId = "CA520923-60C5-486F-B3B7-3CF52C5755D9";
name = "Regular-Mono";
paths = (
{
closed = 1;
nodes = (
"128 37 OFFCURVE",
"136 8 OFFCURVE",
"159 -3 CURVE SMOOTH",
"164 -5 OFFCURVE",
"171 -6 OFFCURVE",
"180 -6 CURVE SMOOTH",
"198 -6 OFFCURVE",
"224 9 OFFCURVE",
"224 70 CURVE SMOOTH",
"224 92 OFFCURVE",
"216 119 OFFCURVE",
"197 131 CURVE",
"192 133 OFFCURVE",
"185 135 OFFCURVE",
"176 136 CURVE",
"167 135 OFFCURVE",
"159 133 OFFCURVE",
"154 129 CURVE SMOOTH",
"138 118 OFFCURVE",
"128 95 OFFCURVE",
"128 60 CURVE SMOOTH"
);
},
{
closed = 1;
nodes = (
"17 0 LINE",
"39 0 LINE",
"39 130 LINE",
"94 0 LINE",
"119 0 LINE",
"119 181 LINE",
"97 181 LINE",
"97 50 LINE",
"41 181 LINE",
"17 181 LINE"
);
},
{
closed = 1;
nodes = (
"150 83 OFFCURVE",
"153 97 OFFCURVE",
"159 107 CURVE SMOOTH",
"163 113 OFFCURVE",
"169 117 OFFCURVE",
"176 118 CURVE",
"178 118 LINE",
"179 118 OFFCURVE",
"183 116 OFFCURVE",
"188 113 CURVE SMOOTH",
"191 110 OFFCURVE",
"194 106 OFFCURVE",
"197 100 CURVE SMOOTH",
"200 92 OFFCURVE",
"202 81 OFFCURVE",
"202 66 CURVE SMOOTH",
"202 57 LINE SMOOTH",
"202 44 OFFCURVE",
"195 21 OFFCURVE",
"184 14 CURVE SMOOTH",
"182 13 OFFCURVE",
"179 13 OFFCURVE",
"176 13 CURVE",
"174 13 LINE",
"165 13 OFFCURVE",
"149 26 OFFCURVE",
"151 65 CURVE"
);
},
{
closed = 1;
nodes = (
"224 18 LINE",
"224 2 LINE",
"228 -2 LINE",
"244 -2 LINE",
"249 2 LINE",
"249 18 LINE",
"244 23 LINE",
"228 23 LINE"
);
}
);
width = 256;
}
);
unicode = 2116;
},
{
glyphname = uni2121;
layers = (
{
hints = (
{
horizontal = 1;
place = "{1, 22}";
type = Stem;
},
{
horizontal = 1;
place = "{84, 21}";
type = Stem;
},
{
horizontal = 1;
place = "{160, 22}";
type = Stem;
},
{
place = "{42, 23}";
type = Stem;
},
{
place = "{102, 22}";
type = Stem;
},
{
place = "{188, 21}";
type = Stem;
}
);
layerId = "CA520923-60C5-486F-B3B7-3CF52C5755D9";
name = "Regular-Mono";
paths = (
{
closed = 1;
nodes = (
"102 182 LINE",
"102 1 LINE",
"177 1 LINE",
"177 23 LINE",
"124 23 LINE",
"124 84 LINE",
"169 84 LINE",
"169 105 LINE",
"124 105 LINE",
"124 160 LINE",
"173 160 LINE",
"173 182 LINE"
);
},
{
closed = 1;
nodes = (
"42 160 LINE",
"42 1 LINE",
"65 1 LINE",
"65 160 LINE",
"93 160 LINE",
"93 182 LINE",
"13 182 LINE",
"13 160 LINE"
);
},
{
closed = 1;
nodes = (
"188 182 LINE",
"188 1 LINE",
"248 1 LINE",
"248 23 LINE",
"209 23 LINE",
"209 182 LINE"
);
}
);
width = 256;
}
);
unicode = 2121;
},
{
glyphname = trademark;
layers = (
{
hints = (
{
place = "{23, 14}";
type = Stem;
},
{
place = "{66, 11}";
type = Stem;
},
{
place = "{115, 13}";
type = Stem;
},
{
horizontal = 1;
place = "{96, 17}";
type = Stem;
},
{
horizontal = 1;
place = "{131, 31}";
type = Stem;
},
{
horizontal = 1;
place = "{150, 12}";
type = Stem;
}
);
layerId = "CA520923-60C5-486F-B3B7-3CF52C5755D9";
name = "Regular-Mono";
paths = (
{
closed = 1;
nodes = (
"77 81 LINE",
"77 131 LINE",
"90 96 LINE",
"103 96 LINE",
"115 131 LINE",
"115 81 LINE",
"128 81 LINE",
"128 162 LINE",
"115 162 LINE",
"97 113 LINE",
"79 162 LINE",
"66 162 LINE",
"66 81 LINE"
);
},
{
closed = 1;
nodes = (
"0 150 LINE",
"23 150 LINE",
"23 81 LINE",
"37 81 LINE",
"37 150 LINE",
"60 150 LINE",
"60 162 LINE",
"0 162 LINE"
);
}
);
width = 128;
}
);
unicode = 2122;
},
{
glyphname = uni212B;
layers = (
{
hints = (
{
place = "{105, 8}";
type = Stem;
},
{
place = "{144, 9}";
type = Stem;
},
{
horizontal = 1;
place = "{0, 71}";
type = Stem;
},
{
horizontal = 1;
place = "{50, 21}";
type = Stem;
},
{
horizontal = 1;
place = "{140, 25}";
type = Stem;
},
{
horizontal = 1;
place = "{170, 9}";
type = Stem;
},
{
horizontal = 1;
place = "{210, 9}";
type = Stem;
}
);
layerId = "CA520923-60C5-486F-B3B7-3CF52C5755D9";
name = "Regular-Mono";
paths = (
{
closed = 1;
nodes = (
"63 0 LINE",
"87 50 LINE",
"168 50 LINE",
"191 0 LINE",
"219 0 LINE",
"144 165 LINE",
"115 165 LINE",
"36 0 LINE"
);
},
{
closed = 1;
nodes = (
"96 71 LINE",
"128 140 LINE",
"159 71 LINE"
);
},
{
closed = 1;
nodes = (
"105 180 OFFCURVE",
"115 170 OFFCURVE",
"129 170 CURVE SMOOTH",
"143 170 OFFCURVE",
"153 180 OFFCURVE",
"153 194 CURVE SMOOTH",
"153 208 OFFCURVE",
"143 219 OFFCURVE",
"129 219 CURVE SMOOTH",
"115 219 OFFCURVE",
"105 208 OFFCURVE",
"105 194 CURVE SMOOTH"
);
},
{
closed = 1;
nodes = (
"113 204 OFFCURVE",
"120 210 OFFCURVE",
"129 210 CURVE SMOOTH",
"139 210 OFFCURVE",
"144 204 OFFCURVE",
"144 194 CURVE SMOOTH",
"144 186 OFFCURVE",
"137 179 OFFCURVE",
"129 179 CURVE SMOOTH",
"122 179 OFFCURVE",
"113 186 OFFCURVE",
"113 194 CURVE SMOOTH"
);
}
);
width = 256;
}
);
unicode = 212B;
},
{
glyphname = arrowleft;
layers = (
{
hints = (
{
horizontal = 1;
place = "{82, 16}";
type = Stem;
}
);
layerId = "CA520923-60C5-486F-B3B7-3CF52C5755D9";
name = "Regular-Mono";
paths = (
{
closed = 1;
nodes = (
"87 51 LINE",
"48 82 LINE",
"223 82 LINE",
"223 98 LINE",
"48 98 LINE",
"87 129 LINE",
"76 143 LINE",
"8 90 LINE",
"74 36 LINE"
);
}
);
width = 231;
}
);
unicode = 2190;
},
{
glyphname = arrowup;
layers = (
{
hints = (
{
horizontal = 1;
place = "{-26, 234}";
type = Stem;
},
{
place = "{119, 18}";
type = Stem;
}
);
layerId = "CA520923-60C5-486F-B3B7-3CF52C5755D9";
name = "Regular-Mono";
paths = (
{
closed = 1;
nodes = (
"119 158 LINE",
"119 -16 LINE",
"137 -16 LINE",
"137 158 LINE",
"167 120 LINE",
"181 132 LINE",
"128 198 LINE",
"75 133 LINE",
"89 121 LINE"
);
}
);
width = 256;
}
);
unicode = 2191;
},
{
glyphname = arrowright;
layers = (
{
hints = (
{
horizontal = 1;
place = "{82, 16}";
type = Stem;
}
);
layerId = "CA520923-60C5-486F-B3B7-3CF52C5755D9";
name = "Regular-Mono";
paths = (
{
closed = 1;
nodes = (
"8 98 LINE",
"8 82 LINE",
"184 82 LINE",
"145 51 LINE",
"156 37 LINE",
"223 91 LINE",
"157 144 LINE",
"145 130 LINE",
"185 98 LINE"
);
}
);
width = 231;
}
);
unicode = 2192;
},
{
glyphname = arrowdown;
layers = (
{
hints = (
{
place = "{119, 17}";
type = Stem;
},
{
horizontal = 1;
place = "{196, -20}";
target = down;
type = TopGhost;
}
);
layerId = "CA520923-60C5-486F-B3B7-3CF52C5755D9";
name = "Regular-Mono";
paths = (
{
closed = 1;
nodes = (
"89 61 LINE",
"75 49 LINE",
"128 -18 LINE",
"181 48 LINE",
"168 59 LINE",
"136 21 LINE",
"136 196 LINE",
"119 196 LINE",
"119 22 LINE"
);
}
);
width = 256;
}
);
unicode = 2193;
},
{
glyphname = uni21C4;
layers = (
{
hints = (
{
horizontal = 1;
place = "{22, 11}";
type = Stem;
},
{
horizontal = 1;
place = "{150, 10}";
type = Stem;
},
{
place = "{10, 236}";
type = Stem;
}
);
layerId = "CA520923-60C5-486F-B3B7-3CF52C5755D9";
name = "Regular-Mono";
paths = (
{
closed = 1;
nodes = (
"218 150 LINE",
"202 134 LINE",
"198 129 OFFCURVE",
"192 122 OFFCURVE",
"185 113 CURVE",
"188 110 LINE",
"218 134 LINE SMOOTH",
"223 138 OFFCURVE",
"233 144 OFFCURVE",
"246 152 CURVE",
"246 157 LINE",
"236 163 OFFCURVE",
"228 168 OFFCURVE",
"223 173 CURVE",
"217 177 OFFCURVE",
"205 186 OFFCURVE",
"188 200 CURVE",
"185 197 LINE",
"194 184 OFFCURVE",
"205 171 OFFCURVE",
"218 160 CURVE",
"11 160 LINE",
"11 150 LINE"
);
},
{
closed = 1;
nodes = (
"38 33 LINE",
"49 44 OFFCURVE",
"60 56 OFFCURVE",
"71 69 CURVE",
"67 73 LINE",
"52 60 OFFCURVE",
"41 51 OFFCURVE",
"33 45 CURVE",
"10 30 LINE",
"10 25 LINE",
"15 22 OFFCURVE",
"19 19 OFFCURVE",
"24 16 CURVE SMOOTH",
"35 9 OFFCURVE",
"49 -2 OFFCURVE",
"68 -18 CURVE",
"71 -15 LINE",
"64 -4 OFFCURVE",
"52 8 OFFCURVE",
"37 22 CURVE",
"244 22 LINE",
"244 33 LINE"
);
}
);
width = 256;
}
);
unicode = 21C4;
},
{
glyphname = uni21C5;
layers = (
{
hints = (
{
horizontal = 1;
place = "{-26, 234}";
type = Stem;
},
{
place = "{58, 11}";
type = Stem;
},
{
place = "{186, 11}";
type = Stem;
}
);
layerId = "CA520923-60C5-486F-B3B7-3CF52C5755D9";
name = "Regular-Mono";
paths = (
{
closed = 1;
nodes = (
"69 182 LINE",
"80 169 OFFCURVE",
"87 162 OFFCURVE",
"106 147 CURVE",
"110 151 LINE",
"89 174 OFFCURVE",
"75 193 OFFCURVE",
"67 208 CURVE",
"61 208 LINE",
"54 196 OFFCURVE",
"48 188 OFFCURVE",
"45 183 CURVE",
"18 151 LINE",
"22 148 LINE",
"37 159 OFFCURVE",
"49 170 OFFCURVE",
"58 181 CURVE",
"58 -24 LINE",
"69 -24 LINE"
);
},
{
closed = 1;
nodes = (
"186 2 LINE",
"175 13 OFFCURVE",
"163 24 OFFCURVE",
"150 35 CURVE",
"147 32 LINE",
"159 17 OFFCURVE",
"166 8 OFFCURVE",
"168 5 CURVE SMOOTH",
"173 -2 OFFCURVE",
"181 -12 OFFCURVE",
"190 -26 CURVE",
"194 -26 LINE",
"203 -13 OFFCURVE",
"209 -4 OFFCURVE",
"212 1 CURVE SMOOTH",
"221 12 OFFCURVE",
"229 23 OFFCURVE",
"238 32 CURVE",
"234 35 LINE",
"219 24 OFFCURVE",
"207 12 OFFCURVE",
"197 1 CURVE",
"197 207 LINE",
"186 207 LINE"
);
}
);
width = 256;
}
);
unicode = 21C5;
},
{
glyphname = uni21C6;
layers = (
{
hints = (
{
horizontal = 1;
place = "{22, 10}";
type = Stem;
},
{
horizontal = 1;
place = "{150, 11}";
type = Stem;
},
{
place = "{10, 236}";
type = Stem;
}
);
layerId = "CA520923-60C5-486F-B3B7-3CF52C5755D9";
name = "Regular-Mono";
paths = (
{
closed = 1;
nodes = (
"243 161 LINE",
"37 161 LINE",
"44 167 OFFCURVE",
"50 172 OFFCURVE",
"54 177 CURVE SMOOTH",
"72 198 LINE",
"68 201 LINE",
"55 190 OFFCURVE",
"44 181 OFFCURVE",
"35 174 CURVE",
"10 158 LINE",
"10 152 LINE",
"21 146 OFFCURVE",
"29 141 OFFCURVE",
"34 137 CURVE SMOOTH",
"68 110 LINE",
"71 113 LINE",
"64 122 OFFCURVE",
"58 129 OFFCURVE",
"53 134 CURVE SMOOTH",
"51 137 OFFCURVE",
"46 142 OFFCURVE",
"37 150 CURVE",
"243 150 LINE"
);
},
{
closed = 1;
nodes = (
"218 22 LINE",
"207 11 OFFCURVE",
"195 -1 OFFCURVE",
"184 -15 CURVE",
"188 -18 LINE",
"208 -1 OFFCURVE",
"227 13 OFFCURVE",
"246 24 CURVE",
"246 30 LINE",
"237 35 OFFCURVE",
"230 38 OFFCURVE",
"227 41 CURVE SMOOTH",
"214 51 OFFCURVE",
"201 62 OFFCURVE",
"188 73 CURVE",
"185 69 LINE",
"198 50 OFFCURVE",
"207 43 OFFCURVE",
"219 32 CURVE",
"12 32 LINE",
"12 22 LINE"
);
}
);
width = 256;
}
);
unicode = 21C6;
},
{
glyphname = arrowdblright;
layers = (
{
hints = (
{
horizontal = 1;
place = "{54, 17}";
type = Stem;
},
{
horizontal = 1;
place = "{110, 16}";
type = Stem;
},
{
place = "{13, 232}";
type = Stem;
}
);
layerId = "CA520923-60C5-486F-B3B7-3CF52C5755D9";
name = "Regular-Mono";
paths = (
{
closed = 1;
nodes = (
"13 126 LINE",
"13 110 LINE",
"202 110 LINE",
"222 90 LINE",
"202 71 LINE",
"13 71 LINE",
"13 54 LINE",
"186 54 LINE",
"154 22 LINE",
"166 10 LINE",
"245 90 LINE",
"165 171 LINE",
"154 160 LINE",
"187 126 LINE"
);
}
);
width = 256;
}
);
unicode = 21D2;
},
{
glyphname = arrowdblboth;
layers = (
{
hints = (
{
horizontal = 1;
place = "{56, 15}";
type = Stem;
},
{
horizontal = 1;
place = "{110, 16}";
type = Stem;
},
{
place = "{9, 239}";
type = Stem;
}
);
layerId = "CA520923-60C5-486F-B3B7-3CF52C5755D9";
name = "Regular-Mono";
paths = (
{
closed = 1;
nodes = (
"204 71 LINE",
"52 71 LINE",
"32 90 LINE",
"52 110 LINE",
"205 110 LINE",
"225 91 LINE"
);
},
{
closed = 1;
nodes = (
"68 126 LINE",
"100 159 LINE",
"88 171 LINE",
"9 91 LINE",
"90 11 LINE",
"101 22 LINE",
"68 56 LINE",
"188 56 LINE",
"156 22 LINE",
"168 10 LINE",
"248 90 LINE",
"167 171 LINE",
"156 160 LINE",
"189 126 LINE"
);
}
);
width = 256;
}
);
unicode = 21D4;
},
{
glyphname = uni21E6;
layers = (
{
hints = (
{
horizontal = 1;
place = "{53, 9}";
type = Stem;
},
{
horizontal = 1;
place = "{120, 9}";
type = Stem;
},
{
place = "{93, 9}";
type = Stem;
},
{
place = "{234, 9}";
type = Stem;
}
);
layerId = "CA520923-60C5-486F-B3B7-3CF52C5755D9";
name = "Regular-Mono";
paths = (
{
closed = 1;
nodes = (
"102 8 LINE",
"102 53 LINE",
"243 53 LINE",
"243 129 LINE",
"102 129 LINE",
"102 174 LINE",
"12 91 LINE"
);
},
{
closed = 1;
nodes = (
"93 152 LINE",
"93 120 LINE",
"234 120 LINE",
"234 62 LINE",
"93 62 LINE",
"93 30 LINE",
"25 91 LINE"
);
}
);
width = 256;
}
);
unicode = 21E6;
},
{
glyphname = uni21E7;
layers = (
{
hints = (
{
horizontal = 1;
place = "{-24, 8}";
type = Stem;
},
{
horizontal = 1;
place = "{117, 9}";
type = Stem;
},
{
place = "{90, 9}";
type = Stem;
},
{
place = "{157, 9}";
type = Stem;
}
);
layerId = "CA520923-60C5-486F-B3B7-3CF52C5755D9";
name = "Regular-Mono";
paths = (
{
closed = 1;
nodes = (
"90 117 LINE",
"90 -24 LINE",
"166 -24 LINE",
"166 117 LINE",
"211 117 LINE",
"128 207 LINE",
"45 117 LINE"
);
},
{
closed = 1;
nodes = (
"127 193 LINE",
"189 126 LINE",
"157 126 LINE",
"157 -16 LINE",
"99 -16 LINE",
"99 126 LINE",
"66 126 LINE"
);
}
);
width = 256;
}
);
unicode = 21E7;
},
{
glyphname = uni21E8;
layers = (
{
hints = (
{
horizontal = 1;
place = "{54, 8}";
type = Stem;
},
{
horizontal = 1;
place = "{120, 9}";
type = Stem;
},
{
place = "{12, 9}";
type = Stem;
},
{
place = "{153, 10}";
type = Stem;
}
);
layerId = "CA520923-60C5-486F-B3B7-3CF52C5755D9";
name = "Regular-Mono";
paths = (
{
closed = 1;
nodes = (
"12 54 LINE",
"153 54 LINE",
"153 8 LINE",
"243 91 LINE",
"153 174 LINE",
"153 129 LINE",
"12 129 LINE"
);
},
{
closed = 1;
nodes = (
"21 120 LINE",
"163 120 LINE",
"163 153 LINE",
"230 92 LINE",
"163 30 LINE",
"163 62 LINE",
"21 62 LINE"
);
}
);
width = 256;
}
);
unicode = 21E8;
},
{
glyphname = uni21E9;
layers = (
{
hints = (
{
horizontal = 1;
place = "{57, 9}";
type = Stem;
},
{
horizontal = 1;
place = "{199, 9}";
type = Stem;
},
{
place = "{90, 8}";
type = Stem;
},
{
place = "{157, 9}";
type = Stem;
}
);
layerId = "CA520923-60C5-486F-B3B7-3CF52C5755D9";
name = "Regular-Mono";
paths = (
{
closed = 1;
nodes = (
"45 66 LINE",
"128 -24 LINE",
"211 66 LINE",
"166 66 LINE",
"166 208 LINE",
"90 208 LINE",
"90 66 LINE"
);
},
{
closed = 1;
nodes = (
"98 57 LINE",
"98 199 LINE",
"157 199 LINE",
"157 57 LINE",
"189 57 LINE",
"128 -10 LINE",
"67 57 LINE"
);
}
);
width = 256;
}
);
unicode = 21E9;
},
{
glyphname = universal;
layers = (
{
hints = (
{
horizontal = 1;
place = "{109, 17}";
type = Stem;
},
{
place = "{21, 211}";
type = Stem;
}
);
layerId = "CA520923-60C5-486F-B3B7-3CF52C5755D9";
name = "Regular-Mono";
paths = (
{
closed = 1;
nodes = (
"81 109 LINE",
"173 109 LINE",
"128 17 LINE"
);
},
{
closed = 1;
nodes = (
"232 190 LINE",
"217 198 LINE",
"181 126 LINE",
"73 126 LINE",
"36 199 LINE",
"21 192 LINE",
"128 -21 LINE"
);
}
);
width = 256;
}
);
unicode = 2200;
},
{
glyphname = partialdiff;
layers = (
{
hints = (
{
horizontal = 1;
place = "{-8, 18}";
type = Stem;
},
{
horizontal = 1;
place = "{93, 18}";
type = Stem;
},
{
horizontal = 1;
place = "{168, 19}";
type = Stem;
},
{
place = "{62, 23}";
type = Stem;
},
{
place = "{166, 22}";
type = Stem;
}
);
layerId = "CA520923-60C5-486F-B3B7-3CF52C5755D9";
name = "Regular-Mono";
paths = (
{
closed = 1;
nodes = (
"145 44 OFFCURVE",
"138 28 OFFCURVE",
"131 21 CURVE SMOOTH",
"124 14 OFFCURVE",
"116 10 OFFCURVE",
"108 10 CURVE SMOOTH",
"96 10 OFFCURVE",
"85 20 OFFCURVE",
"85 36 CURVE SMOOTH",
"85 55 OFFCURVE",
"89 70 OFFCURVE",
"98 79 CURVE SMOOTH",
"106 88 OFFCURVE",
"115 93 OFFCURVE",
"125 93 CURVE SMOOTH",
"134 93 OFFCURVE",
"140 91 OFFCURVE",
"145 87 CURVE SMOOTH",
"149 83 OFFCURVE",
"152 77 OFFCURVE",
"153 69 CURVE"
);
},
{
closed = 1;
nodes = (
"157 99 OFFCURVE",
"153 103 OFFCURVE",
"146 106 CURVE SMOOTH",
"138 109 OFFCURVE",
"131 111 OFFCURVE",
"125 111 CURVE SMOOTH",
"104 111 OFFCURVE",
"84 99 OFFCURVE",
"72 75 CURVE",
"65 64 OFFCURVE",
"62 52 OFFCURVE",
"62 40 CURVE SMOOTH",
"62 26 OFFCURVE",
"67 14 OFFCURVE",
"76 5 CURVE SMOOTH",
"85 -4 OFFCURVE",
"96 -8 OFFCURVE",
"109 -8 CURVE SMOOTH",
"122 -8 OFFCURVE",
"134 -4 OFFCURVE",
"143 5 CURVE SMOOTH",
"156 16 OFFCURVE",
"166 35 OFFCURVE",
"175 60 CURVE SMOOTH",
"184 84 OFFCURVE",
"188 107 OFFCURVE",
"188 129 CURVE SMOOTH",
"188 174 OFFCURVE",
"163 187 OFFCURVE",
"136 187 CURVE SMOOTH",
"127 187 OFFCURVE",
"121 186 OFFCURVE",
"116 183 CURVE",
"108 180 OFFCURVE",
"100 174 OFFCURVE",
"91 166 CURVE",
"108 152 LINE",
"113 157 OFFCURVE",
"118 162 OFFCURVE",
"123 165 CURVE SMOOTH",
"128 167 OFFCURVE",
"133 168 OFFCURVE",
"138 168 CURVE SMOOTH",
"147 168 OFFCURVE",
"153 165 OFFCURVE",
"158 159 CURVE SMOOTH",
"163 152 OFFCURVE",
"166 144 OFFCURVE",
"166 133 CURVE SMOOTH",
"166 121 OFFCURVE",
"164 108 OFFCURVE",
"160 94 CURVE"
);
}
);
width = 256;
}
);
unicode = 2202;
},
{
glyphname = existential;
layers = (
{
hints = (
{
horizontal = 1;
place = "{1, 18}";
type = Stem;
},
{
horizontal = 1;
place = "{82, 18}";
type = Stem;
},
{
horizontal = 1;
place = "{161, 18}";
type = Stem;
},
{
place = "{188, 19}";
type = Stem;
}
);
layerId = "CA520923-60C5-486F-B3B7-3CF52C5755D9";
name = "Regular-Mono";
paths = (
{
closed = 1;
nodes = (
"53 1 LINE",
"207 1 LINE",
"207 179 LINE",
"53 179 LINE",
"53 161 LINE",
"188 161 LINE",
"188 100 LINE",
"53 100 LINE",
"53 82 LINE",
"188 82 LINE",
"188 19 LINE",
"53 19 LINE"
);
}
);
width = 256;
}
);
unicode = 2203;
},
{
glyphname = gradient;
layers = (
{
hints = (
{
horizontal = 1;
place = "{151, 23}";
type = Stem;
},
{
place = "{35, 188}";
type = Stem;
}
);
layerId = "CA520923-60C5-486F-B3B7-3CF52C5755D9";
name = "Regular-Mono";
paths = (
{
closed = 1;
nodes = (
"72 151 LINE",
"192 151 LINE",
"130 33 LINE"
);
},
{
closed = 1;
nodes = (
"223 174 LINE",
"35 174 LINE",
"126 -11 LINE"
);
}
);
width = 256;
}
);
unicode = 2207;
},
